<svg height="407pt" viewBox="-8 0 407 407.49477" width="407pt" xmlns="http://www.w3.org/2000/svg"><path d="m388.625 47.9375-4.351562-4.015625c1.488281-2.484375 2.429687-5.28125 2.613281-8.261719.332031-5.519531-1.800781-10.824218-5.867188-14.578125l-15-13.839843c-4.0625-3.738282-9.519531-5.464844-15.007812-4.667969-2.949219.421875-5.65625 1.582031-8.007813 3.257812l-4.351562-4.015625c-2.765625-2.5625-7.085938-2.394531-9.648438.378906-2.558594 2.773438-2.382812 7.09375.382813 9.644532l5.246093 4.847656-3.042968 5.054688-2.558594-2.359376c-2.75-2.546874-7.085938-2.382812-9.644531.390626-2.554688 2.765624-2.378907 7.085937.394531 9.648437l2.46875 2.277344-4.777344 3.460937-5.179687-4.785156c-2.765625-2.554688-7.078125-2.386719-9.648438.378906-2.558593 2.773438-2.382812 7.09375.382813 9.648438l4.316406 3.988281c-1.488281 2.492187-2.433594 5.300781-2.609375 8.289063-.054687.894531.0625 1.765624.132813 2.640624l-120.023438 121.757813c-27.816406-11.179687-59.664062-4.167969-80.175781 18.0625-5.914063 6.414063-10.566407 13.757813-13.816407 21.828125-1.683593 4.171875-5.28125 7.050781-9.378906 7.523438-26.285156 2.996093-49.246094 16.613281-64.652344 38.355468-24.042968 33.921875-21.703124 81.332032 5.558594 112.742188 17.242188 19.871094 42.09375 31.492187 68.179688 31.890625.464844.007812.933594.015625 1.398437.015625 25.609375 0 50.148438-10.726563 67.535157-29.5625 14.003906-15.179688 22.292968-34.105469 23.957031-54.722656.535156-6.640626 4.609375-12.78125 10.882812-16.421876 9.125-5.285156 16.859375-12.40625 22.992188-21.164062 13.773437-19.679688 16.726562-45.921875 7.707031-68.488281-.035156-.097657-.117188-.15625-.160156-.246094l113.054687-130.910156c.050781 0 .101563.015625.152344.015625.855469 0 1.714844-.050782 2.566406-.179688 2.964844-.414062 5.6875-1.578125 8.050781-3.261718l4.316407 3.984374c1.308593 1.203126 2.964843 1.804688 4.625 1.804688 1.839843 0 3.675781-.738281 5.019531-2.199219 2.554688-2.765625 2.382812-7.085937-.390625-9.644531l-5.183594-4.78125 3.066407-5.035156 2.476562 2.28125c1.316406 1.207031 2.972656 1.804687 4.628906 1.804687 1.839844 0 3.671875-.738281 5.019532-2.199219 2.550781-2.773437 2.378906-7.09375-.394532-9.644531l-2.550781-2.351562 4.792969-3.441407 5.25 4.84375c1.308594 1.207032 2.964844 1.808594 4.628906 1.808594 1.835938 0 3.671875-.742187 5.015625-2.199218 2.558594-2.769532 2.382813-7.089844-.390625-9.648438zm-96.21875 69.859375-15.6875-14.472656 14.296875-14.503907 14.703125 13.566407zm-22.238281 25.757813-17.335938-15.996094 14.296875-14.503906 16.351563 15.082031zm-22.242188 25.75-18.980469-17.519532 14.296876-14.5 17.996093 16.605469zm-79.777343 92.382812c-1.957032-6.476562-5.472657-12.394531-10.574219-17.105469-3.75-3.460937-8.027344-5.984375-12.535157-7.671875l16.308594-16.546875 23.640625 21.820313zm-36.609376-13.621094c6 0 12.027344 2.167969 16.773438 6.546875 4.859375 4.488281 7.679688 10.59375 7.945312 17.203125.265626 6.605469-2.058593 12.917969-6.539062 17.773438l-.007812.003906c-4.480469 4.863281-10.585938 7.679688-17.191407 7.949219-6.539062.210937-12.921875-2.0625-17.78125-6.546875-10.027343-9.253906-10.660156-24.949219-1.40625-34.976563 4.875-5.277343 11.527344-7.953125 18.207031-7.953125zm62.378907-16.21875-22.984375-21.210937 17.710937-17.964844 21.757813 20.082031zm25.414062-29.429687-21.097656-19.472657 21.121094-21.429687 19.640625 18.128906zm-13.191406 75.378906c-4.980469 7.113281-11.261719 12.898437-18.648437 17.175781-10.160157 5.886719-16.753907 16.027344-17.652344 27.140625-1.414063 17.546875-8.46875 33.648438-20.378906 46.558594-14.800782 16.039063-35.703126 25.167969-57.5 25.167969-.394532 0-.792969-.007813-1.195313-.007813-22.53125-.34375-43.160156-10.003906-58.078125-27.191406-23.1875-26.722656-25.171875-67.046875-4.734375-95.902344 13.132813-18.523437 32.695313-30.132812 55.070313-32.683593 9.078124-1.035157 16.925781-7.152344 20.492187-15.972657 2.632813-6.542969 6.398437-12.492187 11.195313-17.6875 15.289062-16.578125 38.34375-22.695312 59.519531-16.546875l-46.128907 46.792969c-.023437.023437-.03125.058594-.050781.082031-9.144531.832032-18.039062 4.78125-24.75 12.039063-14.359375 15.566406-13.378906 39.914062 2.179688 54.265625 7.152343 6.601562 16.335937 10.1875 26.007812 10.1875.527344 0 1.054688-.011719 1.582031-.035156 10.25-.410157 19.726563-4.785157 26.679688-12.328126l.003906-.003906c4.460938-4.835937 7.371094-10.648437 8.902344-16.867187l45.882812-53.128907c4.4375 16.683594 1.441407 34.886719-8.398437 48.945313zm108.507813-185.75-14.039063-12.957031 10.882813-11.039063 7.078124 6.53125 6.210938 5.734375zm24.105468-19.75c-.8125.117187-2.40625.117187-3.820312-1.195313l-15.078125-13.914062c-1.414063-1.300781-1.539063-2.878906-1.492188-3.699219.050781-.828125.363281-2.375 1.917969-3.5l15.101562-10.941406c2.019532-1.445313 3.683594-3.265625 4.964844-5.386719l9.269532-15.367187c.992187-1.644531 2.511718-2.085938 3.324218-2.207031.839844-.097657 2.40625-.109376 3.828125 1.195312l15 13.839844c1.410157 1.300781 1.539063 2.878906 1.484375 3.707031-.046875.824219-.367187 2.378906-1.925781 3.5l-14.574219 10.464844c-2.019531 1.457031-3.691406 3.253906-4.964844 5.363281l-9.707031 15.953125c-.996093 1.640625-2.515625 2.074219-3.328125 2.1875zm0 0"/><path d="m82.199219 294.023438c-6.691407-6.175782-17.179688-5.761719-23.378907.9375-6.171874 6.707031-5.753906 17.195312.945313 23.382812l32.132813 29.652344c3.074218 2.839844 7.035156 4.378906 11.199218 4.378906.230469 0 .457032 0 .679688-.015625 4.421875-.171875 8.5-2.066406 11.492187-5.3125 2.996094-3.246094 4.546875-7.464844 4.375-11.878906-.179687-4.414063-2.066406-8.5-5.3125-11.492188zm23.035156 43.773437c-.707031.765625-1.554687.90625-2 .925781-.527344-.019531-1.316406-.058594-2.074219-.757812 0 0 0 0-.007812-.007813l-32.125-29.648437c-1.175782-1.085938-1.246094-2.917969-.175782-4.085938.574219-.621094 1.347657-.925781 2.125-.925781.707032 0 1.40625.25 1.96875.765625l32.132813 29.652344c.757813.699218.90625 1.554687.917969 2 .023437.449218-.050782 1.3125-.761719 2.082031zm0 0"/></svg>