<svg height="362.976pt" viewBox="0 0 362.976 362.976" width="362.976pt" xmlns="http://www.w3.org/2000/svg"><path d="m345.070312 221.550781c1.433594-1.65625 3.582032-2.511719 5.761719-2.292969 2.0625.097657 4.023438.90625 5.550781 2.292969 3.125 3.125 3.125 8.1875 0 11.3125l-5.046874 5.058594-9.257813-13.378906zm-39.597656-50.910156c1.574219-1.445313 3.625-2.261719 5.757813-2.296875 2.109375-.066406 4.144531.769531 5.601562 2.296875 3.09375 3.136719 3.09375 8.175781 0 11.3125l-2.480469 2.480469-9.261718-13.371094zm-124.449218-124.457031c3.125-3.121094 8.1875-3.121094 11.3125 0 1.535156 1.515625 2.367187 3.605468 2.296874 5.761718.019532 2.085938-.808593 4.089844-2.296874 5.550782l-.425782.425781-13.367187-9.257813zm-50.910157-39.589844c3.171875-3.003906 8.136719-3.003906 11.3125 0 1.53125 1.523438 2.363281 3.613281 2.292969 5.773438.027344 2.082031-.804688 4.082031-2.292969 5.535156l-2.992187 3-13.371094-9.253906zm-49.976562-6.59375 20.054687 13.886719-37.960937 37.960937-16.972657-16.976562zm-6.59375 63.199219 40-40 47.90625 33.160156.078125.089844 26.808594 18.429687 25.535156 17.679688-55.445313 55.449218zm-73.542969 186.640625 13.6875-13.6875 45.046875 12.273437c-9.636719 10.921875-17.605469 23.210938-23.636719 36.46875zm79.199219 0 199.929687-199.9375c16.914063-17.007813 39.351563-27.40625 63.261719-29.316406-1.910156 23.90625-12.308594 46.34375-29.320313 63.253906l-199.933593 199.945312c-31.335938 31.335938-59.066407 36.726563-71.367188 37.414063.703125-12.335938 6.109375-40.046875 37.429688-71.359375zm33.9375 113.136718-35.023438-35.015624c13.242188-6.074219 25.519531-14.066407 36.429688-23.722657l12.289062 45.027344zm157.261719-213.839843 17.671874 25.503906 18.496094 26.757813.097656.082031 33.160157 47.894531-40 40-84.863281-84.800781zm57.699218 168.582031-16.976562-16.976562 37.957031-37.957032 13.898437 20.054688zm0 0"/></svg>