<svg id="Layer_5" enable-background="new 0 0 64 64" height="512" viewBox="0 0 64 64" width="512" xmlns="http://www.w3.org/2000/svg"><path d="m48 62 1.6-4.25c.14-.38.32-.74.53-1.07 1.04-1.65 2.86-2.68 4.87-2.68 2.41 0 4.56 1.49 5.4 3.75l1.6 4.25h-12.87z" fill="#cf9e76"/><path d="m49.4 54.75.73 1.93c-.21.33-.39.69-.53 1.07l-1.6 4.25h-10v-6h.12l.48-1.25c.84-2.26 2.99-3.75 5.4-3.75 1.2 0 2.34.37 3.29 1.03.94.65 1.69 1.59 2.11 2.72z" fill="#cf9e76"/><path d="m36 44.8c.01-.01.01-.01 0-.01-1.01-1.69-2.37-3.14-3.98-4.26v.01c-2.93 3.34-7.22 5.46-12.02 5.46s-9.09-2.12-12.02-5.46v-.01c-1.61 1.12-2.97 2.57-3.98 4.26-.01 0-.01 0 0 .01-1.27 2.1-2 4.57-2 7.2v10h36v-6-4c0-2.63-.73-5.1-2-7.2z" fill="#e6e9ed"/><g fill="#fcd770"><path d="m30 52v10h-12v-12h10c1.1 0 2 .9 2 2z"/><path d="m10 62v-10c0-1.1.9-2 2-2h6v12z"/><path d="m8 30c0 3.41 1.42 6.48 3.7 8.68-1.34.43-2.59 1.06-3.72 1.85-1.61 1.12-2.97 2.57-3.98 4.26v-15.79c0-2.21 1.79-4 4-4h1.08c-.69 1.52-1.08 3.21-1.08 5z"/><path d="m36 29v15.79c-1.01-1.69-2.37-3.14-3.98-4.26-1.13-.79-2.38-1.42-3.72-1.85 2.28-2.2 3.7-5.27 3.7-8.68 0-1.79-.39-3.48-1.08-5h1.08c2.21 0 4 1.79 4 4z"/></g><path d="m32.02 40.53v.01c-2.93 3.34-7.22 5.46-12.02 5.46s-9.09-2.12-12.02-5.46v-.01c1.13-.79 2.38-1.42 3.72-1.85 2.15 2.05 5.07 3.32 8.3 3.32s6.15-1.27 8.3-3.32c1.34.43 2.59 1.06 3.72 1.85z" fill="#5cd6b3"/><path d="m14 24c-1.1 0-2 .9-2 2v4c0 4.42 3.58 8 8 8s8-3.58 8-8v-4c0-1.1-.9-2-2-2zm14.3 14.68c-2.15 2.05-5.07 3.32-8.3 3.32s-6.15-1.27-8.3-3.32c-2.28-2.2-3.7-5.27-3.7-8.68 0-1.79.39-3.48 1.08-5 1.9-4.13 6.07-7 10.92-7s9.02 2.87 10.92 7c.69 1.52 1.08 3.21 1.08 5 0 3.41-1.42 6.48-3.7 8.68z" fill="#e6e9ed"/><path d="m12 30h16c0 4.42-3.58 8-8 8s-8-3.58-8-8z" fill="#aab2bd"/><path d="m28 26v4h-16v-4c0-1.1.9-2 2-2h12c1.1 0 2 .9 2 2z" fill="#69d6f4"/><path d="m62 2v10h-18v-6h6v-4z" fill="#e6e9ed"/><path d="m44 12h18v4h-18z" fill="#ff826e"/><path d="m44 2h6v4h-6z" fill="#fcd770"/><path d="m20 39c4.962 0 9-4.037 9-9v-4c0-1.654-1.346-3-3-3h-12c-1.654 0-3 1.346-3 3v4c0 4.963 4.038 9 9 9zm0-2c-3.519 0-6.432-2.614-6.92-6h13.84c-.488 3.386-3.401 6-6.92 6zm-6-12h12c.551 0 1 .448 1 1v3h-14v-3c0-.552.449-1 1-1z"/><path d="m13 53h2v2h-2z"/><path d="m13 57h2v2h-2z"/><path d="m21 53h6v2h-6z"/><path d="m21 57h6v2h-6z"/><path d="m61.341 57.394c-.986-2.628-3.534-4.394-6.341-4.394-1.702 0-3.303.657-4.524 1.754l-.135-.36c-.867-2.311-2.943-3.953-5.341-4.316v-33.078h18v-16h-20v49.078c-1.553.235-2.958 1.018-4 2.162v-.24c0-2.702-.723-5.261-2-7.482v-15.518c0-2.757-2.243-5-5-5h-.479c-2.172-4.154-6.517-7-11.521-7s-9.349 2.846-11.521 7h-.479c-2.757 0-5 2.243-5 5v15.518c-1.277 2.221-2 4.78-2 7.482v11h37 1 7.557 2.568 14.318zm-16.341-42.394v-2h16v2zm16-4h-16v-4h6v-4h10zm-12-8v2h-4v-2zm-14 26v12.804c-1.376-1.483-3.058-2.694-4.979-3.533 1.86-2.248 2.979-5.131 2.979-8.271 0-1.382-.221-2.712-.622-3.962 1.474.188 2.622 1.437 2.622 2.962zm-23.498 10.816c2.282 1.977 5.249 3.184 8.498 3.184s6.216-1.207 8.498-3.184c.681.251 1.331.553 1.948.904-2.796 2.725-6.534 4.28-10.446 4.28s-7.65-1.555-10.446-4.281c.617-.35 1.267-.652 1.948-.903zm8.498-20.816c6.065 0 11 4.935 11 11s-4.935 11-11 11-11-4.935-11-11 4.935-11 11-11zm-15 10c0-1.525 1.148-2.774 2.622-2.962-.401 1.25-.622 2.58-.622 3.962 0 3.14 1.119 6.023 2.979 8.272-1.921.839-3.603 2.05-4.979 3.532zm24 32h-10v-10h9c.551 0 1 .448 1 1zm-12 0h-6v-9c0-.552.449-1 1-1h5zm20 0h-6v-9c0-1.654-1.346-3-3-3h-16c-1.654 0-3 1.346-3 3v9h-6v-9c0-4.046 1.854-7.731 4.874-10.143 3.196 3.268 7.554 5.143 12.126 5.143s8.93-1.875 12.126-5.143c3.02 2.412 4.874 6.097 4.874 10.143zm2 0v-4.672l.062.023.471-1.255c.694-1.852 2.489-3.096 4.467-3.096s3.773 1.244 4.468 3.097l.563 1.501c-.137.257-.268.519-.372.796l-1.352 3.606zm10.443 0 1.089-2.903c.695-1.853 2.49-3.097 4.468-3.097s3.773 1.244 4.468 3.097l1.089 2.903z"/><path d="m52 58h2v2h-2z"/><path d="m55 56h2v2h-2z"/><path d="m45 55h2v2h-2z"/><path d="m41 54h2v2h-2z"/></svg>