<svg id="Capa_1" enable-background="new 0 0 512 512" height="512" viewBox="0 0 512 512" width="512" xmlns="http://www.w3.org/2000/svg"><path d="m437.02 74.98c-48.353-48.351-112.64-74.98-181.02-74.98s-132.667 26.629-181.02 74.98c-48.351 48.353-74.98 112.64-74.98 181.02s26.629 132.667 74.98 181.02c48.353 48.351 112.64 74.98 181.02 74.98s132.667-26.629 181.02-74.98c48.351-48.353 74.98-112.64 74.98-181.02s-26.629-132.667-74.98-181.02zm-33.171 228.611-22.308 18.032c-7.952-13.961-13.418-29.398-15.941-45.691h29.4v-39.932h-29.572c2.394-16.115 7.763-31.522 15.598-45.402l22.822 18.447 25.145-31.108-23.258-18.799c9.104-8.526 19.468-15.795 30.869-21.478 22.362 34.012 35.396 74.68 35.396 118.34 0 43.672-13.04 84.349-35.414 118.367-11.184-5.785-21.34-12.982-30.269-21.34l22.675-18.328zm-328.573-165.749c11.254 5.655 21.489 12.862 30.494 21.295l-23.258 18.8 25.145 31.108 22.822-18.447c7.836 13.88 13.205 29.288 15.599 45.402h-29.078v39.932h28.906c-2.523 16.293-7.988 31.73-15.941 45.691l-22.309-18.032-25.145 31.108 22.675 18.328c-8.83 8.266-18.86 15.399-29.898 21.151-22.296-33.979-35.288-74.587-35.288-118.178 0-43.582 12.987-84.182 35.276-118.158zm180.724 334.158c-60.951 0-116.078-25.384-155.387-66.126 13.085-7.607 25.099-16.883 35.798-27.608l24.65 19.924 25.145-31.108-24.93-20.151c13.5-21.67 21.982-45.802 24.993-70.999h31.731v-39.932h-31.55c-2.787-25.209-11.064-49.349-24.404-70.918l24.159-19.528-25.145-31.108-23.874 19.297c-10.874-10.849-23.125-20.152-36.499-27.694 39.305-40.697 94.401-66.049 155.313-66.049 60.82 0 115.841 25.277 155.134 65.867-13.499 7.573-25.856 16.941-36.816 27.876l-23.874-19.297-25.144 31.108 24.159 19.528c-13.34 21.57-21.617 45.709-24.404 70.918h-31.055v39.932h31.236c3.011 25.197 11.493 49.33 24.993 70.999l-24.93 20.151 25.145 31.108 24.65-19.924c10.785 10.812 22.903 20.155 36.11 27.796-39.298 40.631-94.348 65.938-155.204 65.938z"/></svg>