<svg height="512pt" viewBox="-49 0 512 512.00026" width="512pt" xmlns="http://www.w3.org/2000/svg"><path d="m225.324219 136.863281-9.65625-12.753906-.089844.082031c.433594-.414062 10.585937-10.378906 3.773437-31.65625-1.378906-4.304687.722657-9.003906 4.695313-10.496094 3.96875-1.492187 8.308594.785157 9.6875 5.089844 10.410156 32.523438-7.636719 49.046875-8.410156 49.734375zm0 0" fill="#685e68"/><path d="m191.367188 136.863281c-.773438-.6875-18.816407-17.210937-8.40625-49.734375 1.378906-4.304687 5.714843-6.582031 9.6875-5.089844 3.96875 1.496094 6.074218 6.195313 4.695312 10.496094-6.8125 21.277344 3.335938 31.246094 3.773438 31.660156l-.09375-.085937zm0 0" fill="#685e68"/><path d="m262.914062 176.007812c-3.195312-2.734374-3.570312-7.539062-.835937-10.734374l26.394531-30.855469c1.042969-1.21875 2.445313-2.078125 4.003906-2.449219l29.949219-7.203125 8.902344-13.585937c2.304687-3.515626 7.023437-4.5 10.535156-2.195313 3.519531 2.304687 4.5 7.023437 2.199219 10.539063l-10.554688 16.109374c-1.0625 1.621094-2.703124 2.777344-4.589843 3.230469l-30.480469 7.328125-24.792969 28.980469c-2.730469 3.191406-7.539062 3.566406-10.730469.835937zm0 0" fill="#685e68"/><path d="m142.789062 175.207031-25.117187-29-30.90625-7.339843c-1.878906-.445313-3.515625-1.585938-4.585937-3.195313l-10.683594-16.113281c-2.324219-3.503906-1.371094-8.226563 2.132812-10.550782 3.503906-2.324218 8.226563-1.367187 10.550782 2.136719l9.027343 13.605469 30.367188 7.214844c1.554687.367187 2.949219 1.214844 3.996093 2.421875l26.726563 30.855469c2.753906 3.175781 2.410156 7.984374-.769531 10.734374-3.179688 2.75-7.984375 2.40625-10.738282-.769531zm0 0" fill="#685e68"/><path d="m264.832031 141.765625-.742187-1.109375-.871094 1.007812c-2.84375 3.289063-5.847656 6.238282-8.9375 8.777344-.042969.027344-.121094.074219-.230469.140625-10.757812 6.410157-22.796875-6.355469-15.804687-16.808593 1.632812-2.441407 3.238281-4.984376 4.777344-7.550782l.652343-1.089844-1.207031-.398437c-4.289062-1.40625-8.746094-2.121094-13.242188-2.121094h-41.757812c-4.5 0-8.957031.714844-13.246094 2.121094l-1.207031.398437.652344 1.089844c1.539062 2.566406 3.148437 5.109375 4.78125 7.550782 6.984375 10.445312-5.039063 23.222656-15.808594 16.808593-.109375-.066406-.1875-.113281-.230469-.140625-3.085937-2.535156-6.09375-5.488281-8.9375-8.777344l-.871094-1.007812-.742187 1.109375c-4.6875 7.03125-7.167969 15.199219-7.167969 23.621094 0 14.507812 7.324219 27.921875 19.597656 35.890625l.519532.339844.542968-.3125c24.574219-14.3125 61.460938-14.28125 85.988282 0l.539062.3125.523438-.339844c20.257812-13.152344 25.53125-39.863282 12.429687-59.511719zm0 0" fill="#7a6d79"/><path d="m178.449219 133.773438c.851562 1.273437 1.417969 2.585937 1.742187 3.890624 1.402344-5.253906 3.539063-10.304687 6.359375-15.03125-4.1875.089844-8.328125.789063-12.328125 2.101563l-1.207031.398437.652344 1.089844c1.539062 2.566406 3.148437 5.109375 4.78125 7.550782zm0 0" fill="#685e68"/><path d="m178.1875 152.921875c0-2.035156.113281-4.0625.320312-6.070313-3.207031 4.8125-9.738281 7.378907-15.863281 3.730469-.113281-.066406-.1875-.113281-.234375-.140625-3.085937-2.535156-6.09375-5.488281-8.9375-8.777344l-.871094-1.007812-.738281 1.109375c-4.691406 7.03125-7.171875 15.199219-7.171875 23.621094 0 14.507812 7.328125 27.921875 19.597656 35.890625l.523438.339844.539062-.3125c8.09375-4.710938 17.523438-7.859376 27.40625-9.464844-9.300781-10.6875-14.570312-24.414063-14.570312-38.917969zm0 0" fill="#685e68"/><path d="m259.628906.957031c-2.152344-2.234375-5.898437-.25-5.230468 2.777344 2.386718 10.785156 3.433593 22.933594 3.882812 30.515625.21875 3.695312-3.226562 6.523438-6.8125 5.59375l-24.003906-6.230469c-2.863282-.742187-5.058594 2.601563-3.199219 4.898438 9.460937 11.679687 21.5625 19.257812 28.898437 23.140625 4.378907 2.320312 7.019532 6.945312 6.847657 11.898437-.8125 23.445313-14.058594 46.875-22.609375 59.65625-7.578125 11.332031 5.453125 25.222657 17.167968 18.246094.203126-.121094.3125-.191406.3125-.191406 16.929688-13.890625 34.289063-42.105469 34.289063-85.074219 0-30.027344-18.4375-53.695312-29.542969-65.230469zm0 0" fill="#685e68"/><path d="m157.066406.957031c2.148438-2.234375 5.898438-.25 5.230469 2.777344-2.386719 10.785156-3.433594 22.933594-3.882813 30.515625-.21875 3.695312 3.226563 6.523438 6.808594 5.59375l24.007813-6.230469c2.859375-.742187 5.058593 2.601563 3.195312 4.898438-9.457031 11.679687-21.5625 19.257812-28.894531 23.140625-4.382812 2.320312-7.023438 6.945312-6.851562 11.898437.816406 23.445313 14.0625 46.875 22.613281 59.65625 7.578125 11.332031-5.457031 25.222657-17.167969 18.246094-.207031-.121094-.3125-.191406-.3125-.191406-16.929688-13.890625-34.292969-42.105469-34.292969-85.074219 0-30.027344 18.4375-53.695312 29.546875-65.230469zm0 0" fill="#685e68"/><path d="m258.277344 34.25c.046875.75-.066406 1.460938-.292969 2.113281l13.402344 3.480469c3.582031.929688 7.027343-1.898438 6.808593-5.59375-.160156-2.714844-.398437-6.015625-.746093-9.625-5.777344-10.164062-12.609375-18.253906-17.820313-23.667969-2.152344-2.234375-5.898437-.25-5.230468 2.777344 2.386718 10.785156 3.433593 22.933594 3.878906 30.515625zm0 0" fill="#554e56"/><path d="m257.316406 133.207031c8.550782-12.78125 21.796875-36.210937 22.613282-59.65625.171874-4.953125-2.46875-9.578125-6.851563-11.898437-7.332031-3.882813-19.433594-11.464844-28.894531-23.140625-.171875-.214844-.300782-.4375-.40625-.664063l-16.3125-4.234375c-2.863282-.742187-5.058594 2.601563-3.199219 4.898438 9.460937 11.675781 21.5625 19.257812 28.894531 23.140625 4.382813 2.320312 7.023438 6.945312 6.851563 11.898437-.816407 23.445313-14.058594 46.875-22.609375 59.65625-7.582032 11.332031 5.453125 25.222657 17.167968 18.246094.203126-.121094.3125-.191406.3125-.191406 1.054688-.867188 2.117188-1.792969 3.171876-2.769531-3.296876-4.027344-4.3125-9.9375-.738282-15.285157zm0 0" fill="#554e56"/><path d="m142.300781 66.1875c0-20.835938 8.878907-38.605469 18.023438-51.390625.527343-3.691406 1.171875-7.453125 1.972656-11.0625.667969-3.027344-3.082031-5.007813-5.230469-2.777344-11.109375 11.535157-29.546875 35.203125-29.546875 65.226563 0 42.972656 17.363281 71.1875 34.292969 85.078125 0 0 .109375.070312.3125.191406 4.976562 2.964844 10.1875 2.152344 13.960938-.621094-16.769532-14.035156-33.785157-42.101562-33.785157-84.644531zm0 0" fill="#554e56"/><g fill="#685e68"><path d="m319.988281 246.113281c-.277343 0-.5625-.015625-.84375-.046875l-48.882812-5.453125c-4.179688-.464843-7.1875-4.230469-6.722657-8.40625.464844-4.179687 4.230469-7.191406 8.40625-6.722656l44.683594 4.984375 30.773438-39.023438c.65625-.835937 1.484375-1.523437 2.425781-2.019531l31.242187-16.484375c3.71875-1.964844 8.320313-.539062 10.28125 3.179688 1.964844 3.71875.539063 8.324218-3.179687 10.285156l-29.816406 15.730469-32.390625 41.078125c-1.453125 1.839844-3.660156 2.898437-5.976563 2.898437zm0 0"/><path d="m396.886719 347.148438c-.140625 0-.28125-.003907-.425781-.011719l-42.019532-2.351563c-2.074218-.113281-4.007812-1.070312-5.359375-2.648437l-36.589843-42.761719h-38.144532c-4.203125 0-7.613281-3.40625-7.613281-7.609375s3.410156-7.613281 7.613281-7.613281h41.648438c2.226562 0 4.339844.972656 5.785156 2.664062l36.753906 42.953125 36.207032 2.023438 8.035156-5.449219c3.480468-2.363281 8.214844-1.453125 10.574218 2.023438 2.359376 3.480468 1.453126 8.210937-2.023437 10.570312l-10.167969 6.898438c-1.261718.855468-2.75 1.3125-4.273437 1.3125zm0 0"/><path d="m350.519531 511.804688-14.304687-3.3125c-1.636719-.378907-3.101563-1.285157-4.164063-2.582032l-31.507812-38.367187c-1.34375-1.636719-1.945313-3.757813-1.660157-5.859375l8.988282-65.78125-38.261719-30.414063c-3.289063-2.613281-3.835937-7.402343-1.21875-10.695312 2.613281-3.289063 7.402344-3.835938 10.695313-1.21875l41.648437 33.105469c2.101563 1.671874 3.167969 4.328124 2.804687 6.988281l-9.121093 66.785156 27.75 33.792969 11.78125 2.726562c4.097656.945313 6.648437 5.035156 5.699219 9.128906-.945313 4.09375-5.027344 6.648438-9.128907 5.703126zm0 0"/><path d="m95.761719 246.113281c-2.296875 0-4.492188-1.042969-5.945313-2.863281l-32.804687-41.085938-30.207031-15.738281c-3.726563-1.945312-5.175782-6.542969-3.234376-10.269531 1.945313-3.726562 6.539063-5.171875 10.269532-3.234375l31.632812 16.484375c.941406.492188 1.769532 1.171875 2.429688 2.003906l31.195312 39.066406 45.328125-4.992187c4.179688-.460937 7.9375 2.554687 8.398438 6.730469.460937 4.179687-2.554688 7.941406-6.730469 8.398437l-49.496094 5.453125c-.28125.03125-.558594.046875-.835937.046875zm0 0"/><path d="m17.902344 347.148438c-1.503906 0-2.980469-.445313-4.234375-1.289063l-10.292969-6.894531c-3.492188-2.339844-4.425781-7.070313-2.085938-10.5625 2.339844-3.492188 7.066407-4.425782 10.558594-2.085938l8.179688 5.480469 36.78125-2.03125 37.242187-42.984375c1.449219-1.667969 3.546875-2.625 5.753907-2.625h42.171874c4.203126 0 7.609376 3.40625 7.609376 7.609375s-3.40625 7.609375-7.609376 7.609375h-38.695312l-37.078125 42.796875c-1.351563 1.554687-3.277344 2.5-5.332031 2.613281l-42.546875 2.351563c-.140625.007812-.28125.011719-.421875.011719zm0 0"/><path d="m55.695312 506.082031c-.9375-4.097656 1.625-8.175781 5.722657-9.113281l11.972656-2.738281 28.105469-33.800781-9.230469-66.75c-.371094-2.679688.707031-5.355469 2.835937-7.027344l42.171876-33.109375c3.308593-2.59375 8.089843-2.019531 10.6875 1.289062 2.597656 3.304688 2.019531 8.089844-1.285157 10.683594l-38.734375 30.410156 9.09375 65.746094c.292969 2.117187-.320312 4.261719-1.6875 5.90625l-31.898437 38.367187c-1.066407 1.28125-2.527344 2.179688-4.15625 2.550782l-14.484375 3.3125c-4.089844.933594-8.175782-1.621094-9.113282-5.726563zm0 0"/><path d="m165.472656 267.90625h85.746094c14.050781-8.167969 22.960938-20.273438 22.960938-33.792969 0-24.601562-29.472657-44.546875-65.832032-44.546875s-65.832031 19.945313-65.832031 44.546875c0 13.519531 8.910156 25.621094 22.957031 33.792969zm0 0"/></g><path d="m172.917969 234.113281c0-21.0625 21.605469-38.695312 50.628906-43.34375-4.878906-.777343-9.964844-1.207031-15.199219-1.207031-36.359375 0-65.835937 19.945312-65.835937 44.550781 0 13.519531 8.910156 25.621094 22.960937 33.792969h30.40625c-14.050781-8.171875-22.960937-20.273438-22.960937-33.792969zm0 0" fill="#554e56"/><path d="m208.347656 453.027344 3.042969-186.992188h-59.097656c-7.164063 0-12.972657 5.550782-12.972657 12.402344v99.378906c0 34.515625 21.324219 55.390625 40.265626 67.125 8.628906 5.34375 18.613281 8.085938 28.761718 8.085938zm0 0" fill="#d8694b"/><path d="m169.722656 377.816406v-99.378906c0-6.851562 5.808594-12.402344 12.972656-12.402344h-30.402343c-7.164063 0-12.972657 5.550782-12.972657 12.402344v99.378906c0 34.515625 21.320313 55.390625 40.265626 67.125 8.628906 5.34375 18.613281 8.085938 28.761718 8.085938l.148438-9.03125c-18.554688-11.898438-38.773438-32.570313-38.773438-66.179688zm0 0" fill="#c5573a"/><path d="m264.398438 266.035156h-56.050782v186.992188c10.148438 0 20.132813-2.742188 28.761719-8.085938 18.941406-11.734375 40.265625-32.609375 40.265625-67.125v-99.378906c0-6.851562-5.808594-12.402344-12.976562-12.402344zm0 0" fill="#d8694b"/><path d="m238.75 266.035156h-30.402344v186.992188c10.148438 0 20.132813-2.742188 28.757813-8.085938.546875-.339844 1.097656-.6875 1.644531-1.039062zm0 0" fill="#c5573a"/></svg>