<svg height="512pt" viewBox="0 0 512 512" width="512pt" xmlns="http://www.w3.org/2000/svg"><path d="m472 367h40c0-68.378906-26.628906-132.667969-74.980469-181.019531-34.066406-34.066407-76.050781-57.332031-121.796875-68.117188 5.328125-.492187 10.6875-.789062 16.070313-.867187 55.640625-.847656 109.480469 20.679687 151.585937 60.527344l27.492188-29.050782c-24.746094-23.421875-53.101563-41.542968-84.277344-53.855468-30.8125-12.167969-62.898438-18.078126-95.386719-17.617188-32.371093.476562-64.175781 7.304688-94.53125 20.296875-10.710937 4.582031-21.058593 9.875-31.023437 15.824219 39.609375-44.808594 97.480468-73.121094 161.847656-73.121094v-40c-68.378906 0-132.667969 26.628906-181.019531 74.980469-33.289063 33.289062-56.28125 74.136719-67.375 118.667969-.347657-4.660157-.5625-9.347657-.605469-14.058594-.535156-56 20.664062-109.5 59.695312-150.648438l-29.019531-27.527344c-46.210937 48.714844-71.3125 112.128907-70.675781 178.5625.433594 45.308594 12.804688 88.921876 35.5625 127.257813-45.066406-39.617187-73.5625-97.65625-73.5625-162.234375h-40c0 68.378906 26.628906 132.667969 74.980469 181.019531 33.292969 33.292969 74.136719 56.28125 118.671875 67.375-5.199219.390625-10.433594.59375-15.691406.605469-.152344 0-.296876 0-.445313 0-54.847656 0-107.332031-20.9375-147.820313-58.984375l-27.390624 29.148437c47.9375 45.046876 110.140624 69.835938 175.207031 69.835938h.527343c46.019532-.09375 90.300782-12.464844 129.175782-35.539062-39.617188 45.054687-97.648438 73.539062-162.214844 73.539062v40c68.378906 0 132.667969-26.628906 181.019531-74.980469 33.292969-33.292969 56.28125-74.136719 67.375-118.671875.34375 4.597656.558594 9.21875.605469 13.863282.589844 56.15625-20.664062 109.785156-59.851562 151.011718l28.992187 27.558594c46.390625-48.808594 71.554687-112.375 70.859375-178.992188-.476562-45.222656-12.847656-88.753906-35.566406-127.023437 45.070312 39.613281 73.566406 97.65625 73.566406 162.234375zm-216-6c-57.898438 0-105-47.101562-105-105s47.101562-105 105-105 105 47.101562 105 105-47.101562 105-105 105zm0 0"/></svg>