<svg id="Capa_1" enable-background="new 0 0 512.002 512.002" height="512" viewBox="0 0 512.002 512.002" width="512" xmlns="http://www.w3.org/2000/svg"><path d="m417.022 117.815c6.961-5.499 11.441-14.005 11.441-23.544 0-16.542-13.458-30-30-30-2.942 0-5.784.433-8.473 1.226-2.988-13.414-14.976-23.476-29.277-23.476-4.032 0-7.879.805-11.394 2.254-2.539-16.819-17.09-29.754-34.606-29.754-8.607 0-16.492 3.128-22.594 8.3-6.44-13.482-20.208-22.821-36.118-22.821s-29.677 9.339-36.117 22.821c-6.102-5.172-13.988-8.3-22.594-8.3-17.516 0-32.067 12.935-34.606 29.754-3.515-1.449-7.362-2.254-11.394-2.254-14.302 0-26.29 10.062-29.277 23.476-2.689-.793-5.531-1.226-8.473-1.226-16.542 0-30 13.458-30 30 0 10.737 5.673 20.169 14.175 25.471.05 2.335.905 4.663 2.604 6.524 1.973 2.16 4.675 3.256 7.387 3.256 2.407 0 4.823-.865 6.741-2.616 1.096-1.001 2.192-1.976 3.283-2.933 12.407-1.742 22.398-11.097 25.088-23.178 2.689.793 5.531 1.226 8.473 1.226 13.763 0 25.383-9.32 28.902-21.977 5.06 2.846 10.891 4.477 17.098 4.477 12.646 0 23.745-6.742 29.897-16.819 7.281 7.572 17.503 12.298 28.813 12.298s21.532-4.726 28.814-12.298c6.151 10.077 17.251 16.819 29.897 16.819 6.207 0 12.038-1.631 17.098-4.477 3.518 12.658 15.139 21.977 28.902 21.977 2.942 0 5.784-.433 8.472-1.226 2.689 12.073 12.668 21.424 25.064 23.175 45.632 39.948 71.752 97.353 71.752 158.032 0 115.794-94.206 210-210 210s-210-94.206-210-210c0-29.91 6.161-58.801 18.312-85.87 2.262-5.039.011-10.957-5.028-13.218-5.042-2.263-10.957-.011-13.218 5.028-13.314 29.662-20.065 61.309-20.065 94.061 0 61.436 23.924 119.194 67.365 162.635s101.199 67.366 162.635 67.366 119.193-23.924 162.635-67.366c43.441-43.441 67.365-101.199 67.365-162.635 0-62.081-24.961-121.03-68.979-164.188zm-18.559-33.544c5.514 0 10 4.486 10 10 0 5.505-4.471 9.984-9.972 9.999-.011 0-.022.001-.033.001-5.511-.003-9.995-4.488-9.995-10-.001-5.514 4.485-10 10-10zm-284.923 0c5.514 0 10 4.486 10 10s-4.486 10-9.999 10c-.003 0-.005 0-.008 0-5.511-.004-9.993-4.488-9.993-10 0-5.514 4.486-10 10-10zm37.75-2.25c-5.514 0-10-4.486-10-10s4.486-10 10-10 10 4.486 10 10-4.486 10-10 10zm46-17.5c-8.271 0-15-6.729-15-15s6.729-15 15-15 15 6.729 15 15-6.728 15-15 15zm58.711-4.521c-11.028 0-20-8.972-20-20s8.972-20 20-20 20 8.972 20 20c.001 11.028-8.971 20-20 20zm58.711 4.521c-8.271 0-15-6.729-15-15s6.729-15 15-15 15 6.729 15 15-6.728 15-15 15zm46.001 17.5c-5.514 0-10-4.486-10-10s4.486-10 10-10 10 4.486 10 10-4.486 10-10 10z"/><path d="m256.001 472.002c33.997 0 67.371-9.101 96.512-26.32 4.755-2.81 6.332-8.941 3.522-13.696s-8.943-6.332-13.696-3.522c-26.063 15.399-55.918 23.539-86.338 23.539-93.738 0-170-76.262-170-170s76.262-170 170-170 170 76.262 170 170c0 30.428-8.141 60.286-23.542 86.345-2.81 4.754-1.234 10.887 3.521 13.697 4.753 2.81 10.887 1.234 13.697-3.521 17.222-29.138 26.325-62.515 26.325-96.521 0-104.767-85.233-190-190-190s-190 85.233-190 190 85.233 189.999 189.999 189.999z"/><path d="m77.729 163.08c5.523 0 10-4.477 10-10s-4.477-10-10-10h-.007c-5.523 0-9.996 4.477-9.996 10s4.48 10 10.003 10z"/><path d="m376.549 401.887c-4.086 3.715-4.388 10.04-.673 14.126 1.974 2.171 4.683 3.273 7.402 3.273 2.4 0 4.808-.859 6.724-2.601l.005-.005c4.086-3.715 4.385-10.037.67-14.124-3.714-4.085-10.042-4.384-14.128-.669z"/></svg>