<svg height="512" viewBox="0 0 64 64" width="512" xmlns="http://www.w3.org/2000/svg"><path d="m61 20h-2v-7a1 1 0 0 0 -1-1h-52a1 1 0 0 0 -1 1v7h-2a1 1 0 0 0 -1 1v30a1 1 0 0 0 1 1h58a1 1 0 0 0 1-1v-30a1 1 0 0 0 -1-1zm-32-6h6v2h-6zm-22 0h20v3a1 1 0 0 0 1 1h8a1 1 0 0 0 1-1v-3h20v6h-33v-3a1 1 0 0 0 -1-1h-12a1 1 0 0 0 -1 1v3h-3zm15 4v2h-10v-2zm-18 32v-2h9v-2h-9v-24h13v15a15 15 0 0 0 7.549 13zm15-13v-15h26v15a13 13 0 0 1 -26 0zm41 4h-8v-14h8zm0-16h-10v18h10v3h-9v2h9v2h-20.549a15 15 0 0 0 7.549-13v-15h13z"/><path d="m32 26a11 11 0 1 0 11 11 11.013 11.013 0 0 0 -11-11zm0 20a9 9 0 1 1 9-9 9.011 9.011 0 0 1 -9 9z"/><path d="m32 30a7 7 0 1 0 7 7 7.008 7.008 0 0 0 -7-7zm0 12a5 5 0 1 1 5-5 5.006 5.006 0 0 1 -5 5z"/><path d="m32 38v2a3 3 0 0 0 3-3h-2a1 1 0 0 1 -1 1z"/><path d="m23 26h2v-2h-3a1 1 0 0 0 -1 1v3h2z"/><path d="m41 28h2v-3a1 1 0 0 0 -1-1h-3v2h2z"/><path d="m11 24a4 4 0 1 0 4 4 4 4 0 0 0 -4-4zm0 6a2 2 0 1 1 2-2 2 2 0 0 1 -2 2z"/><path d="m15 46h2v2h-2z"/><path d="m9 34a3 3 0 1 0 3 3 3 3 0 0 0 -3-3zm0 4a1 1 0 1 1 1-1 1 1 0 0 1 -1 1z"/><path d="m39 16h16v2h-16z"/></svg>