<svg height="512pt" viewBox="0 0 512 512" width="512pt" xmlns="http://www.w3.org/2000/svg"><path d="m492 472h-45v-36c0-11.046875-8.953125-20-20-20s-20 8.953125-20 20v36h-302v-146.933594c0-6.234375 2.804688-12.007812 7.691406-15.839844 4.804688-3.761718 10.9375-5.089843 16.835938-3.640624 40.003906 9.839843 82.558594 14.828124 126.472656 14.828124s86.46875-4.988281 126.472656-14.828124c5.894532-1.449219 12.03125-.121094 16.835938 3.640624 4.886718 3.832032 7.691406 9.605469 7.691406 15.839844v10.933594c0 11.046875 8.953125 20 20 20s20-8.953125 20-20v-10.933594c0-18.605468-8.390625-35.855468-23.015625-47.320312-14.542969-11.398438-33.15625-15.40625-51.066406-11.003906-30.804688 7.578124-63.324219 12.023437-96.917969 13.289062v-41.464844c37.898438-9.308594 67-44.261718 67-84.566406 0-26.046875-12.191406-43.460938-23.980469-60.300781-13.507812-19.300781-26.269531-37.527344-26.269531-73.699219 0-7.597656-4.304688-14.539062-11.113281-17.917969-6.808594-3.375-14.9375-2.601562-20.988281 1.996094-3.742188 2.84375-91.648438 70.5625-91.648438 149.921875 0 41.089844 28.636719 75.617188 67 84.675781v41.355469c-33.59375-1.265625-66.113281-5.710938-96.917969-13.289062-17.910156-4.40625-36.523437-.394532-51.066406 11.003906-14.625 11.464844-23.015625 28.714844-23.015625 47.320312v146.933594h-45c-11.046875 0-20 8.953125-20 20s8.953125 20 20 20h472c11.046875 0 20-8.953125 20-20s-8.953125-20-20-20zm-283-318c0-35.640625 26.980469-70.769531 48.761719-93.320312 6.542969 24.605468 18.355469 41.484374 28.488281 55.957031 10.699219 15.28125 16.75 24.550781 16.75 37.363281 0 22.304688-17.433594 42.15625-38.941406 46.226562 7.039062-3.238281 11.957031-10.488281 11.957031-18.289062 0-10.242188-8.585937-15.035156-12.773437-26.527344-2.109376-5.789062-9.59375-7.316406-13.664063-2.691406-6.070313 6.902344-12.488281 16.425781-13.464844 26.589844-.863281 9.011718 3.949219 17.484375 11.898438 21-22.121094-3.804688-39.011719-23.117188-39.011719-46.308594zm0 0"/></svg>