<svg id="Capa_1" enable-background="new 0 0 512 512" height="512" viewBox="0 0 512 512" width="512" xmlns="http://www.w3.org/2000/svg"><path d="m502 392h-19.282c-.103-5.434-4.532-9.809-9.99-9.809s-9.887 4.375-9.99 9.809h-41.732v-30.001c0-5.523-4.477-10-10-10h-1.939v-30.991c4.238-2.207 8.026-5.22 11.251-8.816h62.411c5.523 0 10-4.477 10-10s-4.477-10-10-10v-56.184c0-5.523-4.477-10-10-10v-23.375c13.611-7.63 21.688-24.756 18.609-41.739-2.982-16.448-14.101-29.069-25.33-40.714-7.204-7.471-14.008-14.527-14.008-20.176v-10c0-5.523-4.477-10-10-10s-10 4.477-10 10v10c0 5.648-6.804 12.705-14.008 20.176-9.848 10.213-22.104 22.924-25.33 40.714-2.891 15.949 4.216 33.67 18.609 41.739v23.375c-2.471 0-4.728.9-6.473 2.385-1.078-1.129-2.152-2.243-3.213-3.344-8.88-9.21-17.269-17.909-17.269-25.437v-11.939c0-5.523-4.477-10-10-10s-10 4.477-10 10v11.939c0 2.289-.784 4.688-2.114 7.176-1.779-2.763-4.876-4.598-8.407-4.598h-10v-23.375c13.611-7.63 21.688-24.756 18.609-41.74-2.982-16.449-14.101-29.068-25.33-40.714-7.204-7.471-14.008-14.528-14.008-20.176v-10c0-5.523-4.477-10-10-10s-10 4.477-10 10v10c0 5.648-6.804 12.705-14.008 20.176-9.848 10.213-22.104 22.924-25.33 40.714-2.892 15.957 4.21 33.667 18.61 41.739v23.375h-21.473l-3.346-7.458c3.056-1.711 5.125-4.976 5.125-8.727 0-5.523-4.477-10-10-10h-3.527l-19.784-44.095c-1.613-3.594-5.185-5.907-9.124-5.907v-23.755c9.757-6.281 13.484-17.835 11.046-34.495-2.763-18.89-14.03-28.239-22.257-35.065-7.05-5.851-9.518-8.29-9.518-12.688v-9.999c0-5.523-4.477-10-10-10s-10 4.477-10 10v10c0 4.398-2.467 6.837-9.518 12.688-8.227 6.827-19.493 16.176-22.256 35.065-2.438 16.661 1.289 28.215 11.046 34.495v23.755c-3.939 0-7.511 2.313-9.124 5.907l-19.784 44.095h-3.527c-3.709 0-6.938 2.023-8.665 5.022-6.057-8.183-13.049-15.439-19.639-22.273-11.328-11.749-21.111-21.895-21.111-31.636v-14.225c0-5.523-4.477-10-10-10s-10 4.477-10 10v14.225c0 17.038 11.873 30.092 24.928 43.664-2.542 11.334-10.656 14.961-25.733 20.74-10.802 4.141-23.163 8.883-33.616 18.811.82-4.816-1.985-9.631-6.771-11.179-5.255-1.701-10.893 1.182-12.593 6.436-.952 2.942-1.708 5.939-2.246 8.906-2.023 11.16-.402 22.357 3.93 32.024.184.493.406.97.664 1.428 4.773 9.869 12.427 17.992 21.947 22.622v40.03h-4.222c-5.523 0-10 4.477-10 10v71.4h-3.19c-5.523 0-10 4.477-10 10v100c0 5.523 4.477 10 10 10h492c5.523 0 10-4.477 10-10v-100c0-5.523-4.477-10-10-10zm-154.372 0v-20.001h53.377v20.001zm-65.29 0v-40c5.523 0 10-4.477 10-10s-4.477-10-10-10v-29.809h39.214c3.93 7.892 10.153 14.722 18.016 18.816v30.991h-1.94c-5.523 0-10 4.477-10 10v30.002zm-105.586 0v-20h41.457v20zm-56.134 0v-40h46.134c-5.523 0-10 4.477-10 10v30zm136.273-149.81h-39.209c-5.622-5.98-10.202-11.561-10.202-16.194v-10c0-5.523-4.477-10-10-10s-10 4.477-10 10v10c0 4.633-4.58 10.215-10.202 16.194h-46.554c2.731-7.829 3.749-16.44 2.61-25.104l9.458-21.081h93.377zm5.447 89.81h-34.129v-3.376c13.611-7.63 21.688-24.756 18.609-41.739-1.735-9.572-6.093-17.663-11.276-24.696h26.796zm-75.586 20v-20h21.457v20zm-8.465-40c-6.562-2.488-12.284-11.514-10.465-21.547 2.145-11.833 11.246-21.271 20.047-30.399 3.303-3.425 6.645-6.891 9.611-10.519 2.966 3.628 6.308 7.094 9.611 10.519 8.801 9.128 17.902 18.566 20.047 30.398 1.819 10.034-3.902 19.06-10.464 21.548zm-71.87-66.491c-.166.184-.325.373-.477.569-3.014 3.533-6.757 6.225-10.993 7.617h-29.07c6.895-5.486 15.209-8.571 23.816-11.758 7.736-2.865 16.381-6.074 23.541-11.601-1.026 5.695-3.421 10.984-6.817 15.173zm-.025 25.059c4.359-2.12 8.334-4.96 11.814-8.378h41.213c-5.182 7.033-9.54 15.124-11.276 24.696-3.078 16.983 4.999 34.109 18.61 41.739v3.375h-46.134v-11.402c0-5.523-4.477-10-10-10h-4.226v-40.03zm121.817 81.432h34.129v40h-24.129v-30c0-5.522-4.477-10-10-10zm183.427-75.774c1.311 7.23-.451 14.587-4.17 20.077-.156.213-.303.433-.442.659-2.46 3.388-5.694 5.989-9.433 7.278h-46.549c-2.592-.894-4.934-2.428-6.952-4.406 8.273-15.819 21.594-20.932 35.624-26.314 8.957-3.436 18.108-6.965 25.398-13.316 3.116 4.959 5.476 10.239 6.524 16.022zm-52.068 75.773v-27.759h29.498v27.759zm71.155-59.808c1.508-6.238 1.796-12.893.593-19.532-1.678-9.258-5.379-17.239-10.045-24.368v-2.284h41.457v46.184zm-7.917-106.184c-1.622-.615-3.192-1.632-4.61-2.962 8.294-12.261 20.276-16.866 32.877-21.702 5.649-2.168 11.416-4.384 16.75-7.349 1.811 3.297 3.163 6.764 3.834 10.466 1.819 10.034-3.902 19.06-10.464 21.548h-38.387zm9.583-51.946c3.303-3.425 6.645-6.891 9.61-10.519 2.966 3.627 6.308 7.093 9.611 10.519 1.242 1.288 2.489 2.584 3.722 3.891-3.408 1.637-7.267 3.124-11.424 4.719-9.361 3.593-20.095 7.718-29.713 15.477 3.64-8.99 11.015-16.643 18.194-24.087zm-1.118 71.946h21.457v20h-21.457zm-56.954 18.587c3.844 4.975 8.388 9.688 12.872 14.337 1.796 1.863 3.6 3.738 5.375 5.636-4.343 4.095-10.938 6.798-20.013 10.28-11.346 4.352-24.538 9.423-35.387 20.622 2.904-14.34 13.76-25.625 24.282-36.537 4.483-4.651 9.027-9.363 12.871-14.338zm-80.443-62.404c-1.874-.71-3.672-1.968-5.252-3.616 8.045-9.393 18.7-13.499 29.897-17.793 7.128-2.734 14.407-5.533 20.784-9.807 1.597 3.059 2.805 6.262 3.423 9.668 1.819 10.035-3.902 19.061-10.464 21.548zm9.583-51.946c3.303-3.425 6.645-6.891 9.611-10.519 2.966 3.628 6.308 7.094 9.611 10.519 1.512 1.568 3.031 3.146 4.523 4.743-4.339 2.702-9.827 4.812-15.844 7.12-8.221 3.153-17.615 6.76-26.367 12.958 3.528-9.306 11.094-17.175 18.466-24.821zm-1.118 71.946h21.457v20h-21.457zm41.457 40v6.243c-11.284 11.822-23.063 25.385-26.479 44.226-.578 3.19-.802 6.382-.724 9.532h-34.255v-20.001h.001c5.523 0 10-4.477 10-10s-4.477-10-10-10h-3.527l-8.973-20zm-176.299-151.542c1.652-11.295 7.949-16.52 15.239-22.57 2.185-1.813 4.527-3.756 6.746-5.954 2.219 2.198 4.561 4.141 6.746 5.954 7.291 6.05 13.587 11.274 15.24 22.57 1.695 11.586-.573 14.239-3.04 15.355h-37.892c-2.467-1.115-4.734-3.768-3.039-15.355zm11.256 35.356h21.457v20h-21.457zm-13.526 40h48.51l13.46 30.001h-75.43zm-101.969 64.193c12.439-4.768 26.077-10.007 33.618-23.188 4.232 5.018 8.055 10.258 11.014 15.88-2.042 11.237-9.942 14.665-25.142 20.292-14.3 5.295-31.787 11.779-43.126 30.514h-.762c-5.673-1.865-10.465-6.054-13.799-11.484 7.904-20.394 22.642-26.052 38.197-32.014zm-15.842 63.498h38.976v36.903h-38.976zm-14.226 56.904h67.428v61.401h-67.428zm87.81 161.401h-30v-24.999c0-8.271 6.729-15 15-15s15 6.729 15 15zm100 0h-30v-24.999c0-8.271 6.729-15 15-15s15 6.729 15 15zm100 0h-30v-24.999c0-8.271 6.729-15 15-15s15 6.729 15 15zm100 0h-30v-24.999c0-8.271 6.729-15 15-15s15 6.729 15 15zm71 0h-51v-24.999c0-19.299-15.701-35-35-35s-35 15.701-35 35v24.999h-30v-24.999c0-19.299-15.701-35-35-35s-35 15.701-35 35v24.999h-30v-24.999c0-19.299-15.701-35-35-35s-35 15.701-35 35v24.999h-30v-24.999c0-19.299-15.701-35-35-35s-35 15.701-35 35v24.999h-51v-80h452.718.01s.006 0 .01 0h19.262z"/><path d="m37.991 180.909c2.719 0 5.429-1.103 7.402-3.273l.005-.005c3.715-4.086 3.411-10.408-.675-14.123s-10.413-3.412-14.128.675c-3.715 4.086-3.414 10.411.673 14.126 1.916 1.741 4.323 2.6 6.723 2.6z"/><path d="m462.728 347.195c0 5.523 4.477 10 10 10s10-4.477 10-10v-.007c0-5.523-4.477-9.996-10-9.996s-10 4.48-10 10.003z"/></svg>