<svg height="512pt" viewBox="0 0 512 512" width="512pt" xmlns="http://www.w3.org/2000/svg"><path d="m225 452h-180c-24.8125 0-45 20.1875-45 45 0 8.289062 6.710938 15 15 15h240c8.289062 0 15-6.710938 15-15 0-24.8125-20.1875-45-45-45zm0 0"/><path d="m467 452h-120c-24.8125 0-45 20.1875-45 45 0 8.289062 6.710938 15 15 15h180c8.289062 0 15-6.710938 15-15 0-24.8125-20.1875-45-45-45zm0 0"/><path d="m49.5 165.898438c3.300781-.597657 6.898438-.898438 10.5-.898438h150c3.601562 0 7.199219.300781 10.5.898438l5.699219-16.800782c4.5-13.796875 2.101562-28.5-6.300781-40.496094-8.699219-11.703124-21.898438-18.601562-36.597657-18.601562h-33.300781v-30h15c8.289062 0 15-6.710938 15-15s-6.710938-15-15-15h-15v-15c0-8.289062-6.710938-15-15-15s-15 6.710938-15 15v15h-15c-8.289062 0-15 6.710938-15 15s6.710938 15 15 15h15v30h-33.300781c-14.699219 0-27.898438 6.898438-36.601563 18.601562-8.398437 11.996094-10.796875 26.699219-6.296875 40.496094zm0 0"/><path d="m180.902344 285h-91.804688c-3.597656 42.898438-17.996094 85.699219-41.996094 121.699219l-10.503906 15.601562c2.703125 0 5.703125-.300781 8.402344-.300781h180c2.699219 0 5.699219.300781 8.402344.300781l-10.503906-15.601562c-24-36-38.398438-78.800781-41.996094-121.699219zm0 0"/><path d="m360.5 345c-3 25.800781-10.5 53-22.199219 76.097656l-.902343 1.5c3.300781-.296875 6.300781-.597656 9.601562-.597656h120c3.300781 0 6.300781.300781 9.597656.597656l-.898437-1.5c-11.699219-23.097656-19.199219-50.296875-22.199219-76.097656zm0 0"/><path d="m497 150h-45v52.5c0 8.398438-6.597656 15-15 15s-15-6.601562-15-15v-52.5h-30v52.5c0 8.398438-6.597656 15-15 15s-15-6.601562-15-15v-52.5h-45c-8.402344 0-15 6.597656-15 15v30c0 18.300781 6.597656 35.097656 17.402344 48 10.796875-11.101562 26.097656-18 42.597656-18h90c16.5 0 31.800781 6.898438 42.597656 18 10.804688-12.902344 17.402344-29.699219 17.402344-48v-30c0-8.402344-6.597656-15-15-15zm0 0"/><path d="m60 255h150c16.570312 0 30-13.433594 30-30 0-16.570312-13.429688-30-30-30h-150c-16.570312 0-30 13.429688-30 30 0 16.566406 13.429688 30 30 30zm0 0"/><path d="m452 255h-90c-16.570312 0-30 13.429688-30 30 0 16.566406 13.429688 30 30 30h90c16.570312 0 30-13.433594 30-30 0-16.570312-13.429688-30-30-30zm0 0"/></svg>