<svg height="512pt" viewBox="0 -7 512.001 512" width="512pt" xmlns="http://www.w3.org/2000/svg"><path d="m0 426.609375v50.144531c0 11.378906 9.226562 20.601563 20.605469 20.601563h470.792969c11.378906 0 20.601562-9.222657 20.601562-20.601563v-50.144531zm0 0" fill="#7da2b0"/><path d="m512 426.605469v50.148437c0 11.382813-9.21875 20.601563-20.605469 20.601563h-30.5625c11.382813 0 20.601563-9.21875 20.601563-20.601563v-50.148437zm0 0" fill="#688d97"/><path d="m512 267.925781v176.890625c0 11.378906-9.226562 20.605469-20.605469 20.605469h-470.789062c-11.378907 0-20.605469-9.226563-20.605469-20.605469v-176.890625c0-11.378906 9.226562-20.601562 20.605469-20.601562h42.265625l193.132812 20 195.046875-20h40.347657c11.375 0 20.601562 9.222656 20.601562 20.601562zm0 0" fill="#557983"/><path d="m476.460938 267.929688v176.882812c0 11.386719-9.222657 20.605469-20.605469 20.605469h-399.710938c-11.382812 0-20.605469-9.21875-20.605469-20.605469v-176.882812c0-11.382813 9.222657-20.601563 20.605469-20.601563h399.710938c11.382812 0 20.605469 9.21875 20.605469 20.601563zm0 0" fill="#a0f8d4"/><path d="m476.460938 267.933594v176.882812c0 11.382813-9.222657 20.605469-20.605469 20.605469h-30.214844c11.382813 0 20.601563-9.222656 20.601563-20.605469v-176.882812c0-11.382813-9.21875-20.601563-20.601563-20.601563h30.214844c11.382812 0 20.605469 9.21875 20.605469 20.601563zm0 0" fill="#00f2a9"/><path d="m512 267.921875v176.894531c0 11.382813-9.21875 20.601563-20.605469 20.601563h-35.539062c11.382812 0 20.605469-9.21875 20.605469-20.601563v-176.894531c0-11.371094-9.222657-20.601563-20.605469-20.601563h35.539062c11.386719 0 20.605469 9.230469 20.605469 20.601563zm0 0" fill="#3f5959"/><path d="m218.214844 319.066406c-4.269532 0-7.726563-3.457031-7.726563-7.726562v-86.832032c0-4.265624 3.457031-7.722656 7.726563-7.722656 4.265625 0 7.722656 3.457032 7.722656 7.722656v86.832032c0 4.269531-3.457031 7.726562-7.722656 7.726562zm0 0" fill="#1475cc"/><path d="m380.980469 352.476562c-4.265625 0-7.726563-3.460937-7.726563-7.726562v-43.972656c0-4.265625 3.460938-7.726563 7.726563-7.726563s7.726562 3.460938 7.726562 7.726563v43.972656c0 4.265625-3.457031 7.726562-7.726562 7.726562zm0 0" fill="#1475cc"/><path d="m272.296875 338.640625-27.371094-27.375c-1.933593-1.929687-4.554687-3.015625-7.285156-3.015625h-62.675781v105.28125h226.621094v-61.570312c0-5.691407-4.613282-10.304688-10.304688-10.304688h-111.699219c-2.730469.003906-5.351562-1.082031-7.285156-3.015625zm0 0" fill="#0057a1"/><path d="m296.910156 156.214844h53.300782v257.316406h-53.300782zm0 0" fill="#d6f1f2"/><path d="m411.640625 143.757812-176.160156.402344v37.667969c.035156 15.425781 39.5 27.839844 88.144531 27.726563 48.386719-.109376 87.617188-12.574219 87.996094-27.886719zm0 0" fill="#00d2f9"/><path d="m411.691406 143.757812c-.035156-15.425781-39.5-27.839843-88.144531-27.730468-48.648437.113281-88.050781 12.710937-88.015625 28.136718.035156 15.425782 39.496094 27.839844 88.144531 27.726563 48.644531-.113281 88.050781-12.707031 88.015625-28.132813zm0 0" fill="#1475cc"/><path d="m344.851562 137.664062s-4.730468 5.015626-21.289062 5.015626-21.292969-4.972657-21.292969-4.972657l17.347657-134.445312c.238281-1.855469 1.8125-3.2500002 3.683593-3.261719 1.882813-.0117188 3.480469 1.378906 3.730469 3.246094zm0 0" fill="#d6f1f2"/><path d="m191.699219 413.53125h-91.390625v-294.191406c0-5.691406 4.613281-10.304688 10.304687-10.304688h70.78125c5.691407 0 10.304688 4.613282 10.304688 10.304688zm0 0" fill="#5592d7"/><path d="m191.703125 119.339844v294.191406h-23.179687v-294.191406c0-5.695313-4.613282-10.300782-10.300782-10.300782h23.179688c5.6875 0 10.300781 4.605469 10.300781 10.300782zm0 0" fill="#1475cc"/><g fill="#a0f8d4"><path d="m131.324219 164.886719c-4.265625 0-7.726563-3.460938-7.726563-7.726563v-10.5625c0-4.265625 3.460938-7.726562 7.726563-7.726562s7.726562 3.460937 7.726562 7.726562v10.5625c0 4.265625-3.457031 7.726563-7.726562 7.726563zm0 0"/><path d="m160.683594 164.886719c-4.265625 0-7.722656-3.460938-7.722656-7.726563v-10.5625c0-4.265625 3.457031-7.726562 7.722656-7.726562 4.269531 0 7.726562 3.460937 7.726562 7.726562v10.5625c0 4.265625-3.457031 7.726563-7.726562 7.726563zm0 0"/><path d="m131.324219 215.25c-4.265625 0-7.726563-3.460938-7.726563-7.726562v-10.5625c0-4.265626 3.460938-7.726563 7.726563-7.726563s7.726562 3.460937 7.726562 7.726563v10.5625c0 4.265624-3.457031 7.726562-7.726562 7.726562zm0 0"/><path d="m160.683594 215.25c-4.265625 0-7.722656-3.460938-7.722656-7.726562v-10.5625c0-4.265626 3.457031-7.726563 7.722656-7.726563 4.269531 0 7.726562 3.460937 7.726562 7.726563v10.5625c0 4.265624-3.457031 7.726562-7.726562 7.726562zm0 0"/><path d="m131.324219 265.613281c-4.265625 0-7.726563-3.457031-7.726563-7.726562v-10.5625c0-4.265625 3.460938-7.726563 7.726563-7.726563s7.726562 3.460938 7.726562 7.726563v10.5625c0 4.265625-3.457031 7.726562-7.726562 7.726562zm0 0"/><path d="m160.683594 265.613281c-4.265625 0-7.722656-3.457031-7.722656-7.726562v-10.5625c0-4.265625 3.457031-7.726563 7.722656-7.726563 4.269531 0 7.726562 3.460938 7.726562 7.726563v10.5625c0 4.265625-3.457031 7.726562-7.726562 7.726562zm0 0"/><path d="m131.324219 315.976562c-4.265625 0-7.726563-3.460937-7.726563-7.726562v-10.5625c0-4.265625 3.460938-7.726562 7.726563-7.726562s7.726562 3.460937 7.726562 7.726562v10.5625c0 4.265625-3.457031 7.726562-7.726562 7.726562zm0 0"/><path d="m160.683594 315.976562c-4.265625 0-7.722656-3.460937-7.722656-7.726562v-10.5625c0-4.265625 3.457031-7.726562 7.722656-7.726562 4.269531 0 7.726562 3.460937 7.726562 7.726562v10.5625c0 4.265625-3.457031 7.726562-7.726562 7.726562zm0 0"/><path d="m131.324219 366.339844c-4.265625 0-7.726563-3.460938-7.726563-7.726563v-10.5625c0-4.265625 3.460938-7.726562 7.726563-7.726562s7.726562 3.460937 7.726562 7.726562v10.5625c0 4.265625-3.457031 7.726563-7.726562 7.726563zm0 0"/><path d="m160.683594 366.339844c-4.265625 0-7.722656-3.460938-7.722656-7.726563v-10.5625c0-4.265625 3.457031-7.726562 7.722656-7.726562 4.269531 0 7.726562 3.460937 7.726562 7.726562v10.5625c0 4.265625-3.457031 7.726563-7.726562 7.726563zm0 0"/></g><path d="m432.160156 421.257812h-352.320312c-4.269532 0-7.726563-3.460937-7.726563-7.726562 0-4.269531 3.457031-7.726562 7.726563-7.726562h352.320312c4.269532 0 7.726563 3.457031 7.726563 7.726562 0 4.265625-3.457031 7.726562-7.726563 7.726562zm0 0" fill="#1475cc"/></svg>