<svg height="479pt" viewBox="0 -32 479.99309 479" width="479pt" xmlns="http://www.w3.org/2000/svg"><path d="m479.992188 240.492188c-.050782-15.703126-3.960938-31.152344-11.382813-44.992188 8.421875-33.441406.929687-68.898438-20.304687-96.074219-21.230469-27.175781-53.824219-43.019531-88.3125-42.933593-7.328126.070312-14.636719.851562-21.816407 2.328124-19.371093-35.53125-56.425781-57.832031-96.894531-58.316406-40.464844-.4804685-78.039062 20.929688-98.257812 55.988282-49.667969.355468-90.785157 38.695312-94.613282 88.214843-39.125 24.722657-57.183594 72.335938-44.300781 116.789063 12.882813 44.449218 53.605469 75.027344 99.882813 74.996094h224v48c0 17.671874 14.328124 32 32 32 17.675781 0 32-14.328126 32-32v-48.40625c49.699218-4.195313 87.925781-45.71875 88-95.59375zm-24-72c-.035157 49.859374-38.230469 91.390624-87.910157 95.589843-49.679687 4.203125-94.308593-30.328125-102.714843-79.46875-8.40625-49.144531 22.207031-96.546875 70.457031-109.097656 7.898437-2.015625 16.019531-3.03125 24.167969-3.023437 52.996093.058593 95.945312 43.003906 96 96zm-104 111.59375c2.65625.191406 5.296874.40625 8 .40625 2.703124 0 5.351562-.144532 8-.335938v8.335938h-16zm-248 40.40625c-39.855469.035156-74.746094-26.738282-85.027344-65.246094-10.28125-38.503906 6.621094-79.109375 41.1875-98.945313 2.390625-1.375 3.902344-3.886719 4-6.640625 1.347656-43.089844 36.730468-77.289062 79.839844-77.167968.472656 0 .929687 0 1.375.0625 3.695312.605468 7.394531-1.050782 9.402343-4.214844 15.957031-30.878906 47.382813-50.699219 82.125-51.800782 34.742188-1.101562 67.359375 16.691407 85.242188 46.496094-46.976563 16.878906-77.113281 62.804688-73.898438 112.617188 3.210938 49.808594 39 91.484375 87.753907 102.183594v10.65625c-4.417969 0-8 3.582031-8 8v24zm272 64c0 8.835937-7.164063 16-16 16-8.835938 0-16-7.164063-16-16v-80h32zm16-64.40625v-23.59375c0-4.417969-3.582032-8-8-8v-10.703126c33.324218-7.386718 61.484374-29.511718 76.554687-60.136718 6.953125 22.847656 3.28125 47.613281-10.003906 67.460937-13.28125 19.851563-34.777344 32.6875-58.550781 34.972657zm0 0"/><path d="m79.992188 152.492188h16c.027343-26.5 21.503906-47.972657 48-48v-16c-35.328126.039062-63.960938 28.671874-64 64zm0 0"/><path d="m279.992188 168.492188c.050781 44.164062 35.839843 79.953124 80 80v-16c-35.34375 0-64-28.652344-64-64 0-35.347657 28.65625-64 64-64v-16c-44.160157.050781-79.949219 35.835937-80 80zm0 0"/></svg>