<?xml version="1.0" encoding="iso-8859-1"?>
<!-- Generator: Adobe Illustrator 19.0.0, SVG Export Plug-In . SVG Version: 6.00 Build 0)  -->
<svg version="1.1" id="Capa_1" xmlns="http://www.w3.org/2000/svg" xmlns:xlink="http://www.w3.org/1999/xlink" x="0px" y="0px"
	 viewBox="0 0 512 512" style="enable-background:new 0 0 512 512;" xml:space="preserve">
<g>
	<g>
		<path d="M413.091,34.909h-11.636c-3.491,0-5.818-2.327-5.818-5.818C395.636,12.8,382.836,0,366.545,0H145.455
			c-16.291,0-29.091,12.8-29.091,29.091c0,3.491-2.327,5.818-5.818,5.818H98.909c-16.291,0-29.091,12.8-29.091,29.091v29.091
			c0,6.982,4.655,11.636,11.636,11.636h279.273c6.982,0,11.636-4.655,11.636-11.636c0-6.982-4.655-11.636-11.636-11.636H93.091V64
			c0-3.491,2.327-5.818,5.818-5.818h11.636c16.291,0,29.091-12.8,29.091-29.091c0-3.491,2.327-5.818,5.818-5.818h221.091
			c3.491,0,5.818,2.327,5.818,5.818c0,16.291,12.8,29.091,29.091,29.091h11.636c3.491,0,5.818,2.327,5.818,5.818v17.455h-11.636
			c-5.818,0-10.473,4.655-11.636,10.473l-39.564,361.891h-6.982c-6.982,0-11.636,4.655-11.636,11.636v23.273H162.909v-11.636
			h151.273c6.982,0,11.636-4.655,11.636-11.636c0-6.982-4.655-11.636-11.636-11.636H144.291l-24.436-315.345
			c0-5.818-5.818-11.636-12.8-10.473c-6.982,0-11.636,5.818-10.473,12.8l25.6,325.818c0,5.818,5.818,10.473,11.636,10.473h5.818
			v23.273c0,6.982,4.655,11.636,11.636,11.636h197.818c6.982,0,11.636-4.655,11.636-11.636v-23.273h5.818
			c5.818,0,10.473-4.655,11.636-10.473l39.564-361.891h12.8c6.982,0,11.636-4.655,11.636-11.636V64
			C442.182,47.709,429.382,34.909,413.091,34.909z"/>
	</g>
</g>
<g>
	<g>
		<path d="M281.6,235.055c-5.818-8.145-12.8-12.8-20.945-13.964c0,0,0,1.164-1.164,1.164c-2.327,2.327-9.309,9.309-9.309,19.782
			c0,9.309,3.491,13.964,8.146,20.945c0,1.164,1.164,1.164,1.164,2.327c5.818,8.146,10.473,17.455,11.636,27.927
			c0,8.145-3.491,15.127-6.982,19.782c15.127-4.655,26.764-23.273,26.764-45.382C290.909,256,287.418,244.364,281.6,235.055z"/>
	</g>
</g>
<g>
	<g>
		<path d="M252.509,269.964c0-1.164-1.164-1.164-1.164-2.327c-4.655-6.982-9.309-13.964-9.309-25.6
			c0-8.145,3.491-15.127,6.982-19.782c-16.291,4.655-27.927,23.273-27.927,45.382c0,11.636,3.491,23.273,9.309,32.582
			c3.491,4.655,8.145,8.145,11.636,10.473c3.491,1.164,5.818,2.327,9.309,3.491c0,0,0-1.164,1.164-1.164
			c2.327-2.327,9.309-9.309,9.309-19.782C261.818,285.091,257.164,276.945,252.509,269.964z"/>
	</g>
</g>
<g>
	<g>
		<path d="M337.455,337.455H174.545c-6.982,0-11.636,4.655-11.636,11.636c0,6.982,4.655,11.636,11.636,11.636h162.909
			c6.982,0,11.636-4.655,11.636-11.636C349.091,342.109,344.436,337.455,337.455,337.455z"/>
	</g>
</g>
<g>
	<g>
		<path d="M349.091,174.545H162.909c-6.982,0-11.636,4.655-11.636,11.636s4.655,11.636,11.636,11.636h186.182
			c6.982,0,11.636-4.655,11.636-11.636S356.073,174.545,349.091,174.545z"/>
	</g>
</g>
<g>
</g>
<g>
</g>
<g>
</g>
<g>
</g>
<g>
</g>
<g>
</g>
<g>
</g>
<g>
</g>
<g>
</g>
<g>
</g>
<g>
</g>
<g>
</g>
<g>
</g>
<g>
</g>
<g>
</g>
</svg>
