<?xml version="1.0" encoding="iso-8859-1"?>
<!-- Generator: Adobe Illustrator 19.0.0, SVG Export Plug-In . SVG Version: 6.00 Build 0)  -->
<svg version="1.1" id="Capa_1" xmlns="http://www.w3.org/2000/svg" xmlns:xlink="http://www.w3.org/1999/xlink" x="0px" y="0px"
	 viewBox="0 0 512 512" style="enable-background:new 0 0 512 512;" xml:space="preserve">
<g>
	<g>
		<path d="M256,0C115.2,0,0,115.2,0,256s115.2,256,256,256c6.982,0,11.636-4.655,11.636-11.636s-4.655-11.636-11.636-11.636
			C128,488.727,23.273,384,23.273,256S128,23.273,256,23.273S488.727,128,488.727,256c0,111.709-79.127,207.127-188.509,228.073
			c-5.818,1.164-10.473,6.982-9.309,13.964c1.164,5.818,6.982,10.473,13.964,9.309C424.727,484.073,512,378.182,512,256
			C512,115.2,396.8,0,256,0z"/>
	</g>
</g>
<g>
	<g>
		<path d="M304.873,52.364c-5.818-1.164-12.8,2.327-13.964,8.145s2.327,12.8,8.145,13.964
			c80.291,19.782,137.309,88.436,143.127,169.891h-11.636c-6.982,0-11.636,4.655-11.636,11.636s4.655,11.636,11.636,11.636h10.473
			C435.2,360.727,360.727,435.2,267.636,441.018v-10.473c0-6.982-4.655-11.636-11.636-11.636s-11.636,4.655-11.636,11.636v10.473
			C151.273,435.2,76.8,360.727,70.982,267.636h10.473c6.982,0,11.636-4.655,11.636-11.636s-4.655-11.636-11.636-11.636H69.818
			c5.818-93.091,81.455-168.727,174.545-174.545v11.636c0,6.982,4.655,11.636,11.636,11.636s11.636-4.655,11.636-11.636V58.182
			c0-6.982-4.655-11.636-11.636-11.636C140.8,46.545,46.545,140.8,46.545,256S140.8,465.455,256,465.455S465.455,371.2,465.455,256
			C465.455,159.418,399.127,75.636,304.873,52.364z"/>
	</g>
</g>
<g>
	<g>
		<path d="M360.727,245.527h-33.745l44.218-88.436c2.327-4.654,1.164-10.473-2.327-13.964s-9.309-4.655-13.964-2.327l-87.273,44.218
			v-33.745c0-6.982-4.655-11.636-11.636-11.636s-11.636,4.655-11.636,11.636v52.364c0,3.491,2.327,8.146,5.818,10.473
			c3.491,2.327,8.145,2.327,11.636,0l73.309-37.236l-46.545,94.255l-9.309-9.309c0-2.327,1.164-3.491,1.164-5.818
			c0-12.8-10.473-23.273-23.273-23.273c-2.327,0-3.491,0-5.818,1.164L230.4,212.945c-2.327-2.327-5.818-3.491-10.473-3.491
			c-3.491,1.164-6.982,3.491-8.145,5.818l-15.127,29.091h-45.382c-6.982,0-11.636,4.655-11.636,11.636s4.655,11.636,11.636,11.636
			h33.745L140.8,356.073c-2.327,4.655-1.164,9.309,2.327,13.964c2.327,2.327,4.655,3.491,8.145,3.491c2.327,0,3.491,0,4.655-1.164
			l88.436-44.218v32.582c0,6.982,4.655,11.636,11.636,11.636s11.636-4.655,11.636-11.636v-52.364c0-3.491-2.327-8.145-5.818-10.473
			s-8.145-2.327-11.636,0l-73.309,37.236l46.545-94.255l9.309,9.309c0,2.327-1.164,3.491-1.164,5.818
			c0,12.8,10.473,23.273,23.273,23.273c2.327,0,3.491,0,5.818-1.164l20.945,20.945c2.327,2.327,4.655,3.491,8.145,3.491
			c1.164,0,1.164,0,2.327,0c3.491-1.164,6.982-3.491,8.145-5.818l13.964-27.927h46.545c6.982,0,11.636-4.655,11.636-11.636
			S367.709,245.527,360.727,245.527z"/>
	</g>
</g>
<g>
</g>
<g>
</g>
<g>
</g>
<g>
</g>
<g>
</g>
<g>
</g>
<g>
</g>
<g>
</g>
<g>
</g>
<g>
</g>
<g>
</g>
<g>
</g>
<g>
</g>
<g>
</g>
<g>
</g>
</svg>
