<svg height="512pt" viewBox="0 0 512 512" width="512pt" xmlns="http://www.w3.org/2000/svg"><path d="m452 301c-7.714844 0-15.089844 1.480469-21.871094 4.144531l-64.972656-73.539062c4.980469-8.742188 7.84375-18.84375 7.84375-29.605469 0-33.085938-26.914062-60-60-60-4.285156 0-8.464844.460938-12.496094 1.320312l-27.917968-45.5625c8.378906-10.320312 13.414062-23.460937 13.414062-37.757812 0-33.085938-26.914062-60-60-60-26.074219 0-48.304688 16.722656-56.558594 40h-52.882812c-8.253906-23.277344-30.484375-40-56.558594-40-33.085938 0-60 26.914062-60 60s26.914062 60 60 60c26.074219 0 48.304688-16.722656 56.558594-40h52.882812c8.253906 23.277344 30.484375 40 56.558594 40 4.285156 0 8.464844-.460938 12.496094-1.320312l27.917968 45.5625c-8.378906 10.320312-13.414062 23.460937-13.414062 37.757812 0 10.511719 2.726562 20.394531 7.492188 28.996094l-38.820313 42.464844c-7-2.867188-14.652344-4.460938-22.671875-4.460938-33.082031 0-60 26.914062-60 60s26.917969 60 60 60c8.226562 0 16.070312-1.667969 23.214844-4.675781l38.011718 39.152343c-4.605468 8.488282-7.226562 18.207032-7.226562 28.523438 0 33.085938 26.914062 60 60 60s60-26.914062 60-60c0-4.640625-.546875-9.148438-1.546875-13.488281l43.570313-30.3125c10.199218 8.007812 23.035156 12.800781 36.976562 12.800781 33.085938 0 60-26.914062 60-60s-26.914062-60-60-60zm-162.089844 95.628906-38.078125-39.21875c4.570313-8.460937 7.167969-18.136718 7.167969-28.410156 0-10.484375-2.710938-20.34375-7.457031-28.929688l38.855469-42.503906c6.980468 2.847656 14.609374 4.433594 22.601562 4.433594 7.746094 0 15.144531-1.492188 21.945312-4.175781l64.9375 73.5c-5.003906 8.761719-7.882812 18.886719-7.882812 29.675781 0 4.617188.539062 9.105469 1.53125 13.425781l-43.605469 30.335938c-10.191406-7.984375-23.007812-12.761719-36.925781-12.761719-8.179688 0-15.976562 1.648438-23.089844 4.628906zm43.089844-194.628906c0 11.027344-8.972656 20-20 20s-20-8.972656-20-20 8.972656-20 20-20 20 8.972656 20 20zm-273-122c-11.027344 0-20-8.972656-20-20s8.972656-20 20-20 20 8.972656 20 20-8.972656 20-20 20zm146-20c0-11.027344 8.972656-20 20-20s20 8.972656 20 20-8.972656 20-20 20-20-8.972656-20-20zm-27 269c0-11.027344 8.972656-20 20-20s20 8.972656 20 20-8.972656 20-20 20-20-8.972656-20-20zm134 143c-11.027344 0-20-8.972656-20-20s8.972656-20 20-20 20 8.972656 20 20-8.972656 20-20 20zm139-91c-11.027344 0-20-8.972656-20-20s8.972656-20 20-20 20 8.972656 20 20-8.972656 20-20 20zm0 0"/></svg>