<svg height="511pt" viewBox="0 0 511 511.81826" width="511pt" xmlns="http://www.w3.org/2000/svg"><g fill="#3f51b5"><path d="m179.210938 227.015625-20.316407 20.316406c-3.257812 3.234375-8.515625 3.234375-11.773437 0l-11.777344-11.777343 11.777344 11.777343-11.777344-11.777343c-3.238281-3.257813-3.238281-8.519532 0-11.777344l21.496094-21.492188 49.640625-49.644531 11.308593-11.304687c29.445313-29.445313 47.109376-23.554688 47.109376-23.554688s5.890624 17.664062-23.550782 47.113281l-9.550781 9.535157zm0 0"/><path d="m285.214844 333.019531-20.316406 20.3125c-3.238282 3.261719-3.238282 8.519531 0 11.777344l11.777343 11.777344-11.777343-11.777344 11.777343 11.777344c3.257813 3.238281 8.515625 3.238281 11.773438 0l82.445312-82.445313c29.441407-29.445312 23.554688-47.109375 23.554688-47.109375s-17.664063-5.890625-47.113281 23.550781l-9.535157 9.550782zm0 0"/><path d="m271.648438 208.496094c-8.207032 10.535156-7.445313 38.03125-15.957032 48.042968-9.28125 10.914063-27.855468 4.257813-37.292968 13.738282l-39.167969-43.261719-22.355469-24.75-145.75-161.023437c-3-3.292969-2.886719-8.363282.257812-11.519532l18.429688-18.347656c3.046875-3.105469 7.992188-3.292969 11.265625-.425781l165.375 141.652343 25.34375 21.847657zm0 0"/></g><path d="m500.851562 482.417969-18.34375 18.429687c-3.160156 3.144532-8.226562 3.257813-11.523437.257813l-7.59375-6.914063-153.429687-138.835937-24.746094-22.359375-43.261719-39.167969c9.46875-9.46875 2.816406-27.988281 13.738281-37.289063 8.679688-4.9375 18.304688-7.992187 28.246094-8.960937 7.015625-.910156 13.765625-3.292969 19.796875-6.996094l34.046875 39.851563 21.84375 25.34375 141.65625 165.375c2.867188 3.273437 2.679688 8.21875-.429688 11.265625zm0 0" fill="#283593"/><path d="m475.082031 482.417969-11.691406 11.773437-153.429687-138.835937-24.746094-22.359375-43.261719-39.167969c9.46875-9.46875 2.816406-27.988281 13.738281-37.289063 8.679688-4.9375 18.304688-7.992187 28.246094-8.960937l28.074219 32.855469 21.84375 25.34375 141.652343 165.375c2.867188 3.273437 2.679688 8.21875-.425781 11.265625zm0 0" fill="#3f51b5"/><path d="m400.332031 170.78125c-25.175781 18.003906-61.441406 42.664062-96.597656 69.800781-21.628906 16.515625-42.257813 34.292969-61.78125 53.246094l-59.480469 59.480469 27.820313 83.453125c.949219 3.003906.160156 6.289062-2.046875 8.535156l-11.519532 11.519531c-1.910156 1.933594-4.652343 2.804688-7.328124 2.328125-2.675782-.476562-4.945313-2.242187-6.070313-4.71875l-4.863281-10.496093-30.722656-65.703126c-.410157-.878906-.957032-1.6875-1.621094-2.390624l-4.863282-4.863282-4.863281-4.867187c-.707031-.664063-1.511719-1.210938-2.390625-1.621094l-11.859375-5.546875-64.34375-30.035156c-2.199219-.984375-3.851562-2.890625-4.519531-5.207032-.847656-2.914062-.027344-6.058593 2.132812-8.191406l11.519532-11.519531c2.246094-2.210937 5.527344-2.996094 8.53125-2.046875l83.457031 27.816406 59.476563-59.476562c18.953124-19.523438 36.734374-40.152344 53.25-61.78125 27.136718-35.15625 51.796874-71.421875 69.800781-96.597656 19.117187-26.792969 50.773437-31.230469 70.488281-31.058594 4.519531.082031 8.445312.339844 11.433594.679687 3.855468.441407 6.894531 3.484375 7.335937 7.339844 1.707031 16.042969 2.5625 58.367187-30.375 81.921875zm0 0" fill="#0377bc"/><path d="m381.214844 158.746094c-25.171875 18.007812-61.4375 42.667968-96.597656 69.804687-21.625 16.511719-42.253907 34.292969-61.78125 53.246094l-.597657.597656c-32.425781 32.34375-48.042969 48.042969-54.699219 54.699219-.382812.296875-.726562.640625-1.023437 1.023438-2.300781 2.21875-3.15625 3.15625-3.15625 3.15625l27.820313 83.457031c.949218 3.003906.160156 6.289062-2.050782 8.535156l-10.664062 10.664063-30.722656-65.703126c-.410157-.878906-.957032-1.6875-1.621094-2.390624l-4.863282-4.863282-4.863281-4.867187c-.707031-.664063-1.511719-1.210938-2.390625-1.621094l-11.859375-5.546875-4.863281-4.863281c-.707031-.664063-1.511719-1.210938-2.390625-1.621094l-61.609375-28.757813c-.847656-2.914062-.027344-6.058593 2.132812-8.191406l11.519532-11.519531c2.246094-2.210937 5.527344-2.996094 8.53125-2.046875l83.457031 27.816406 59.476563-59.476562c18.953124-19.523438 36.734374-40.152344 53.25-61.78125 27.136718-35.15625 51.796874-71.421875 69.800781-96.597656 19.117187-26.792969 50.773437-31.230469 70.488281-31.058594 1.277344 18.257812-.257812 56.148437-30.722656 77.90625zm0 0" fill="#02a9f4"/><path d="m190.851562 467.785156c-6.546874 0-12.503906-3.792968-15.273437-9.726562l-35.574219-76.234375-9.660156-9.644531-76.167969-35.527344c-4.988281-2.328125-8.523437-6.9375-9.476562-12.355469-.957031-5.417969.792969-10.960937 4.683593-14.851563l11.507813-11.507812c4.503906-4.535156 11.191406-6.113281 17.25-4.074219l78.449219 26.148438 55.164062-55.15625c18.933594-19.453125 36.695313-40.015625 53.1875-61.582031 19.859375-25.71875 38.796875-52.667969 54.015625-74.324219 5.59375-7.960938 10.804688-15.378907 15.558594-22.023438 25.964844-36.367187 71.394531-35.785156 89.75-33.871093 7.847656.863281 14.046875 7.058593 14.910156 14.910156 1.925781 18.332031 2.492188 63.777344-33.878906 89.757812-6.640625 4.75-14.058594 9.957032-22.019531 15.554688-21.65625 15.214844-48.605469 34.148437-74.359375 54.035156-21.34375 16.320312-41.703125 33.882812-60.980469 52.597656l-55.722656 55.730469 26.152344 78.445313c2.039062 6.058593.460937 12.75-4.078126 17.253906l-11.503906 11.507812c-3.167968 3.164063-7.457031 4.9375-11.933594 4.9375zm-118.109374-157.730468-11.292969 11.460937 76.171875 35.242187c1.769531.824219 3.386718 1.953126 4.773437 3.332032l9.71875 9.730468c1.394531 1.390626 2.53125 3.015626 3.359375 4.804688l35.570313 76.21875 11.09375-11.476562-27.78125-83.328126c-1.019531-3.066406-.222657-6.449218 2.0625-8.734374l58.890625-58.890626.605468-.609374c19.765626-19.207032 40.648438-37.226563 62.539063-53.972657 26.09375-20.144531 53.214844-39.203125 75.011719-54.515625 7.921875-5.566406 15.300781-10.75 21.914062-15.480468 29.066406-20.761719 28.441406-58.722657 26.820313-74.078126-15.054688-1.339843-53.035157-1.972656-73.800781 27.09375-4.734376 6.617188-9.917969 13.992188-15.484376 21.914063-15.3125 21.796875-34.371093 48.917969-54.488281 74.980469-16.753906 21.902344-34.78125 42.796875-54 62.570312l-.605469.609375-58.890624 58.886719c-2.289063 2.289062-5.667969 3.085938-8.734376 2.0625zm129.480468 129.21875-.003906.003906zm0 0"/><path d="m218.375 278.835938-.203125-.003907c-2.339844-.054687-4.554687-1.066406-6.128906-2.804687l-207.273438-229.09375c-6.03125-6.660156-5.777343-16.882813.582031-23.234375l18.390626-18.390625c6.242187-6.199219 16.191406-6.582032 22.894531-.886719l230.578125 197.621094c3.46875 2.964843 3.988281 8.136719 1.183594 11.734375-16.742188 21.890625-34.765626 42.773437-53.972657 62.539062-1.597656 1.613282-3.777343 2.519532-6.050781 2.519532zm-182.84375-261.449219-18.113281 18.378906 201.179687 222.066406c12.628906-13.253906 26.238282-29.117187 41.300782-48.140625zm0 0"/><path d="m147.121094 255.867188c-2.265625.003906-4.4375-.894532-6.035156-2.5l-11.777344-11.773438c-6.570313-6.589844-6.570313-17.253906-.003906-23.84375l21.503906-21.496094c2.144531-2.207031 5.3125-3.09375 8.292968-2.3125 2.976563.785156 5.304688 3.109375 6.085938 6.089844.78125 2.976562-.101562 6.144531-2.3125 8.289062l-21.496094 21.492188 11.777344 11.492188c2.441406 2.441406 3.167969 6.109374 1.847656 9.300781-1.320312 3.1875-4.429687 5.265625-7.878906 5.265625zm0 0"/><path d="m206.476562 161.171875c-3.449218 0-6.558593-2.078125-7.882812-5.265625-1.320312-3.191406-.589844-6.859375 1.851562-9.300781l11.308594-11.304688c32.222656-32.238281 53.527344-26.402343 55.835938-25.621093 2.917968.945312 5.105468 3.378906 5.730468 6.382812s-.410156 6.109375-2.707031 8.136719c-2.300781 2.03125-5.511719 2.667969-8.414062 1.671875-.167969.019531-14.257813-2.617188-38.378907 21.496094l-11.308593 11.304687c-1.597657 1.605469-3.769531 2.503906-6.035157 2.5zm0 0"/><path d="m231.796875 182.964844c-3.449219 0-6.5625-2.082032-7.882813-5.269532-1.320312-3.1875-.589843-6.855468 1.851563-9.296874l9.539063-9.542969c24.421874-24.421875 21.417968-38.585938 21.386718-38.726563-1.074218-4.472656 1.519532-9.015625 5.917969-10.363281 4.328125-1.339844 8.9375 1.015625 10.378906 5.3125.777344 2.320313 6.632813 23.601563-25.613281 55.847656l-9.542969 9.539063c-1.597656 1.601562-3.769531 2.503906-6.035156 2.5zm0 0"/><path d="m153.007812 258.296875c-4.472656.007813-8.761718-1.765625-11.921874-4.929687l-11.777344-11.773438c-2.21875-2.144531-3.105469-5.316406-2.324219-8.300781s3.109375-5.3125 6.09375-6.09375 6.15625.109375 8.296875 2.328125l11.777344 11.773437 20.023437-20.316406c3.347657-3.246094 8.679688-3.203125 11.976563.09375s3.335937 8.628906.089844 11.972656l-20.316407 20.316407c-3.15625 3.164062-7.449219 4.9375-11.917969 4.929687zm0 0"/><path d="m476.605469 511.816406c-4.179688.003906-8.210938-1.546875-11.308594-4.355468l-229.09375-207.273438c-1.738281-1.574219-2.75-3.789062-2.804687-6.132812-.054688-2.339844.855468-4.601563 2.515624-6.25 19.765626-19.207032 40.648438-37.230469 62.539063-53.972657 3.601563-2.796875 8.761719-2.277343 11.734375 1.183594l197.613281 230.574219c5.695313 6.703125 5.3125 16.648437-.882812 22.894531l-18.386719 18.390625c-3.160156 3.171875-7.449219 4.949219-11.925781 4.941406zm-222.207031-218.183594 222.347656 201.167969 17.972656-18.25-192.179688-224.222656c-19.023437 15.066406-34.886718 28.671875-48.140624 41.304687zm0 0"/><path d="m282.5625 387.851562c-4.472656.011719-8.761719-1.765624-11.921875-4.929687l-11.777344-11.777344c-3.246093-3.34375-3.203125-8.675781.09375-11.972656 3.292969-3.296875 8.628907-3.339844 11.972657-.09375l11.777343 11.777344 21.203125-21.496094c3.347656-3.246094 8.679688-3.207031 11.976563.089844s3.335937 8.628906.089843 11.976562l-21.492187 21.496094c-3.160156 3.164063-7.449219 4.9375-11.921875 4.929687zm0 0"/><path d="m359.589844 314.285156c-3.449219 0-6.5625-2.078125-7.882813-5.269531-1.320312-3.1875-.589843-6.855469 1.851563-9.296875l11.304687-11.308594c24.417969-24.421875 21.421875-38.582031 21.390625-38.726562-1.078125-4.476563 1.515625-9.015625 5.917969-10.359375 4.328125-1.324219 8.921875 1.03125 10.378906 5.316406.773438 2.316406 6.621094 23.597656-25.625 55.835937l-11.300781 11.308594c-1.597656 1.601563-3.769531 2.503906-6.035156 2.5zm0 0"/><path d="m337.800781 288.964844c-3.453125 0-6.5625-2.078125-7.882812-5.265625-1.324219-3.1875-.59375-6.859375 1.847656-9.300781l9.542969-9.539063c32.234375-32.25 53.519531-26.40625 55.84375-25.617187 2.890625.964843 5.050781 3.398437 5.660156 6.386718.613281 2.984375-.417969 6.070313-2.699219 8.09375-2.28125 2.023438-5.46875 2.675782-8.359375 1.710938-.460937-.082032-.929687-.109375-1.398437-.085938-4.117188 0-17.171875 1.769532-36.980469 21.574219l-9.542969 9.542969c-1.597656 1.601562-3.769531 2.503906-6.03125 2.5zm0 0"/><path d="m276.671875 385.421875c-2.261719.003906-4.433594-.894531-6.03125-2.5l-11.777344-11.777344c-6.574219-6.585937-6.574219-17.253906 0-23.839843l20.316407-20.316407c2.144531-2.210937 5.3125-3.09375 8.292968-2.3125 2.980469.78125 5.304688 3.109375 6.085938 6.085938.78125 2.980469-.101563 6.148437-2.3125 8.292969l-20.320313 20.3125 11.777344 11.488281c2.441406 2.4375 3.167969 6.109375 1.847656 9.296875-1.320312 3.1875-4.429687 5.265625-7.878906 5.269531zm0 0"/><path d="m463.257812 114.507812c-2.84375-.003906-5.496093-1.421874-7.082031-3.785156-1.582031-2.359375-1.886719-5.351562-.816406-7.984375 5.46875-13.257812 2.425781-28.503906-7.71875-38.644531-10.140625-10.144531-25.386719-13.1875-38.644531-7.714844-4.363282 1.78125-9.347656-.308594-11.132813-4.671875-1.78125-4.363281.308594-9.347656 4.671875-11.128906 19.621094-8.070313 42.171875-3.554687 57.175782 11.445313 15 15.003906 19.515624 37.550781 11.449218 57.175781-1.3125 3.207031-4.4375 5.304687-7.902344 5.308593zm0 0"/><path d="m463.257812 114.507812c-2.84375-.003906-5.496093-1.421874-7.082031-3.785156-1.582031-2.359375-1.886719-5.351562-.816406-7.984375 5.46875-13.257812 2.425781-28.503906-7.71875-38.644531-10.140625-10.144531-25.386719-13.1875-38.644531-7.714844-4.363282 1.78125-9.347656-.308594-11.132813-4.671875-1.78125-4.363281.308594-9.347656 4.671875-11.128906 19.621094-8.070313 42.171875-3.554687 57.175782 11.445313 15 15.003906 19.515624 37.550781 11.449218 57.175781-1.3125 3.207031-4.4375 5.304687-7.902344 5.308593zm0 0"/><path d="m497.078125 128.542969c-2.84375-.003907-5.5-1.425781-7.082031-3.789063-1.582032-2.367187-1.886719-5.363281-.804688-7.992187 11.144532-26.945313 4.96875-57.949219-15.648437-78.566407-20.617188-20.621093-51.621094-26.796874-78.566407-15.652343-4.347656 1.757812-9.300781-.328125-11.085937-4.664063-1.785156-4.339844.269531-9.304687 4.59375-11.117187 33.316406-13.765625 71.636719-6.121094 97.125 19.363281 25.484375 25.488281 33.128906 63.8125 19.363281 97.125-1.3125 3.203125-4.433594 5.292969-7.894531 5.292969zm0 0"/><path d="m463.257812 114.507812c-2.84375-.003906-5.496093-1.421874-7.082031-3.785156-1.582031-2.359375-1.886719-5.351562-.816406-7.984375 5.46875-13.257812 2.425781-28.503906-7.71875-38.644531-10.140625-10.144531-25.386719-13.1875-38.644531-7.714844-4.363282 1.78125-9.347656-.308594-11.132813-4.671875-1.78125-4.363281.308594-9.347656 4.671875-11.128906 19.621094-8.070313 42.171875-3.554687 57.175782 11.445313 15 15.003906 19.515624 37.550781 11.449218 57.175781-1.3125 3.207031-4.4375 5.304687-7.902344 5.308593zm0 0"/></svg>