<svg id="Capa_1" enable-background="new 0 0 511.992 511.992" height="512" viewBox="0 0 511.992 511.992" width="512" xmlns="http://www.w3.org/2000/svg"><path d="m438.964 100.44c-9.299-2.893-15.372-8.113-19.689-16.926-2.431-4.959-8.421-7.009-13.38-4.58-4.96 2.43-7.011 8.42-4.581 13.38 6.753 13.782 17.125 22.687 31.709 27.224.989.308 1.989.454 2.974.454 4.263 0 8.213-2.748 9.546-7.032 1.64-5.274-1.305-10.879-6.579-12.52z"/><path d="m409.54 264.99c-8.154 0-15.659 2.81-21.615 7.503-2.865-5.417-6.547-10.1-10.83-13.769 7.604-6.426 12.446-16.023 12.446-26.735 0-15.824-10.56-29.222-25.001-33.536v-7.806c14.441-4.314 25.001-17.712 25.001-33.537 0-15.824-10.56-29.223-25.001-33.537v-21.464c0-5.106-3.847-9.392-8.923-9.942-12.024-1.303-29.537-15.099-34.977-31.613-3.532-10.726-.374-22.249 8.449-30.823 7.232-7.029 19.765-12.807 33.247-7.935 5.194 1.879 10.927-.813 12.804-6.007 1.876-5.194-.813-10.926-6.007-12.803-18.538-6.697-39.22-1.945-53.982 12.401-14.225 13.824-19.4 33.528-13.507 51.423 6.42 19.493 24.522 37.237 42.896 43.271v13.492c-14.44 4.314-25 17.712-25 33.537s10.56 29.223 25 33.537v7.807c-14.44 4.314-25 17.712-25 33.536 0 10.711 4.841 20.309 12.445 26.734-4.282 3.669-7.965 8.352-10.83 13.769-5.956-4.692-13.461-7.502-21.615-7.502-19.3 0-35.001 15.701-35.001 35s15.701 35 35.001 35c8.153 0 15.658-2.81 21.615-7.503 2.488 4.704 5.593 8.852 9.171 12.265-6.641 6.374-10.787 15.328-10.787 25.237 0 19.299 15.701 35 35 35 19.3 0 35.001-15.701 35.001-35 0-9.91-4.146-18.864-10.788-25.238 3.579-3.414 6.683-7.562 9.171-12.266 5.957 4.693 13.462 7.503 21.615 7.503 19.299 0 35-15.701 35-35s-15.699-34.999-34.998-34.999zm-70-107.881c0-8.271 6.729-15 15-15s15.001 6.729 15.001 15-6.729 15-15.001 15-15-6.728-15-15zm15 59.881c8.271 0 15.001 6.729 15.001 15s-6.729 15-15.001 15-15-6.729-15-15c0-8.272 6.729-15 15-15zm-54.999 98c-8.271 0-15.001-6.729-15.001-15s6.729-15 15.001-15c8.267 0 14.992 6.721 14.999 14.986v.013.014c-.007 8.265-6.732 14.987-14.999 14.987zm70 50c0 8.271-6.729 15-15.001 15s-15-6.729-15-15 6.729-15 15-15 15.001 6.728 15.001 15zm-35-64.978c0-.008 0-.015 0-.022 0-.008-.001-.015-.001-.023.008-16.252 9.164-29.978 20-29.978 10.841 0 20 13.738 20 30s-9.159 30-20 30c-10.835 0-19.991-13.725-19.999-29.977zm74.999 14.978c-8.271 0-15-6.729-15-15s6.729-15 15-15 15 6.729 15 15-6.728 15-15 15z"/><path d="m240.418 212.442c-17.404-5.414-21.553-18.362-26.881-39.04-3.172-12.311-6.452-25.041-14.467-36.001-3.297-4.509-6.954-8.519-10.87-11.917-4.17-3.621-10.486-3.173-14.107.998-3.62 4.171-3.173 10.487.998 14.107 2.785 2.417 5.421 5.316 7.834 8.617 5.749 7.863 8.418 18.221 11.244 29.187 5.332 20.693 11.375 44.146 40.307 53.147.989.308 1.99.454 2.974.454 4.263 0 8.213-2.748 9.546-7.032 1.641-5.275-1.304-10.88-6.578-12.52z"/><path d="m210.995 376.991c-8.154 0-15.659 2.81-21.616 7.503-2.865-5.417-6.547-10.1-10.829-13.769 7.604-6.425 12.445-16.023 12.445-26.734 0-15.824-10.56-29.223-25-33.537v-7.806c14.441-4.314 25-17.712 25-33.537s-10.56-29.223-25-33.537v-21.463c0-5.106-3.847-9.392-8.923-9.942-12.025-1.303-29.537-15.099-34.977-31.614-1.104-3.35-1.564-6.805-1.37-10.271.31-5.515-3.91-10.235-9.424-10.545-5.505-.312-10.234 3.91-10.544 9.424-.335 5.974.453 11.912 2.342 17.648 6.42 19.494 24.522 37.238 42.896 43.271v13.492c-14.441 4.314-25 17.712-25 33.537s10.559 29.223 25 33.537v7.806c-14.441 4.314-25 17.712-25 33.537 0 10.711 4.841 20.309 12.445 26.734-4.283 3.669-7.965 8.352-10.83 13.769-5.956-4.692-13.461-7.503-21.615-7.503-19.299 0-35 15.701-35 35s15.701 35 35 35c8.154 0 15.659-2.81 21.615-7.503 2.488 4.704 5.593 8.852 9.172 12.266-6.641 6.374-10.787 15.327-10.787 25.237 0 19.299 15.701 35 35 35s35-15.701 35-35c0-9.909-4.146-18.863-10.787-25.237 3.579-3.414 6.683-7.562 9.171-12.266 5.956 4.693 13.462 7.503 21.616 7.503 19.299 0 35-15.701 35-35s-15.701-35-35-35zm-75 34.989c.004-16.257 9.161-29.989 20-29.989 10.841 0 20 13.738 20 30s-9.159 30-20 30c-10.839 0-19.996-13.732-20-29.989 0-.004 0-.008 0-.011s0-.007 0-.011zm5-142.869c0-8.27 6.726-14.997 14.995-15h.005.005c8.269.003 14.995 6.73 14.995 15 0 8.271-6.729 15-15 15-8.271.001-15-6.728-15-15zm15 59.88c8.271 0 15 6.729 15 15s-6.729 15-15 15-15-6.729-15-15 6.729-15 15-15zm-55 98.001c-8.271 0-15-6.729-15-15s6.729-15 15-15c8.269 0 14.996 6.725 15 14.993v.007s0 .005 0 .007c-.004 8.267-6.731 14.993-15 14.993zm55 65c-8.271 0-15-6.729-15-15s6.729-15 15-15 15 6.729 15 15-6.729 15-15 15zm55-65c-8.271 0-15-6.729-15-15s6.729-15 15-15 15 6.729 15 15-6.729 15-15 15z"/><path d="m137.299 135.393c5.523 0 10-4.477 10-10s-4.477-10-10-10h-.007c-5.523 0-9.996 4.477-9.996 10s4.48 10 10.003 10z"/><path d="m396.765 54.986c5.522 0 10-4.477 10-10s-4.478-10-10-10h-.008c-5.522 0-9.996 4.477-9.996 10s4.481 10 10.004 10z"/></svg>