<?xml version="1.0"?>
<svg xmlns="http://www.w3.org/2000/svg" viewBox="0 0 64 64" width="512" height="512"><g id="outline"><path d="M13.092,21.373a7.364,7.364,0,0,0,1.266,2.092l-1.688.591a1,1,0,0,0-.518,1.474l10,16A1,1,0,0,0,23,42h5.9l-.2,2H23a1,1,0,0,0-1,1v3H15a1,1,0,0,0-.707,1.707L15.586,51l-1.293,1.293A1,1,0,0,0,15,54H25a1,1,0,0,0,1-1V50H28.1l-1.09,10.9a1,1,0,0,0,1.237,1.07l8-2a1,1,0,0,0,.752-1.08L36.007,50H38v3a1,1,0,0,0,1,1H51a1,1,0,0,0,.707-1.707L50.414,51l1.293-1.293A1,1,0,0,0,51,48H42V45a1,1,0,0,0-1-1H35.34l-.223-2H41a1,1,0,0,0,.848-.47l10-16a1,1,0,0,0-.486-1.462l-1.675-.651a7.382,7.382,0,0,0,1.222-2.045,47.43,47.43,0,0,1,3.9-7.818,1,1,0,0,0-1.039-1.533,32.916,32.916,0,0,0-6.186,2.049c-.579-3.52-1.6-7.167-1.644-7.34a1,1,0,0,0-1.835-.22,49.568,49.568,0,0,0-3.2,7.055l-.042-.031c.551-1.957,1.235-4.04,2-6.055l.047-.127a1,1,0,0,0-1.4-1.227,45.287,45.287,0,0,0-5.434,3.437,49.776,49.776,0,0,0-3.2-7.051,1,1,0,0,0-1.835.219c-.048.173-1.066,3.821-1.644,7.34a32.038,32.038,0,0,0-6.184-2.048,1,1,0,0,0-1.041,1.532,37.451,37.451,0,0,1,1.876,3.33c-.311.216-.63.448-.95.687a49.455,49.455,0,0,0-3.2-7.061,1,1,0,0,0-1.835.22c-.049.173-1.064,3.816-1.643,7.334a31.948,31.948,0,0,0-6.186-2.042,1,1,0,0,0-1.041,1.532A47.315,47.315,0,0,1,13.092,21.373ZM24,52H17.414l.293-.293a1,1,0,0,0,0-1.414L17.414,50H24Zm5.137,7.685L30.105,50h3.889l.916,8.242ZM48.586,50l-.293.293a1,1,0,0,0,0,1.414l.293.293H40V50ZM40,46v2H24V46Zm-9.3-2,.2-2h2.2l.22,2Zm9.74-4H35.964l6.845-9.412-1.618-1.176L33.491,40h-.137l3.6-11.706-1.912-.588L32.206,36.93,29.98,25.8l-1.96.392L30.78,40h-.271l-7.7-10.588-1.618,1.176L28.036,40H23.555L14.511,25.531l18.47-6.465,16.531,6.428Zm6.843-23.538a24.239,24.239,0,0,1,4.592-1.868,55.693,55.693,0,0,0-2.828,6.034,4.9,4.9,0,0,1-1.4,2l-1.4-.544a7,7,0,0,0-1.073-4.027A7.915,7.915,0,0,1,47.288,16.462ZM44.664,9.794c.361,1.506.782,3.466,1.049,5.291a9.645,9.645,0,0,0-1.68,1.293,15.638,15.638,0,0,0-1.452-1.455A38.493,38.493,0,0,1,44.664,9.794ZM43.12,18.475l.028.049a7.121,7.121,0,0,1,1.112,2.782l-5.178-2.014A5.651,5.651,0,0,0,39.96,17.2c.1-.5.224-1.027.355-1.567A12.976,12.976,0,0,1,43.12,18.475ZM40.1,9.242A64.318,64.318,0,0,0,38,16.8a3.406,3.406,0,0,1-.858,1.736l-3.78-1.47a.982.982,0,0,0-.6-.026,7.634,7.634,0,0,1,1.077-2.522C34.927,12.727,37.833,10.652,40.1,9.242ZM32.315,5.8A38.732,38.732,0,0,1,34.4,10.918a15.251,15.251,0,0,0-1.451,1.464,10,10,0,0,0-1.679-1.3C31.535,9.257,31.955,7.3,32.315,5.8Zm-.527,8.277A7.464,7.464,0,0,0,30.7,17.744l-1.7.6a5.08,5.08,0,0,1-1.072-1.712A56.059,56.059,0,0,0,25.1,10.59C27.437,11.309,30.452,12.525,31.788,14.073Zm-6.862.636c.332.72.675,1.506,1.019,2.351-.248.859-.467,1.722-.662,2.582l-5.562,1.946a6.577,6.577,0,0,1,1.133-3.067c.009-.017.019-.033.028-.049A15.666,15.666,0,0,1,24.926,14.709ZM19.336,9.8a38.364,38.364,0,0,1,2.085,5.133,15.464,15.464,0,0,0-1.447,1.451,9.9,9.9,0,0,0-1.685-1.309C18.557,13.25,18.976,11.3,19.336,9.8Zm-.523,8.276a6.808,6.808,0,0,0-1.048,4.2l-1.29.451a4.791,4.791,0,0,1-1.527-2.1,55.91,55.91,0,0,0-2.831-6.04C14.461,15.306,17.483,16.523,18.813,18.071Z"/></g></svg>
