<svg height="511pt" viewBox="0 -13 511.99979 511" width="511pt" xmlns="http://www.w3.org/2000/svg"><path d="m258.691406 67.171875c-19.140625 0-35.535156 8.324219-42.792968 21.726563-1.984376 3.671874-.625 8.257812 3.042968 10.246093 3.667969 1.988281 8.25.625 10.238282-3.042969 4.542968-8.394531 16.128906-13.816406 29.511718-13.816406 13.382813 0 24.964844 5.421875 29.511719 13.816406 1.363281 2.523438 3.960937 3.957032 6.644531 3.957032 1.214844 0 2.449219-.292969 3.589844-.914063 3.667969-1.988281 5.03125-6.574219 3.042969-10.242187-7.257813-13.40625-23.652344-21.730469-42.789063-21.730469zm0 0"/><path d="m315.105469 77.03125c1.367187 2.523438 3.964843 3.953125 6.644531 3.953125 1.214844 0 2.449219-.292969 3.59375-.914063 3.667969-1.992187 5.027344-6.582031 3.039062-10.25-11.671874-21.527343-38.371093-34.902343-69.679687-34.902343s-58.003906 13.375-69.675781 34.902343c-1.988282 3.671876-.632813 8.257813 3.035156 10.25 3.664062 1.988282 8.25.628907 10.238281-3.039062 9.027344-16.65625 30.640625-27 56.402344-27s47.375 10.34375 56.402344 27zm0 0"/><path d="m163.546875 59.660156c1.140625.621094 2.375.917969 3.589844.917969 2.683593 0 5.28125-1.433594 6.644531-3.957031 13.707031-25.292969 46.242188-41.003906 84.90625-41.003906 38.667969 0 71.203125 15.710937 84.90625 41.003906 1.992188 3.667968 6.574219 5.03125 10.238281 3.039062 3.667969-1.988281 5.027344-6.574218 3.039063-10.246094-16.347656-30.171874-53.96875-48.914062-98.183594-48.914062-44.210938 0-81.832031 18.742188-98.179688 48.914062-1.988281 3.667969-.628906 8.257813 3.039063 10.246094zm0 0"/><path d="m494.316406 371.023438c21.671875-59.136719 23.402344-106.664063 5.316406-145.121094-19.207031-40.886719-38.652343-52.40625-50.210937-52.988282l-.347656-1.414062c-3.992188-16.507812-11.382813-29.644531-21.988281-39.183594v-12.691406c0-17.777344-14.457032-32.246094-32.222657-32.246094h-19.933593c-17.78125 0-32.25 14.464844-32.25 32.246094v6.355469c-3.488282 2.386719-6.308594 5.09375-8.257813 8.023437h-61.304687c-4.171876 0-7.550782 3.386719-7.550782 7.558594 0 4.175781 3.378906 7.558594 7.550782 7.558594h58.492187v12.707031c0 7.007813-5.707031 12.707031-12.726563 12.707031h-125.542968c-7 0-12.695313-5.699218-12.695313-12.707031v-12.707031h56.453125c4.167969 0 7.550782-3.382813 7.550782-7.558594 0-4.171875-3.382813-7.558594-7.550782-7.558594h-59.324218c-1.945313-2.851562-4.753907-5.503906-8.203126-7.859375v-5.300781c0-17.796875-14.464843-32.273438-32.246093-32.273438h-19.9375c-17.78125 0-32.246094 14.476563-32.246094 32.273438v11.496094c-10.589844 9.535156-17.96875 22.664062-21.957031 39.144531l-.347656 1.429687c-11.445313.757813-30.507813 12.425782-50.195313 52.894532-11.121094 22.871094-14.929687 49.851562-11.324219 80.203125 2.335938 19.683593 7.789063 41.007812 16.609375 64.992187-3.765625 3.238282-6.164062 8.03125-6.164062 13.378906v83.472657c0 9.730469 7.910156 17.644531 17.632812 17.644531h85.613281c9.722657 0 17.632813-7.914062 17.632813-17.644531v-76.699219c0-10.941406-7.226563-20.230469-17.160156-23.324219 7.226562-5.554687 12.558593-12.566406 15.542969-20.53125l15.410156-41.050781c1.40625-3.757812 2.550781-5 2.9375-5.335938.359375.082032 1.28125.394532 2.882812 1.558594 10.621094 9.644532 24.511719 14.410156 38.695313 14.410156 14.945312 0 30.222656-5.300781 42.316406-15.753906h45.71875c23.570313 20.378906 59.199219 21.152344 81.011719 1.34375 1.589844-1.15625 2.507812-1.472656 2.871094-1.558594.394531.34375 1.539062 1.59375 2.949218 5.34375l15.378906 41.042969c2.984376 7.957031 8.328126 14.96875 15.574219 20.53125-9.929687 3.097657-17.160156 12.382813-17.160156 23.324219v76.699219c0 9.730469 7.910156 17.648437 17.636719 17.648437h85.582031c9.722656 0 17.632813-7.917968 17.632813-17.648437v-83.472657c0-5.339843-2.390626-10.121093-6.144532-13.359374zm-8.351562-138.691407c16.375 34.820313 14.367187 78.824219-6.160156 134.402344h-67.390626c.042969-.570313.09375-1.136719.140626-1.707031.003906-.066406.011718-.132813.015624-.199219 1.332032-15.429687 5-31.148437 10.277344-43.503906 5.886719-13.726563 4.023438-17.910157-5.953125-26.15625-9.746093-8.066407-18.441406-17.378907-16.121093-30.734375.84375-4.8125 3.160156-8.574219 6.046874-9.820313 2.933594-1.265625 6.394532.351563 8.777344 1.925781l14.410156 9.523438c9.546876 6.3125 20.914063 6.746094 28.960938 1.09375 6.996094-4.910156 10-13.53125 7.835938-22.5l-13.371094-55.214844c6.832031 3.523438 19.125 14.351563 32.53125 42.890625zm-111.035156-129.835937h19.9375c9.4375 0 17.113281 7.683594 17.113281 17.128906v2.617188c-9.199219-4.382813-19.609375-6.6875-30.648438-6.71875-.078125 0-.15625 0-.238281 0-8.273438 0-16.234375 1.238281-23.273438 3.402343.375-9.121093 7.894532-16.429687 17.109376-16.429687zm-274.6875 18.347656c0-9.460938 7.691406-17.15625 17.144531-17.15625h19.9375c8.832031 0 16.121093 6.71875 17.039062 15.320312-7.074219-2.210937-15.046875-3.484374-23.230469-3.484374-.089843 0-.1875 0-.277343 0-11.027344.039062-21.425781 2.347656-30.613281 6.730468zm-74.023438 111.582031c13.535156-27.820312 25.671875-38.875 32.53125-42.703125l-13.300781 54.9375c-2.164063 8.960938.839843 17.582032 7.835937 22.496094 8.046875 5.648438 19.410156 5.21875 28.953125-1.09375l14.417969-9.523438c2.386719-1.578124 5.847656-3.191406 8.777344-1.925781 2.878906 1.246094 5.183594 5.003907 6.015625 9.808594 2.328125 13.40625-6.367188 22.695313-16.113281 30.742187h-.003907c-9.953125 8.226563-11.816406 12.40625-5.957031 26.148438 5.519531 12.921875 9.277344 29.433594 10.445312 45.417969h-67.375c-20.78125-56.214844-22.8125-100.191407-6.226562-134.304688zm91.320312 158.730469v76.699219c0 1.371093-1.160156 2.53125-2.53125 2.53125h-85.609374c-1.375 0-2.53125-1.160157-2.53125-2.53125v-83.472657c0-1.375 1.15625-2.535156 2.53125-2.535156h78.839843c5.128907 0 9.300781 4.175782 9.300781 9.308594zm277.800782-49.164062-15.382813-41.054688c-1.136719-3.011719-4.585937-12.183594-12.886719-14.601562-5.148437-1.496094-10.667968-.066407-16.414062 4.25-.203125.152343-.398438.316406-.585938.488281-16.761718 15.46875-45.007812 14.132812-62.964843-2.976563-1.40625-1.339844-3.269531-2.085937-5.207031-2.085937h-51.542969c-1.9375 0-3.804688.746093-5.207031 2.085937-17.957032 17.109375-46.203126 18.445313-62.964844 2.976563-.1875-.171875-.382813-.335938-.585938-.488281-5.753906-4.324219-11.285156-5.75-16.441406-4.242188-8.316406 2.433594-11.742188 11.597656-12.863281 14.601562l-15.40625 41.042969c-.960938 2.5625-2.324219 4.980469-4.023438 7.242188-2.066406-12.144531-5.363281-23.929688-9.601562-33.855469-1.09375-2.566406-1.769531-4.355469-2.015625-5.339844.777344-.796875 2.371094-2.113281 3.699218-3.214844 7.644532-6.308593 25.535157-21.078124 21.382813-44.980468-1.714844-9.914063-7.285156-17.804688-14.902344-21.097656-7.125-3.082032-15.324219-1.953126-23.09375 3.183593l-14.417969 9.523438c-4.925781 3.261719-9.554687 3.019531-11.953124 1.332031-2.414063-1.695312-2.328126-4.507812-1.832032-6.566406l15.234375-62.910156c.011719-.046876.015625-.09375.027344-.140626l2.46875-10.105468c3.847656-15.910156 10.875-26.234375 18.90625-32.890625.464844-.300781.902344-.648438 1.289063-1.039063 11.125-8.574218 23.921874-10.460937 32.855468-10.492187h.234375c11.316407 0 20.933594 2.902343 27.152344 6.183593.097656.058594.199219.113282.300781.164063 3.710938 2 6.148438 4.125 6.945313 5.8125v19.03125c0 15.339844 12.472656 27.824219 27.800781 27.824219h125.542969c15.34375 0 27.828125-12.484375 27.828125-27.824219v-19.035156c.785156-1.671875 3.1875-3.773438 6.839844-5.757813.164062-.082031.324218-.167968.484374-.261718 6.214844-3.261719 15.792969-6.136719 27.0625-6.136719h.191407c8.921875.027343 21.695312 1.890625 32.8125 10.417969.4375.449218.925781.84375 1.460937 1.175781 8.003906 6.660156 14.996094 16.972656 18.835938 32.835937l2.488281 10.21875v.003906l15.234375 62.914063c.5 2.066406.585938 4.878906-1.828125 6.578125-2.402344 1.683594-7.03125 1.925781-11.960937-1.335938l-14.414063-9.523437c-7.757813-5.128906-15.953125-6.265625-23.078125-3.191406-7.621094 3.289062-13.207031 11.171875-14.945312 21.097656-4.144532 23.859375 13.738281 38.664063 21.375 44.988281 0 0 .003906 0 .003906.003906 1.335937 1.101563 2.933594 2.421876 3.714844 3.21875-.25.984376-.929688 2.769532-2.027344 5.328126-4.226563 9.902343-7.523438 21.695312-9.589844 33.863281-1.707031-2.257813-3.078125-4.679688-4.035156-7.238281zm90.019531 125.863281c0 1.371093-1.160156 2.53125-2.53125 2.53125h-85.582031c-1.371094 0-2.53125-1.160157-2.53125-2.53125v-76.699219c0-5.132812 4.171875-9.308594 9.300781-9.308594h78.816406c1.371094 0 2.527344 1.160156 2.527344 2.535156zm0 0"/><path d="m146.019531 191.402344h-15.246093v-15.234375c0-4.171875-3.382813-7.554688-7.554688-7.554688-4.167969 0-7.550781 3.382813-7.550781 7.554688v15.234375h-15.21875c-4.171875 0-7.550781 3.382812-7.550781 7.554687 0 4.175781 3.378906 7.558594 7.550781 7.558594h15.21875v15.261719c0 4.171875 3.382812 7.554687 7.550781 7.554687 4.171875 0 7.554688-3.382812 7.554688-7.554687v-15.261719h15.246093c4.167969 0 7.550781-3.382813 7.550781-7.558594 0-4.171875-3.382812-7.554687-7.550781-7.554687zm0 0"/><path d="m409.820312 205.894531c4.167969 0 7.550782-3.386719 7.550782-7.558593v-.144532c0-4.171875-3.382813-7.554687-7.550782-7.554687-4.171874 0-7.554687 3.382812-7.554687 7.554687v.144532c.003906 4.171874 3.382813 7.558593 7.554687 7.558593zm0 0"/><path d="m386.539062 182.734375h.171876c4.171874 0 7.550781-3.382813 7.550781-7.554687 0-4.175782-3.378907-7.558594-7.550781-7.558594h-.171876c-4.167968 0-7.550781 3.382812-7.550781 7.558594 0 4.171874 3.382813 7.554687 7.550781 7.554687zm0 0"/><path d="m386.710938 229.019531c4.171874 0 7.550781-3.382812 7.550781-7.554687 0-4.175782-3.378907-7.558594-7.550781-7.558594h-.171876c-4.167968 0-7.550781 3.382812-7.550781 7.558594 0 4.171875 3.382813 7.554687 7.550781 7.554687zm0 0"/><path d="m238.679688 208.292969h-9.683594c-4.171875 0-7.550782 3.386719-7.550782 7.558593 0 4.175782 3.378907 7.558594 7.550782 7.558594h9.683594c4.171874 0 7.554687-3.382812 7.554687-7.558594 0-4.171874-3.382813-7.558593-7.554687-7.558593zm0 0"/><path d="m283.230469 208.292969h-9.660157c-4.167968 0-7.550781 3.386719-7.550781 7.558593 0 4.175782 3.382813 7.558594 7.550781 7.558594h9.660157c4.167969 0 7.550781-3.382812 7.550781-7.558594 0-4.171874-3.382812-7.558593-7.550781-7.558593zm0 0"/><path d="m263.519531 243.183594h-9.660156c-4.167969 0-7.550781 3.386718-7.550781 7.558594 0 4.175781 3.382812 7.558593 7.550781 7.558593h9.660156c4.167969 0 7.550781-3.382812 7.550781-7.558593 0-4.175782-3.382812-7.558594-7.550781-7.558594zm0 0"/><path d="m363.882812 190.636719c-4.167968 0-7.550781 3.382812-7.550781 7.558593v.140626c0 4.175781 3.382813 7.558593 7.550781 7.558593 4.171876 0 7.554688-3.382812 7.554688-7.558593v-.140626c0-4.175781-3.382812-7.558593-7.554688-7.558593zm0 0"/><path d="m192.546875 226.488281c-17.046875 0-30.914063 13.882813-30.914063 30.941407 0 17.0625 13.871094 30.941406 30.914063 30.941406 17.046875 0 30.917969-13.878906 30.917969-30.941406 0-17.058594-13.871094-30.941407-30.917969-30.941407zm0 46.769531c-8.71875 0-15.8125-7.101562-15.8125-15.828124 0-8.726563 7.09375-15.824219 15.8125-15.824219s15.8125 7.097656 15.8125 15.824219c0 8.726562-7.09375 15.828124-15.8125 15.828124zm0 0"/><path d="m320.609375 226.488281c-17.046875 0-30.914063 13.882813-30.914063 30.941407 0 17.0625 13.867188 30.941406 30.914063 30.941406s30.917969-13.878906 30.917969-30.941406c0-17.058594-13.871094-30.941407-30.917969-30.941407zm0 46.769531c-8.71875 0-15.8125-7.101562-15.8125-15.828124 0-8.726563 7.09375-15.824219 15.8125-15.824219 8.722656 0 15.816406 7.097656 15.816406 15.824219 0 8.726562-7.09375 15.828124-15.816406 15.828124zm0 0"/></svg>