<svg height="512pt" viewBox="-51 0 512 512" width="512pt" xmlns="http://www.w3.org/2000/svg"><path d="m263.296875 468.328125h.113281c4.179688 0 7.570313-3.386719 7.570313-7.570313 0-4.179687-3.390625-7.570312-7.570313-7.570312h-.113281c-4.183594 0-7.570313 3.390625-7.570313 7.570312 0 4.183594 3.386719 7.570313 7.570313 7.570313zm0 0"/><path d="m246.125 450.816406c4.179688 0 7.570312-3.390625 7.570312-7.570312v-.113282c0-4.183593-3.390624-7.570312-7.570312-7.570312s-7.570312 3.390625-7.570312 7.570312v.113282c0 4.183594 3.390624 7.570312 7.570312 7.570312zm0 0"/><path d="m280.921875 450.816406c4.179687 0 7.570313-3.390625 7.570313-7.570312v-.113282c0-4.183593-3.390626-7.570312-7.570313-7.570312-4.183594 0-7.570313 3.390625-7.570313 7.570312v.113282c0 4.183594 3.386719 7.570312 7.570313 7.570312zm0 0"/><path d="m205.464844 451.382812h3.257812c4.179688 0 7.570313-3.390624 7.570313-7.570312s-3.390625-7.570312-7.570313-7.570312h-3.257812c-4.183594 0-7.570313 3.390624-7.570313 7.570312s3.386719 7.570312 7.570313 7.570312zm0 0"/><path d="m177.695312 451.382812h3.257813c4.183594 0 7.574219-3.390624 7.574219-7.570312s-3.390625-7.570312-7.574219-7.570312h-3.257813c-4.179687 0-7.570312 3.390624-7.570312 7.570312s3.390625 7.570312 7.570312 7.570312zm0 0"/><path d="m111.414062 430.070312v5.492188h-5.460937c-4.183594 0-7.570313 3.390625-7.570313 7.570312 0 4.179688 3.386719 7.570313 7.570313 7.570313h5.460937v5.464844c0 4.179687 3.390626 7.570312 7.570313 7.570312s7.570313-3.390625 7.570313-7.570312v-5.464844h5.492187c4.183594 0 7.570313-3.390625 7.570313-7.570313 0-4.183593-3.386719-7.570312-7.570313-7.570312h-5.492187v-5.492188c0-4.183593-3.390626-7.574218-7.570313-7.574218s-7.570313 3.390625-7.570313 7.574218zm0 0"/><path d="m359.039062 37.71875h-309.078124c-6.578126 0-11.933594 5.355469-11.933594 11.933594v167.792968c0 6.582032 5.355468 11.9375 11.933594 11.9375h309.082031c6.578125 0 11.933593-5.355468 11.933593-11.9375v-167.792968c0-6.578125-5.355468-11.933594-11.9375-11.933594zm-3.207031 176.519531h-302.664062v-161.378906h302.667969v161.378906zm0 0"/><path d="m231.871094 100.234375c-4.179688 0-7.570313 3.386719-7.570313 7.570313v.621093c0 4.183594 3.390625 7.570313 7.570313 7.570313 4.183594 0 7.570312-3.386719 7.570312-7.570313v-.621093c0-4.183594-3.386718-7.570313-7.570312-7.570313zm0 0"/><path d="m267.554688 108.425781v-.621093c0-4.183594-3.390626-7.570313-7.574219-7.570313-4.179688 0-7.570313 3.386719-7.570313 7.570313v.621093c0 4.183594 3.390625 7.570313 7.570313 7.570313 4.183593 0 7.574219-3.386719 7.574219-7.570313zm0 0"/><path d="m195.035156 170.777344h2.488282v10.421875c0 6.769531 5.496093 12.277343 12.25 12.277343h72.308593c6.753907 0 12.246094-5.507812 12.246094-12.277343v-10.421875h2.488281c6.613282 0 11.992188-5.378906 11.992188-11.992188v-20.828125c0-9.503906-6.039063-17.617187-14.476563-20.714843v-2.496094c0-26.691406-21.714843-48.40625-48.402343-48.40625-26.691407 0-48.402344 21.714844-48.402344 48.40625v2.496094c-8.441406 3.097656-14.480469 11.210937-14.480469 20.714843v20.828125c0 6.613282 5.378906 11.992188 11.988281 11.992188zm84.816406-32.820313c0-3.8125 3.097657-6.910156 6.90625-6.910156 3.808594 0 6.90625 3.097656 6.90625 6.910156v17.679688h-13.8125zm-67.183593 32.820313h2.488281c6.609375 0 11.992188-5.378906 11.992188-11.992188v-20.828125c0-9.503906-6.039063-17.617187-14.480469-20.714843v-2.496094c0-18.34375 14.921875-33.265625 33.261719-33.265625 18.335937 0 33.257812 14.921875 33.257812 33.265625v2.496094c-8.441406 3.097656-14.476562 11.210937-14.476562 20.714843v20.828125c0 6.613282 5.378906 11.992188 11.988281 11.992188h2.488281v7.558594h-66.519531zm-14.480469-32.820313c0-3.8125 3.097656-6.910156 6.910156-6.910156 3.808594 0 6.90625 3.097656 6.90625 6.910156v17.679688h-13.816406zm0 0"/><path d="m130.660156 158.703125c24.5 0 44.433594-19.933594 44.433594-44.4375s-19.933594-44.4375-44.433594-44.4375c-24.503906 0-44.4375 19.933594-44.4375 44.4375.003906 24.503906 19.933594 44.4375 44.4375 44.4375zm-21.195312-52.007813h-7.101563c2.699219-10.082031 10.648438-18.03125 20.726563-20.730468v7.101562c0 4.183594 3.386718 7.574219 7.570312 7.574219 4.179688 0 7.570313-3.390625 7.570313-7.574219v-7.101562c10.078125 2.699218 18.027343 10.648437 20.722656 20.730468h-7.128906c-4.179688 0-7.570313 3.390626-7.570313 7.570313s3.390625 7.570313 7.570313 7.570313h7.128906c-2.695313 10.078124-10.644531 18.027343-20.722656 20.730468v-7.105468c0-4.179688-3.390625-7.570313-7.570313-7.570313-4.183594 0-7.570312 3.390625-7.570312 7.570313v7.105468c-10.078125-2.699218-18.027344-10.652344-20.726563-20.730468h7.101563c4.179687 0 7.570312-3.390626 7.570312-7.570313s-3.390625-7.570313-7.570312-7.570313zm0 0"/><path d="m130.660156 121.835938c4.179688 0 7.570313-3.390626 7.570313-7.570313v-.171875c0-4.179688-3.390625-7.570312-7.570313-7.570312-4.183594 0-7.570312 3.390624-7.570312 7.570312v.171875c0 4.179687 3.386718 7.570313 7.570312 7.570313zm0 0"/><path d="m378.734375 0h-348.464844c-16.691406 0-30.269531 13.578125-30.269531 30.269531v206.53125c0 16.707031 13.578125 30.296875 30.269531 30.296875h107.039063l-11.820313 19.742188h-23.105469c-10.671874 0-19.742187 6.960937-22.925781 16.578125h-31.820312c-21.859375 0-33.300781 14.71875-33.304688 29.257812-.007812 14.546875 11.429688 29.28125 33.296875 29.300781l75.210938.085938h38.167968c10.652344 0 19.710938 6.941406 22.902344 16.539062h-61.78125c-36.78125 0-66.703125 29.925782-66.703125 66.710938 0 36.773438 29.921875 66.6875 66.703125 66.6875 20.886719 0 40.402344-9.738281 52.996094-26.242188h35.179688c12.589843 16.503907 32.105468 26.242188 52.992187 26.242188 36.765625 0 66.675781-29.914062 66.675781-66.683594 0-36.789062-29.910156-66.714844-66.675781-66.714844h-63.757813c-3.550781-18.035156-19.472656-31.679687-38.53125-31.679687h-38.160156l-75.203125-.085937c-12.554687-.011719-18.175781-7.117188-18.171875-14.152344.003906-7.03125 5.621094-14.121094 18.164063-14.121094h31.820312c3.183594 9.617188 12.253907 16.578125 22.925781 16.578125h204.265626c13.316406 0 24.148437-10.832031 24.148437-24.148437 0-13.316407-10.832031-24.148438-24.148437-24.148438h-23.132813l-11.800781-19.742188h107.019531c16.703125 0 30.296875-13.59375 30.296875-30.296874v-206.535157c0-16.691406-13.59375-30.269531-30.296875-30.269531zm-186.582031 393.742188c.1875.015624.371094.03125.5625.03125.1875 0 .375-.015626.558594-.03125h70.023437c28.414063 0 51.535156 23.136718 51.535156 51.574218 0 28.417969-23.121093 51.542969-51.535156 51.542969-17.207031 0-33.214844-8.554687-42.816406-22.886719-1.40625-2.097656-3.765625-3.355468-6.289063-3.355468h-42.957031c-2.523437 0-4.882813 1.257812-6.289063 3.355468-9.601562 14.332032-25.609374 22.886719-42.816406 22.886719-28.429687 0-51.5625-23.121094-51.5625-51.542969 0-28.4375 23.132813-51.570312 51.5625-51.570312h70.023438zm87.0625-91.757813h.011718.015626 27.40625c4.964843 0 9.003906 4.039063 9.003906 9.007813 0 4.964843-4.039063 9.003906-9.003906 9.003906h-204.265626c-4.96875 0-9.007812-4.039063-9.007812-9.003906 0-4.96875 4.039062-9.007813 9.007812-9.007813h27.375.015626.015624 57.144532c4.179687 0 7.570312-3.390625 7.570312-7.570313 0-4.183593-3.390625-7.570312-7.570312-7.570312h-43.796875l11.820312-19.742188h99.113281l11.804688 19.742188h-44.34375c-4.179688 0-7.570312 3.386719-7.570312 7.570312 0 4.179688 3.390624 7.570313 7.570312 7.570313zm114.671875-65.183594c0 8.355469-6.796875 15.15625-15.152344 15.15625h-348.464844c-8.339843 0-15.125-6.800781-15.125-15.15625v-206.53125c0-8.339843 6.785157-15.128906 15.125-15.128906h348.464844c8.355469 0 15.152344 6.789063 15.152344 15.128906zm0 0"/><path d="m263.296875 433.191406h.113281c4.179688 0 7.570313-3.390625 7.570313-7.570312 0-4.183594-3.390625-7.570313-7.570313-7.570313h-.113281c-4.183594 0-7.570313 3.386719-7.570313 7.570313 0 4.179687 3.386719 7.570312 7.570313 7.570312zm0 0"/></svg>