<svg height="512pt" viewBox="0 -6 512.00035 512" width="512pt" xmlns="http://www.w3.org/2000/svg"><path d="m509.085938 91.886719c-3.277344-2.535157-7.988282-1.929688-10.519532 1.347656l-233.160156 301.71875h-18.8125l-233.160156-301.71875c-2.53125-3.277344-7.238282-3.882813-10.519532-1.347656-3.277343 2.53125-3.878906 7.242187-1.347656 10.519531l211.628906 273.859375-171.726562-134.761719c-3.257812-2.558594-7.972656-1.988281-10.53125 1.269532-2.554688 3.257812-1.988281 7.972656 1.273438 10.53125l180.5 141.648437h-96.710938c-23.277344 0-44.320312 14.609375-52.671875 36.035156h-11.925781c-9.648438 0-17.5 7.851563-17.5 17.5v35c0 9.648438 7.851562 17.5 17.5 17.5h96.335937c4.144531 0 7.5-3.359375 7.5-7.5s-3.355469-7.5-7.5-7.5h-96.335937c-1.378906 0-2.5-1.121093-2.5-2.5v-35c0-1.378906 1.121094-2.5 2.5-2.5h409.195312c1.378906 0 2.5 1.121094 2.5 2.5v35c0 1.378907-1.121094 2.5-2.5 2.5h-278.335937c-4.140625 0-7.5 3.359375-7.5 7.5s3.359375 7.5 7.5 7.5h278.335937c9.648438 0 17.5-7.851562 17.5-17.5v-35c0-9.648437-7.851562-17.5-17.5-17.5h-11.929687c-8.398438-21.683593-29.152344-36.035156-52.667969-36.035156h-96.707031l180.5-141.648437c3.257812-2.558594 3.828125-7.273438 1.269531-10.53125-2.558594-3.257813-7.269531-3.824219-10.53125-1.269532l-171.726562 134.761719 211.628906-273.859375c2.535156-3.277344 1.929687-7.988281-1.347656-10.519531zm-76.957032 339.101562h-352.21875c7.269532-12.722656 21.042969-21.035156 36.089844-21.035156h280c15.226562 0 28.882812 8.1875 36.128906 21.035156zm0 0"/><path d="m97.5 462.453125v7c0 4.140625 3.359375 7.5 7.5 7.5s7.5-3.359375 7.5-7.5v-7c0-4.144531-3.359375-7.5-7.5-7.5s-7.5 3.355469-7.5 7.5zm0 0"/><path d="m71.5 462.453125v7c0 4.140625 3.359375 7.5 7.5 7.5s7.5-3.359375 7.5-7.5v-7c0-4.144531-3.359375-7.5-7.5-7.5s-7.5 3.355469-7.5 7.5zm0 0"/><path d="m440.5 469.453125v-7c0-4.144531-3.359375-7.5-7.5-7.5-3.972656 0-7.226562 3.089844-7.484375 7h-287.03125c-.257813-3.910156-3.507813-7-7.484375-7-4.140625 0-7.5 3.355469-7.5 7.5v7c0 4.140625 3.359375 7.5 7.5 7.5h302c4.144531 0 7.5-3.359375 7.5-7.5zm0 0"/><path d="m141.769531 57.496094c-13.457031 18.070312-22.355469 38.917968-26.054687 61.230468h-5.441406c-6.890626 0-12.5 5.605469-12.5 12.5v22c0 6.890626 5.609374 12.5 12.5 12.5h5.445312c11.316406 68.039063 70.722656 118.726563 140.28125 118.726563 9.515625 0 18.972656-.953125 28.226562-2.816406.558594 6.375 5.921876 11.398437 12.441407 11.398437h22c6.894531 0 12.5-5.609375 12.5-12.5v-17.574218c8.507812-5.308594 16.476562-11.515626 23.695312-18.503907 2.976563-2.878906 3.058594-7.625.175781-10.601562-2.878906-2.980469-7.625-3.058594-10.601562-.179688-5.667969 5.484375-11.851562 10.429688-18.417969 14.769531-2.066406-1.507812-4.601562-2.410156-7.351562-2.410156h-22c-6.890625 0-12.5 5.605469-12.5 12.5v7.78125c-9.195313 2.078125-18.648438 3.136719-28.167969 3.136719-9.179688 0-18.15625-.992187-26.828125-2.871094v-16.988281h47.15625c4.144531 0 7.5-3.359375 7.5-7.5v-30c0-4.140625-3.355469-7.5-7.5-7.5h-9.15625v-18.339844h68.496094c4.144531 0 7.5-3.359375 7.5-7.5v-24.5h39.480469c-1.800782 19.027344-7.835938 37.421875-17.746094 53.785156-2.148438 3.542969-1.011719 8.15625 2.527344 10.300782 1.214843.738281 2.554687 1.085937 3.878906 1.085937 2.539062 0 5.011718-1.285156 6.421875-3.613281 13.40625-22.136719 20.496093-47.582031 20.496093-73.585938 0-19.328124-3.796874-37.972656-11.265624-55.53125 2.476562-2.285156 4.039062-5.546874 4.039062-9.171874v-22c0-6.894532-5.609375-12.5-12.5-12.5h-20.621094c-10.128906-10.402344-21.703125-19.171876-34.457031-26.050782-3.640625-1.964844-8.191406-.601562-10.160156 3.042969s-.605469 8.195313 3.039062 10.160156c10.441407 5.632813 20.011719 12.675781 28.507813 20.964844-.515625 1.367187-.808594 2.839844-.808594 4.382813v22c0 6.894531 5.605469 12.5 12.5 12.5h15.546875c7.011719 15.535156 10.75 32.070312 11.136719 49.234374h-47.515625c-4.140625 0-7.5 3.355469-7.5 7.5v24.496094h-68.496094c-4.144531 0-7.5 3.359375-7.5 7.5v33.34375c0 4.140625 3.355469 7.5 7.5 7.5h9.15625v15h-47.15625c-4.144531 0-7.5 3.355469-7.5 7.496094v20.261719c-28.8125-10.074219-53.128906-30.257813-68.355469-56.519531h27.855469c4.140625 0 7.5-3.359376 7.5-7.5v-25.84375h40.5c4.140625 0 7.5-3.355469 7.5-7.5v-19.160157h78.496094c4.144531 0 7.5-3.355469 7.5-7.5v-35.339843c0-4.140626-3.355469-7.5-7.5-7.5h-17.839844v-27.15625c0-4.144532-3.355469-7.5-7.5-7.5h-39.15625v-45.179688c4.234375-.417969 8.511719-.65625 12.828125-.65625 10.09375 0 20.164062 1.195312 29.933594 3.550781 4.03125.972657 8.078125-1.507812 9.046875-5.535156.972656-4.027344-1.503907-8.078125-5.53125-9.046875-10.917969-2.632812-22.171875-3.96875-33.449219-3.96875-27.390625 0-53.496094 7.621094-76.246094 22.140625-.691406-6.246094-5.996094-11.121094-12.417968-11.121094h-22c-6.894532 0-12.5 5.609375-12.5 12.5v22c0 5.65625 3.773437 10.4375 8.933593 11.976563zm157.398438 203.539062h17v17h-17zm59.832031-203.011718h17v17h-17zm-246.226562 75.703124h17v17h-17zm122.898437-57.890624h39.15625v27.15625c0 4.144531 3.359375 7.5 7.5 7.5h17.839844v20.339843h-78.496094c-4.144531 0-7.5 3.359375-7.5 7.5v19.160157h-40.5c-4.144531 0-7.5 3.359374-7.5 7.5v25.839843h-27.773437c-3.304688-7.976562-5.820313-16.375-7.453126-25.105469h1.328126c6.894531 0 12.5-5.605468 12.5-12.5v-22c0-6.894531-5.605469-12.5-12.5-12.5h-1.3125c4.199218-22.5625 14.367187-43.375 29.695312-60.703124h6.675781c6.894531 0 12.5-5.609376 12.5-12.5v-5.183594c14.558594-10.910156 30.925781-18.425782 48.335938-22.289063v50.285157c.003906 4.140624 3.359375 7.5 7.503906 7.5zm-87.835937-49.8125h17v17h-17zm0 0"/><path d="m432.703125 121.230469c.074219.003906.144531.003906.214844.003906 4.042969 0 7.378906-3.21875 7.492187-7.289063l.011719-.398437c.117187-4.140625-3.144531-7.59375-7.285156-7.707031-4.148438-.117188-7.59375 3.144531-7.707031 7.285156l-.011719.398438c-.117188 4.136718 3.144531 7.589843 7.285156 7.707031zm0 0"/><path d="m433.210938 131.222656c-4.164063-.109375-7.589844 3.144532-7.707032 7.285156l-.011718.398438c-.117188 4.136719 3.144531 7.589844 7.285156 7.707031.074218 0 .144531.003907.214844.003907 4.046874 0 7.378906-3.222657 7.496093-7.289063l.007813-.398437c.117187-4.140626-3.144532-7.589844-7.285156-7.707032zm0 0"/><path d="m437.953125 125.972656c-.117187 4.140625 3.144531 7.589844 7.285156 7.707032l.398438.011718c.070312 0 .144531.003906.214843.003906 4.042969 0 7.378907-3.222656 7.492188-7.289062.117188-4.140625-3.144531-7.59375-7.285156-7.710938l-.398438-.007812c-4.15625-.117188-7.589844 3.144531-7.707031 7.285156zm0 0"/><path d="m419.855469 133.753906.398437.011719c.070313.003906.144532.003906.214844.003906 4.042969 0 7.378906-3.21875 7.492188-7.289062.117187-4.140625-3.144532-7.59375-7.285157-7.707031l-.398437-.011719c-4.167969-.132813-7.589844 3.144531-7.707032 7.285156-.117187 4.140625 3.144532 7.589844 7.285157 7.707031zm0 0"/><path d="m95.746094 58.417969c.070312 0 .144531.003906.214844.003906 4.042968 0 7.378906-3.222656 7.492187-7.289063l.011719-.398437c.117187-4.140625-3.144532-7.59375-7.285156-7.710937-4.144532-.128907-7.59375 3.148437-7.707032 7.289062l-.011718.398438c-.117188 4.136718 3.144531 7.589843 7.285156 7.707031zm0 0"/><path d="m103.527344 76.515625.011718-.398437c.117188-4.140626-3.144531-7.59375-7.285156-7.710938-4.164062-.117188-7.589844 3.148438-7.707031 7.289062l-.011719.398438c-.117187 4.136719 3.144532 7.589844 7.285156 7.707031.074219 0 .144532.003907.214844.003907 4.046875 0 7.378906-3.222657 7.492188-7.289063zm0 0"/><path d="m100.996094 63.15625c-.117188 4.140625 3.144531 7.59375 7.285156 7.710938l.398438.011718h.214843c4.042969 0 7.378907-3.21875 7.492188-7.289062.117187-4.140625-3.144531-7.589844-7.285157-7.707032l-.398437-.011718c-4.152344-.128906-7.589844 3.144531-7.707031 7.285156zm0 0"/><path d="m82.898438 70.941406.398437.011719h.214844c4.042969 0 7.378906-3.21875 7.492187-7.285156.117188-4.140625-3.144531-7.59375-7.285156-7.710938l-.398438-.011719c-4.136718-.117187-7.589843 3.148438-7.707031 7.289063-.117187 4.136719 3.144531 7.589844 7.285157 7.707031zm0 0"/></svg>