<svg id="Layer_5" enable-background="new 0 0 64 64" height="512" viewBox="0 0 64 64" width="512" xmlns="http://www.w3.org/2000/svg" xmlns:xlink="http://www.w3.org/1999/xlink"><linearGradient id="SVGID_1_" gradientUnits="userSpaceOnUse" x1="32" x2="32" y1="63" y2="1"><stop offset="0" stop-color="#9f2fff"/><stop offset="1" stop-color="#0bb1d3"/></linearGradient><path d="m60 39h-12.287c-1.25-.802-2.693-1.515-4.32-2.11l-.687 1.879c5.193 1.897 8.294 4.974 8.294 8.231 0 5.42-8.701 10-19 10s-19-4.58-19-10c0-3.225 3.053-6.284 8.166-8.184l-.696-1.875c-1.571.584-2.968 1.279-4.183 2.059h-12.287c-1.654 0-3 1.346-3 3v18c0 1.654 1.346 3 3 3h56c1.654 0 3-1.346 3-3v-18c0-1.654-1.346-3-3-3zm-7 8c0-2.155-.984-4.211-2.772-6h9.772c.551 0 1 .449 1 1v15h-17.246c5.613-2.132 9.246-5.778 9.246-10zm-49-6h9.776c-1.79 1.79-2.776 3.847-2.776 6 0 4.222 3.633 7.868 9.246 10h-17.246v-15c0-.551.449-1 1-1zm56 20h-56c-.551 0-1-.449-1-1v-1h58v1c0 .551-.449 1-1 1zm-37.377-20.586.631 1.897c-4.062 1.351-6.254 3.424-6.254 4.689 0 2.115 5.695 6 15 6s15-3.885 15-6c0-1.272-2.208-3.354-6.301-4.704l.627-1.899c4.662 1.538 7.674 4.13 7.674 6.603 0 3.784-6.981 8-17 8s-17-4.216-17-8c0-2.461 2.992-5.047 7.623-6.586zm5.461 6.987-7-16 1.832-.802 7 16zm14.832-16-7 16-1.832-.802 7-16zm-9.916 15.599h-2v-16h2zm-1-46c-7.72 0-14 6.28-14 14s6.28 14 14 14 14-6.28 14-14-6.28-14-14-14zm-12 14c0-.683.071-1.348.181-2h6.819c.551 0 1 .449 1 1s-.449 1-1 1h-1c-1.654 0-3 1.346-3 3s1.346 3 3 3h4c.551 0 1 .449 1 1s-.449 1-1 1h-6.919c-1.908-2.126-3.081-4.925-3.081-8zm12 12c-2.445 0-4.72-.739-6.619-2h4.619c1.654 0 3-1.346 3-3s-1.346-3-3-3h-4c-.551 0-1-.449-1-1s.449-1 1-1h1c1.654 0 3-1.346 3-3s-1.346-3-3-3h-6.3c1.653-4.653 6.087-8 11.3-8 2.445 0 4.72.739 6.619 2h-4.619c-1.654 0-3 1.346-3 3s1.346 3 3 3h3c.551 0 1 .449 1 1s-.449 1-1 1c-1.654 0-3 1.346-3 3s1.346 3 3 3h6.3c-1.653 4.653-6.087 8-11.3 8zm11.819-10h-6.819c-.551 0-1-.449-1-1s.449-1 1-1c1.654 0 3-1.346 3-3s-1.346-3-3-3h-3c-.551 0-1-.449-1-1s.449-1 1-1h6.919c1.908 2.126 3.081 4.925 3.081 8 0 .683-.071 1.348-.181 2zm13.181 36h2v2h-2zm-4 0h2v2h-2zm-42 2h-2v-2h2zm-4 0h-2v-2h2zm40.112-32.206 1.777.918c-.327.632-.693 1.252-1.089 1.844l-1.662-1.113c.354-.529.682-1.084.974-1.649zm-1.112-21.794c-1.654 0-3 1.346-3 3s1.346 3 3 3c.319 0 .621-.063.91-.156 1.366 2.492 2.09 5.279 2.09 8.156 0 2.129-.389 4.206-1.155 6.172l1.863.727c.857-2.199 1.292-4.52 1.292-6.899 0-3.318-.854-6.535-2.479-9.387.3-.467.479-1.018.479-1.613 0-1.654-1.346-3-3-3zm-1 3c0-.551.449-1 1-1s1 .449 1 1-.449 1-1 1-1-.449-1-1zm-28.112 3.206-1.777-.918c.327-.632.693-1.252 1.089-1.844l1.662 1.113c-.354.529-.682 1.084-.974 1.649zm-3.888 7.794c0 3.318.854 6.535 2.479 9.387-.3.467-.479 1.018-.479 1.613 0 1.654 1.346 3 3 3s3-1.346 3-3-1.346-3-3-3c-.319 0-.621.063-.91.156-1.366-2.492-2.09-5.279-2.09-8.156 0-2.129.389-4.206 1.155-6.172l-1.863-.727c-.857 2.199-1.292 4.52-1.292 6.899zm6 11c0 .551-.449 1-1 1s-1-.449-1-1 .449-1 1-1 1 .449 1 1z" fill="url(#SVGID_1_)"/></svg>