<?xml version="1.0" encoding="iso-8859-1"?>
<!-- Generator: Adobe Illustrator 19.0.0, SVG Export Plug-In . SVG Version: 6.00 Build 0)  -->
<svg version="1.1" id="Layer_1" xmlns="http://www.w3.org/2000/svg" xmlns:xlink="http://www.w3.org/1999/xlink" x="0px" y="0px"
	 viewBox="0 0 512 512" style="enable-background:new 0 0 512 512;" xml:space="preserve">
<path style="fill:#BCBEC0;" d="M349.277,261.33H309.36c-12.258,0-22.197-9.938-22.197-22.197c0-12.258,9.938-22.197,22.197-22.197
	h39.917c12.258,0,22.197,9.938,22.197,22.197C371.474,251.392,361.537,261.33,349.277,261.33z"/>
<path style="fill:#6D6E71;" d="M421.73,384.806h-72.452c-12.258,0-22.197-9.938-22.197-22.197V115.656
	c0-12.258,9.938-22.197,22.197-22.197h72.452c12.258,0,22.197,9.938,22.197,22.197V362.61
	C443.926,374.87,433.99,384.806,421.73,384.806z"/>
<path style="fill:#808285;" d="M223.441,291.936h-58.735c-12.258,0-22.197-9.938-22.197-22.197v-61.212
	c0-12.258,9.938-22.197,22.197-22.197h58.735c12.258,0,22.197,9.938,22.197,22.197v61.212
	C245.637,281.998,235.699,291.936,223.441,291.936z"/>
<path style="fill:#F59D00;" d="M233.799,320.451c-12.258,0-22.197-9.938-22.197-22.197V180.011c0-12.258,9.938-22.197,22.197-22.197
	c12.258,0,22.197,9.938,22.197,22.197v118.244C255.996,310.513,246.057,320.451,233.799,320.451z"/>
<path style="fill:#808285;" d="M421.73,512H90.273c-12.258,0-22.197-9.938-22.197-22.197v-63.598
	c0-12.258,9.938-22.197,22.197-22.197h331.458c12.258,0,22.197,9.938,22.197,22.197v63.598C443.926,502.062,433.99,512,421.73,512z"
	/>
<path style="fill:#6D6E71;" d="M421.73,404.009H256V512h165.73c12.258,0,22.197-9.938,22.197-22.197v-63.598
	C443.926,413.948,433.99,404.009,421.73,404.009z"/>
<path style="fill:#D1D3D4;" d="M485.333,29.862H167.997c-12.258,0-22.197,9.938-22.197,22.197v63.596
	c0-12.258,9.938-22.197,22.197-22.197h253.739c12.258,0,22.197,9.938,22.197,22.197v246.954c0,12.258-9.938,22.197-22.197,22.197
	H167.997c-12.258,0-22.197-9.938-22.197-22.197v-22.197H26.671c-12.258,0-22.197,9.938-22.197,22.197v63.598
	c0,12.258,9.938,22.197,22.197,22.197h458.662c12.258,0,22.197-9.938,22.197-22.197V52.058
	C507.53,39.8,497.591,29.862,485.333,29.862z"/>
<path style="fill:#BCBEC0;" d="M485.333,29.862H256v63.596h165.736c12.258,0,22.197,9.938,22.197,22.197v246.954
	c0,12.258-9.938,22.197-22.197,22.197H256v63.598h229.333c12.258,0,22.197-9.938,22.197-22.197V52.058
	C507.53,39.8,497.591,29.862,485.333,29.862z"/>
<path style="fill:#D1D3D4;" d="M168,291.929H26.667c-12.258,0-22.197-9.938-22.197-22.197V22.197C4.47,9.938,14.409,0,26.667,0H168
	c12.258,0,22.197,9.938,22.197,22.197v247.536C190.196,281.991,180.26,291.929,168,291.929z"/>
<g>
	<path style="fill:#808285;" d="M190.196,384.799H4.47V247.536h185.726V384.799z"/>
	<circle style="fill:#808285;" cx="97.335" cy="72.597" r="14.604"/>
	<circle style="fill:#808285;" cx="97.335" cy="121.593" r="14.604"/>
</g>
<g>
</g>
<g>
</g>
<g>
</g>
<g>
</g>
<g>
</g>
<g>
</g>
<g>
</g>
<g>
</g>
<g>
</g>
<g>
</g>
<g>
</g>
<g>
</g>
<g>
</g>
<g>
</g>
<g>
</g>
</svg>
