<svg height="512pt" viewBox="0 0 512.00063 512" width="512pt" xmlns="http://www.w3.org/2000/svg"><path d="m504.894531 385.660156c-46.71875-2.796875-56.410156-28.230468-67.628906-57.679687-11.664063-30.617188-24.863281-65.320313-86.277344-62.378907-.066406.003907-.132812.007813-.199219.015626-28.328124 2.117187-48.664062-8.730469-64.816406-29l57.785156-58.253907c6.234376-6.285156 11.132813-15.167969 12.78125-24.394531.023438-.097656.054688-.195312.074219-.296875.074219-.332031.113281-.664063.140625-.996094 1.078125-7.453125-.007812-15.0625-4.273437-21.648437l-75.195313-116.457032c-5.046875-7.785156-11.8125-12.65625-19.585937-14.117187-.015625-.003906-.03125-.007813-.050781-.011719-.023438-.003906-.046876-.007812-.070313-.011718-.074219-.011719-.144531-.03125-.21875-.042969-7.070313-1.230469-14.4375.492187-21.304687 4.972656l-116.902344 76.113281c-14.949219 9.726563-16.710938 30.957032-10.71875 46.90625l19.414062 51.578125c1.46875 3.914063 5.832032 5.886719 9.738282 4.414063 3.902343-1.476563 5.875-5.84375 4.402343-9.757813l-19.410156-51.570312c-1.429687-3.800781-2.214844-8.078125-2.230469-12.214844l101.40625 21.714844-34.5 161.773437c-.300781-.539062-.578125-1.101562-.800781-1.699218l-31.9375-84.777344c-1.476563-3.910156-5.835937-5.882813-9.742187-4.410156-3.902344 1.476562-5.875 5.847656-4.398438 9.761718l31.933594 84.761719c2.175781 5.804687 6.175781 10.542969 11.269531 13.601563l-6.253906 29.359374-17.953125-16.21875c-4.238282-3.847656-10.03125-5.082031-15.492188-3.304687-5.679687 1.847656-9.835937 6.585937-11.109375 12.644531l-4.304687 20.164063v.003906l-4.308594 20.1875c-1.296875 6.066406.566406 12.082031 4.980469 16.085937 4.25 3.851563 10.023437 5.109376 15.472656 3.355469l20.777344-6.730469c.085937-.027343.171875-.054687.257812-.082031-7.070312 16.464844-19.03125 30.933594-38.1875 46.355469l3.453125-17.246094c1.109375-5.617187-.800781-11.230468-5.113281-15.023437-4.484375-3.9375-10.667969-5.097657-16.542969-3.105469l-19.5 6.621094-19.480468 6.609375c-5.878907 1.980469-10.089844 6.664062-11.261719 12.53125-1.125 5.636719.765625 11.25 5.046875 15.011719l12.40625 10.949218-68.734375-1.59375c-.058594 0-.117188 0-.175781 0-4.09375 0-7.4570318 3.273438-7.55078175 7.394532-.09765625 4.179687 3.20703175 7.648437 7.37890575 7.746093l80.492188 1.863281-5.542969 27.800782c-1.113281 5.605468.796875 11.214844 5.109375 15.003906 3.039063 2.671875 6.855469 4.0625 10.820313 4.0625 1.882812 0 3.804687-.316406 5.6875-.957031l39.042969-13.214844c5.859374-1.996094 10.054687-6.683594 11.222656-12.539063 1.121094-5.628906-.757813-11.242187-5.039063-15.027343l-16.375-14.421875c-1.441406-1.273438-2.886719-2.535156-4.335937-3.800782-.066406-.058593-.132813-.117187-.199219-.175781 27.890625-20.796875 44.335937-40.300781 53.050781-63.351562l19.070313 17.25c2.957031 2.679687 6.671875 4.085937 10.503906 4.085937 1.644531 0 3.3125-.257812 4.949219-.785156 5.679687-1.839844 9.847656-6.5625 11.148437-12.644531l8.613281-40.351563c1.300782-6.082031-.574218-12.105468-5.015624-16.117187-4.265626-3.851563-10.050782-5.089844-15.46875-3.324219l-20.746094 6.730469c-.753906.246093-1.511719.496093-2.269532.742187l6.136719-28.804687c6.4375-.273438 12.597657-2.941407 17.285157-7.648438l59.710937-60.199219c16.851563 20.40625 38.710937 33.578126 68.671875 33.578126 2.570312 0 5.210938-.101563 7.902344-.296876 50.367187-2.390624 59.625 21.910157 71.339844 52.652344 11.429687 30.007813 24.386718 64.019532 80.84375 67.398438.152343.007812.308593.011718.457031.011718 3.96875 0 7.296875-3.097656 7.539062-7.121093.246094-4.171875-2.929687-7.757813-7.09375-8.007813zm-431.058593 41.074219c.054687-.289063.296874-.824219 1.269531-1.152344l19.5-6.617187 19.496093-6.617188c.726563-.246094 1.339844-.195312 1.726563.148438.332031.289062.277344.574218.257813.675781l-5.15625 25.765625c-.527344 2.59375-1.046876 5.183594-1.554688 7.769531-3.441406 2.136719-6.257812 3.152344-9.53125 3.421875-2.128906-1.882812-4.265625-3.761718-6.359375-5.589844l-19.449219-17.140624c-.089844-.082032-.28125-.25-.199218-.664063zm65.351562 54.894531c.085938.078125.289062.257813.203125.691406-.070313.363282-.347656.859376-1.253906 1.167969l-39.039063 13.210938c-.910156.3125-1.421875.089843-1.695312-.148438-.324219-.285156-.269532-.550781-.25-.65625l6.171875-30.945312c4.714843-.707031 8.628906-2.289063 12.09375-4.226563 1.035156.910156 2.070312 1.820313 3.113281 2.730469 1.425781 1.246094 2.855469 2.496094 4.285156 3.753906zm137.96875-257.605468c-13.8125-22.308594-24.570312-52.355469-35.4375-87.207032l26.339844 5.640625 26.847656 5.769531 44.769531 9.570313c-1.613281 3.703125-3.945312 7.175781-6.636719 9.890625zm62.640625-84.765626c.683594 1.0625 1.195313 2.207032 1.558594 3.410157l-43.285157-9.253907-26.84375-5.765624-31.535156-6.753907 21.746094-101.976562c1.296875 1.246093 2.355469 2.632812 3.167969 3.890625zm-212.410156-45.085937 116.90625-76.117187c.710937-.464844 1.421875-.855469 2.132812-1.210938l-21.515625 100.886719-100.003906-21.410157c.734375-.816406 1.554688-1.546874 2.480469-2.148437zm38.21875 276.929687c-1.625.53125-3.25 1.066407-4.871094 1.59375l-20.757813 6.722657c-.113281.039062-.375.121093-.695312-.167969-.222656-.199219-.558594-.683594-.34375-1.6875l8.617188-40.382812c.210937-.992188.710937-1.292969.992187-1.382813.398437-.128906.59375.042969.699219.140625l16.179687 14.597656 2.058594 1.878906c2.027344 1.855469 4.105469 3.742188 6.191406 5.625l-2.25 10.566407c-.046875.214843-.097656.429687-.144531.644531-1.914062.617188-3.8125 1.238281-5.675781 1.851562zm28.5625-11.75c1.617187-.53125 3.238281-1.0625 4.859375-1.585937l20.753906-6.738281c.121094-.039063.363281-.117188.683594.171875.226562.203125.570312.695312.355468 1.695312l-8.613281 40.355469c-.214843 1-.726562 1.308594-1.011719 1.398438-.398437.132812-.582031-.035157-.679687-.121094l-24.453125-22.128906c.046875-.210938.097656-.421876.144531-.632813l2.246094-10.550781c1.925781-.621094 3.839844-1.246094 5.714844-1.863282zm10.640625-62.390624c-.9375.941406-1.996094 1.671874-3.132813 2.203124l30.390625-142.515624c9.085938 28.296874 19.523438 56.238281 34.105469 78.449218zm0 0"/></svg>