<svg id="Layer_1" enable-background="new 0 0 512 512" height="512" viewBox="0 0 512 512" width="512" xmlns="http://www.w3.org/2000/svg"><path d="m451 263.213 5.295-5.295c15.932-15.932 24.705-37.114 24.705-59.644 0-36.695-24.17-69.132-60.144-80.715-10.959-3.528-20.975-9.26-29.856-17.057v-38.502h-30v38.502c-8.881 7.797-18.897 13.529-29.856 17.057-.048.016-.095.034-.144.049v-16.822l-60-60v-40.786h-30v40.787l-60 60v46.822c-.048-.016-.095-.034-.144-.049-10.959-3.528-20.975-9.26-29.856-17.057v-38.503h-30v38.502c-8.881 7.797-18.897 13.529-29.856 17.057-35.974 11.583-60.144 44.02-60.144 80.715 0 22.531 8.774 43.713 24.706 59.644l5.294 5.295v98.787h-30v120h450v-120h-30zm-60 128.787v30h-30v-30h-30v-120h90v120zm-50.661-245.884c12.954-4.171 24.9-10.561 35.661-19.062 10.761 8.501 22.707 14.891 35.661 19.062 23.53 7.576 39.339 28.537 39.339 52.159 0 14.517-5.653 28.166-15.918 38.431l-5.295 5.294h-107.573l-5.295-5.295c-10.266-10.265-15.919-23.913-15.919-38.431 0-23.621 15.809-44.582 39.339-52.158zm-84.339-77.903 45 45v8.787h-90v-8.787zm-45 83.787h74.125c-9.009 13.454-14.125 29.411-14.125 46.274 0 22.531 8.774 43.713 24.706 59.644l5.294 5.294v128.788h-30v30h-30v-30h-30v-98.787l5.295-5.295c15.932-15.932 24.705-37.114 24.705-59.644 0-25.112-11.324-48.226-30-64.031zm-110.661 24.116c12.954-4.171 24.9-10.561 35.661-19.062 10.761 8.501 22.707 14.891 35.661 19.062 23.53 7.576 39.339 28.537 39.339 52.159 0 14.517-5.653 28.166-15.918 38.431l-5.295 5.294h-107.573l-5.295-5.295c-10.266-10.265-15.919-23.913-15.919-38.431 0-23.621 15.809-44.582 39.339-52.158zm-9.339 125.884h90v90h-30v30h-30v-30h-30zm360 180h-390v-60h30v30h90v-30h30v30h90v-30h30v30h90v-30h30z"/><path d="m241 332h30v30h-30z"/><path d="m121 332h30v30h-30z"/><path d="m361 332h30v30h-30z"/></svg>