<svg height="512pt" viewBox="0 0 512 512" width="512pt" xmlns="http://www.w3.org/2000/svg"><path d="m257.875 399.808594c-.390625-19.179688-6.195312-37.535156-16.347656-51.6875-23.449219-32.6875-44.09375-41.714844-62.308594-49.679688l-2.515625-1.101562c-6.679687-2.9375-10.246094-8.917969-15.976563-19.230469-3.640624-6.550781-7.765624-13.972656-13.699218-20.824219-11.585938-13.371094-27.101563-19.996094-44.882813-19.175781-36.535156 1.707031-71.40625 34.488281-82.566406 50.09375l-.453125.660156c-27.199219 41.445313-18.773438 81.265625-14.246094 102.660157.53125 2.519531 1.035156 4.898437 1.402344 6.902343 1.164062 6.351563 1.628906 14.125 2.121094 22.355469 1.277344 21.394531 2.726562 45.640625 16.988281 65.308594 8.066406 11.121094 20.621094 19.183594 36.3125 23.316406 6.921875 1.820312 13.585937 2.59375 19.984375 2.59375 22.003906 0 40.785156-9.160156 55.378906-16.277344 9.9375-4.847656 19.46875-6.410156 30.503906-8.21875 9.113282-1.492187 19.445313-3.183594 30.742188-6.960937 19.980469-6.671875 34.410156-16.113281 44.117188-28.867188 10.363281-13.609375 15.847656-32.03125 15.445312-51.867187zm-47.265625 27.640625c-4.6875 6.15625-12.851563 11.117187-24.964844 15.164062-8.261719 2.757813-16.167969 4.054688-24.539062 5.425781-12.355469 2.023438-26.359375 4.316407-41.570313 11.738282-18.324218 8.9375-32.464844 14.949218-47.644531 10.953125-6.5625-1.730469-11.582031-4.613281-14.125-8.121094-7.410156-10.21875-8.441406-27.5-9.441406-44.210937-.539063-9.0625-1.097657-18.433594-2.699219-27.179688-.46875-2.542969-1.027344-5.183594-1.617188-7.976562-3.996093-18.875-9.457031-44.699219 8.328126-72.082032 9.308593-12.769531 34.394531-32.292968 51.675781-33.097656 5.460937-.253906 9.285156 1.363281 12.792969 5.414062 3.214843 3.714844 6.007812 8.738282 8.964843 14.058594 6.910157 12.4375 15.507813 27.910156 34.828125 36.410156l2.601563 1.140626c16.085937 7.035156 28.789062 12.589843 45.835937 36.347656 11.226563 15.652344 11.976563 42.351562 1.574219 56.015625zm21.011719-270.644531c-1.574219-4.203126-3.714844-7.492188-5.277344-9.890626-.542969-.832031-1.054688-1.621093-1.339844-2.136718-.980468-1.78125-1.859375-5.09375-2.710937-8.292969-2-7.542969-4.742188-17.871094-13.097657-26.242187-10.457031-10.472657-24.210937-13.734376-38.726562-9.175782-9.320312 2.925782-17.304688 8.523438-23.722656 13.019532-1.738282 1.21875-3.382813 2.371093-4.742188 3.246093-6.890625 4.429688-18.421875 11.839844-23.539062 25.289063-4.21875 11.085937-3.183594 23.847656 3 36.90625 6.269531 13.234375 15.664062 23.316406 27.164062 29.152344 8.644532 4.390624 17.53125 5.863281 24.667969 7.046874 3.609375.597657 7.996094 1.328126 12.875 1.328126 3.464844 0 7.175781-.367188 11.035156-1.410157 6.414063-1.730469 12.519531-5.167969 18.664063-10.511719 15.742187-13.683593 21.777344-32.203124 15.75-48.328124zm-41.988282 18.148437c-1.730468 1.503906-2.625 1.96875-2.863281 2.078125-1.285156.179688-4.941406-.429688-6.925781-.757812-4.894531-.8125-9.953125-1.652344-13.113281-3.253907-3.425781-1.742187-6.75-5.609375-9.121094-10.613281-1.40625-2.964844-1.699219-4.875-1.703125-5.609375 1.203125-1.632813 5.902344-4.65625 7.71875-5.824219 2.035156-1.304687 4.085938-2.742187 6.070312-4.136718 2.386719-1.671876 6.089844-4.265626 9.171876-6 1.355468-.757813 3.070312-.066407 3.519531 1.417968.457031 1.496094.894531 3.152344 1.25 4.488282 1.332031 5.011718 2.984375 11.246093 6.332031 17.320312 1 1.816406 2.035156 3.40625 2.863281 4.679688.25.382812.542969.832031.800781 1.242187-.53125 1.132813-1.796874 3.054687-4 4.96875zm322.359376 4.910156-28.277344-28.28125-129.644532 129.644531 28.277344 28.277344zm0-149.640625-28.277344-28.28125-260.957032 260.957032 28.28125 28.277343zm-145.667969-2.058594-28.390625-28.164062-91.234375 91.984375 28.390625 28.164063zm-40.355469 289.53125c-11.046875 0-20 8.953126-20 19.996094 0 11.046875 8.953125 20 20 20 11.042969 0 19.996094-8.953125 19.996094-20 0-11.042968-8.953125-19.996094-19.996094-19.996094zm0 0"/></svg>