<svg height="511pt" viewBox="-14 1 511 511.99937" width="511pt" xmlns="http://www.w3.org/2000/svg"><path d="m484.0625 263.003906c-1.617188-10.773437-7.332031-20.265625-16.085938-26.734375-7.074218-5.226562-15.445312-7.992187-24.207031-7.992187-12.898437 0-25.167969 6.1875-32.820312 16.546875l-1.566407 2.113281v-53.226562c0-21.847657-6.097656-43.199219-17.636718-61.75-11.542969-18.550782-28-33.460938-47.597656-43.117188l-23.265626-11.460938c-9.113281-4.492187-19.996093-4.492187-29.109374 0l-15.3125 7.542969c-9.476563-30.566406-30.917969-55.792969-59.949219-70.097656l-23.261719-11.453125c-9.113281-4.5-19.996094-4.5-29.105469-.003906l-23.269531 11.457031c-19.597656 9.660156-36.054688 24.570313-47.59375 43.121094s-17.636719 39.902343-17.636719 61.75v53.234375l-1.570312-2.121094c-7.652344-10.359375-19.921875-16.542969-32.816407-16.542969-8.773437 0-17.148437 2.761719-24.207031 7.984375-8.757812 6.46875-14.472656 15.964844-16.089843 26.738282-1.617188 10.773437 1.058593 21.527343 7.53125 30.289062l67.152343 90.855469v120.25c0 4.195312 3.402344 7.597656 7.597657 7.597656h120.03125v66.417969c0 4.195312 3.402343 7.597656 7.597656 7.597656h190.914062c4.199219 0 7.597656-3.402344 7.597656-7.597656v-120.261719l29.335938-39.695313c2.492188-3.375 1.777344-8.132812-1.597656-10.625-3.371094-2.496093-8.128906-1.78125-10.625 1.59375l-17.113282 23.15625v-86.070312l13.785157-18.648438c4.875-6.59375 12.382812-10.378906 20.601562-10.378906 5.488281 0 10.738281 1.734375 15.175781 5.019532 5.492188 4.054687 9.074219 10.007812 10.089844 16.769531 1.011719 6.757812-.664062 13.503906-4.722656 18.996093l-19.785156 26.761719c-2.492188 3.375-1.78125 8.132813 1.59375 10.625 1.359375 1.003907 2.941406 1.488281 4.511718 1.488281 2.328126 0 4.625-1.066406 6.113282-3.082031l19.78125-26.761719c6.476562-8.753906 9.148437-19.507812 7.535156-30.285156zm-463.351562-52.757812c-4.0625-5.492188-5.738282-12.242188-4.726563-19 1.015625-6.757813 4.601563-12.714844 10.101563-16.773438 4.425781-3.277344 9.675781-5.011718 15.171874-5.011718 8.214844 0 15.722657 3.785156 20.597657 10.382812l13.789062 18.652344v86.078125zm373.476562 286.558594h-175.71875v-165.960938c0-4.195312-3.402344-7.597656-7.597656-7.597656-4.195313 0-7.597656 3.402344-7.597656 7.597656v91.945312h-112.433594v-303.089843c0-19.007813 5.304687-37.585938 15.34375-53.726563 10.039062-16.140625 24.355468-29.113281 41.40625-37.515625l23.273437-11.457031c4.976563-2.457031 10.683594-2.457031 15.667969.003906l23.265625 11.453125c26.039063 12.832031 45.066406 35.765625 52.894531 63.480469-17.035156 9.617188-31.402344 23.339844-41.777344 40.023438-11.539062 18.550781-17.640624 39.902343-17.640624 61.75v106.742187c0 4.195313 3.402343 7.597656 7.597656 7.597656 4.199218 0 7.597656-3.402343 7.597656-7.597656v-106.742187c0-19.007813 5.308594-37.585938 15.347656-53.726563 10.039063-16.136719 24.355469-29.109375 41.40625-37.507813l23.265625-11.464843c4.910157-2.417969 10.769531-2.417969 15.679688 0l23.265625 11.464843c17.050781 8.398438 31.371094 21.371094 41.410156 37.507813 10.039062 16.140625 15.347656 34.71875 15.347656 53.726563v303.09375zm0 0"/><path d="m241.972656 425.523438c-4.195312 0-7.59375 3.398437-7.59375 7.597656v51.480468c0 4.195313 3.398438 7.597657 7.59375 7.597657 4.199219 0 7.597656-3.402344 7.597656-7.597657v-51.480468c0-4.199219-3.398437-7.597656-7.597656-7.597656zm0 0"/><path d="m370.683594 425.523438c-4.199219 0-7.597656 3.398437-7.597656 7.597656v51.480468c0 4.195313 3.398437 7.597657 7.597656 7.597657 4.195312 0 7.59375-3.402344 7.59375-7.597657v-51.480468c0-4.199219-3.398438-7.597656-7.59375-7.597656zm0 0"/><path d="m338.503906 425.523438c-4.195312 0-7.597656 3.398437-7.597656 7.597656v51.480468c0 4.195313 3.402344 7.597657 7.597656 7.597657 4.199219 0 7.597656-3.402344 7.597656-7.597657v-51.480468c0-4.199219-3.398437-7.597656-7.597656-7.597656zm0 0"/><path d="m274.152344 425.523438c-4.199219 0-7.597656 3.398437-7.597656 7.597656v51.480468c0 4.195313 3.398437 7.597657 7.597656 7.597657 4.195312 0 7.597656-3.402344 7.597656-7.597657v-51.480468c0-4.199219-3.402344-7.597656-7.597656-7.597656zm0 0"/><path d="m306.328125 425.523438c-4.195313 0-7.597656 3.398437-7.597656 7.597656v51.480468c0 4.195313 3.402343 7.597657 7.597656 7.597657s7.597656-3.402344 7.597656-7.597657v-51.480468c0-4.199219-3.402343-7.597656-7.597656-7.597656zm0 0"/><path d="m114.339844 351.507812c-4.195313 0-7.597656 3.402344-7.597656 7.597657v51.480469c0 4.199218 3.402343 7.597656 7.597656 7.597656 4.199218 0 7.597656-3.398438 7.597656-7.597656v-51.480469c0-4.195313-3.398438-7.597657-7.597656-7.597657zm0 0"/><path d="m146.519531 351.507812c-4.199219 0-7.597656 3.402344-7.597656 7.597657v51.480469c0 4.199218 3.398437 7.597656 7.597656 7.597656 4.195313 0 7.59375-3.398438 7.59375-7.597656v-51.480469c0-4.195313-3.398437-7.597657-7.59375-7.597657zm0 0"/><path d="m178.695312 351.507812c-4.195312 0-7.597656 3.402344-7.597656 7.597657v51.480469c0 4.199218 3.402344 7.597656 7.597656 7.597656 4.195313 0 7.597657-3.398438 7.597657-7.597656v-51.480469c0-4.195313-3.402344-7.597657-7.597657-7.597657zm0 0"/></svg>