<svg height="512pt" viewBox="-34 0 512 512" width="512pt" xmlns="http://www.w3.org/2000/svg"><g fill-rule="evenodd"><path d="m51.578125 464.347656h-17.394531c-10.324219 0-18.777344 8.457032-18.777344 18.792969 0 10.332031 8.453125 18.789063 18.777344 18.789063h366.6875c10.328125 0 18.78125-8.457032 18.78125-18.789063 0-10.335937-8.453125-18.792969-18.78125-18.792969h-8.449219c-113.625 0-227.21875 0-340.84375 0zm0 0" fill="#b3b0b5"/><path d="m51.578125 319.425781v144.921875h340.84375v-383.707031c0-38.820313-31.730469-70.570313-70.5-70.570313h-114.949219l-12.722656 12.007813-21.316406-12.007813h-50.855469c-38.769531 0-70.5 31.75-70.5 70.570313zm121.097656 13.019531c-12.03125 0-21.894531-9.871093-21.894531-21.9375v-21.90625l44.941406-88.234374h43.238282l44.941406 88.234374v21.90625c0 12.066407-9.835938 21.9375-21.890625 21.9375zm-66.75 68.375c0-10.332031 8.453125-18.789062 18.777344-18.789062h185.277344c10.328125 0 18.777343 8.457031 18.777343 18.789062 0 10.304688-8.449218 18.761719-18.777343 18.761719h-185.277344c-10.328125 0-18.777344-8.457031-18.777344-18.761719zm164.707031-246.808593h-103.816406c.550782 2.078125.867188 4.300781.867188 6.550781 0 13.710938-11.105469 24.824219-24.808594 24.824219-13.699219 0-24.804688-11.113281-24.804688-24.824219 0-2.25.316407-4.472656.894532-6.550781h-8.453125c-11.972657 0-21.78125-9.785157-21.78125-21.761719 0-11.980469 9.808593-21.792969 21.78125-21.792969h223.640625c11.96875 0 21.75 9.8125 21.75 21.792969 0 11.976562-9.78125 21.761719-21.75 21.761719h-15.664063c.578125 2.078125.867188 4.300781.867188 6.550781 0 13.710938-11.109375 24.824219-24.808594 24.824219-13.703125 0-24.777344-11.113281-24.777344-24.824219 0-2.25.289063-4.472656.863281-6.550781zm0 0" fill="#e8e7e9"/><path d="m124.703125 382.03125c-10.328125 0-18.777344 8.457031-18.777344 18.789062 0 10.304688 8.449219 18.761719 18.777344 18.761719h185.277344c10.324219 0 18.777343-8.457031 18.777343-18.761719 0-10.332031-8.453124-18.789062-18.777343-18.789062zm0 0" fill="#b3b0b5"/><path d="m150.78125 288.601562h133.121094l-44.941406-88.234374h-43.238282zm0 0" fill="#d7d6d8"/><path d="m283.902344 288.601562h-133.121094v21.90625c0 12.066407 9.863281 21.9375 21.894531 21.9375h89.332031c12.058594 0 21.894532-9.871093 21.894532-21.9375zm0 0" fill="#b3b0b5"/><path d="m392.421875 126.707031v192.71875h20.765625c11.394531 0 20.742188-9.351562 20.742188-20.753906v-151.210937c0-11.429688-9.347657-20.753907-20.742188-20.753907zm0 0" fill="#b3b0b5"/><path d="m51.578125 319.425781v-192.71875h-20.769531c-11.394532 0-20.738282 9.324219-20.738282 20.753907v151.214843c0 11.398438 9.34375 20.75 20.738282 20.75zm0 0" fill="#b3b0b5"/><path d="m118.070312 160.5625c0 13.710938 11.105469 24.824219 24.804688 24.824219 13.703125 0 24.808594-11.113281 24.808594-24.824219 0-2.25-.316406-4.472656-.867188-6.550781-2.882812-10.535157-12.515625-18.269531-23.941406-18.269531-11.421875 0-21.054688 7.734374-23.910156 18.269531-.578125 2.078125-.894532 4.300781-.894532 6.550781zm0 0" fill="#b3b0b5"/><path d="m269.769531 160.5625c0 13.710938 11.074219 24.824219 24.777344 24.824219 13.699219 0 24.804687-11.113281 24.804687-24.824219 0-2.25-.285156-4.472656-.863281-6.550781-2.886719-10.535157-12.492187-18.269531-23.941406-18.269531-11.425781 0-21.058594 7.734374-23.914063 18.269531-.574218 2.078125-.863281 4.300781-.863281 6.550781zm0 0" fill="#b3b0b5"/><path d="m166.816406 154.011719h103.816406c2.855469-10.535157 12.492188-18.269531 23.914063-18.269531 11.453125 0 21.058594 7.734374 23.941406 18.269531h15.664063c11.96875 0 21.75-9.785157 21.75-21.761719 0-11.980469-9.78125-21.792969-21.75-21.792969h-223.640625c-11.972657 0-21.78125 9.8125-21.78125 21.792969 0 11.976562 9.808593 21.761719 21.78125 21.761719h8.453125c2.855468-10.535157 12.488281-18.269531 23.910156-18.269531 11.425781 0 21.058594 7.734374 23.941406 18.269531zm0 0" fill="#d7d6d8"/></g><path d="m338.828125 400.820312c0-15.914062-12.941406-28.859374-28.847656-28.859374h-185.277344c-15.90625 0-28.847656 12.945312-28.847656 28.859374 0 15.898438 12.941406 28.832032 28.847656 28.832032h185.277344c15.90625 0 28.847656-12.933594 28.847656-28.832032zm-222.832031 0c0-4.808593 3.90625-8.71875 8.707031-8.71875h185.277344c4.800781 0 8.707031 3.910157 8.707031 8.71875 0 4.710938-3.988281 8.691407-8.707031 8.691407h-185.277344c-4.71875 0-8.707031-3.980469-8.707031-8.691407zm0 0"/><path d="m142.875 195.457031c18.046875 0 32.933594-13.78125 34.699219-31.375h82.296875c1.769531 17.59375 16.644531 31.375 34.675781 31.375 18.042969 0 32.929687-13.78125 34.699219-31.375h4.90625c17.542968 0 31.820312-14.28125 31.820312-31.835937 0-17.566406-14.277344-31.859375-31.820312-31.859375h-223.640625c-17.5625 0-31.851563 14.292969-31.851563 31.859375 0 16.765625 13.035156 30.535156 29.507813 31.742187 1.726562 17.640625 16.632812 31.46875 34.707031 31.46875zm0-20.140625c-8.125 0-14.734375-6.617187-14.734375-14.753906 0-8.132812 6.609375-14.75 14.734375-14.75 8.128906 0 14.738281 6.617188 14.738281 14.75 0 8.136719-6.609375 14.753906-14.738281 14.753906zm151.671875 0c-8.109375 0-14.707031-6.617187-14.707031-14.753906 0-8.132812 6.597656-14.75 14.707031-14.75 8.125 0 14.734375 6.617188 14.734375 14.75 0 8.136719-6.609375 14.753906-14.734375 14.753906zm-195.742187-43.066406c0-6.464844 5.25-11.722656 11.707031-11.722656h223.640625c6.441406 0 11.679687 5.257812 11.679687 11.722656 0 6.445312-5.238281 11.691406-11.679687 11.691406h-8.945313c-5.914062-10.875-17.4375-18.269531-30.660156-18.269531-13.207031 0-24.722656 7.394531-30.632813 18.269531h-90.378906c-5.914062-10.875-17.4375-18.269531-30.65625-18.269531-13.222656 0-24.746094 7.394531-30.660156 18.269531h-1.707031c-6.457031 0-11.707031-5.246094-11.707031-11.691406zm0 0"/><path d="m293.75 286.492188c-.179688-.84375-.480469-1.691407-.871094-2.460938l-44.945312-88.234375c-1.71875-3.375-5.183594-5.5-8.972656-5.5h-43.238282c-3.789062 0-7.253906 2.125-8.976562 5.5l-44.941406 88.234375c-.714844 1.402344-1.097657 2.996094-1.097657 4.570312v21.90625c0 17.648438 14.339844 32.007813 31.964844 32.007813h89.335937c17.625 0 31.964844-14.359375 31.964844-32.007813v-21.90625c0-.703124-.078125-1.421874-.222656-2.109374zm-91.855469-76.054688h30.894531l34.683594 68.09375h-100.261718zm71.9375 100.070312c0 6.542969-5.304687 11.863282-11.824219 11.863282h-89.332031c-6.519531 0-11.824219-5.320313-11.824219-11.863282v-11.835937h112.980469zm0 0"/><path d="m413.1875 116.636719h-10.695312v-35.996094c0-44.464844-36.144532-80.640625-80.570313-80.640625h-114.949219c-2.570312 0-5.042968.984375-6.914062 2.746094l-7.328125 6.917968-14.851563-8.367187c-1.511718-.851563-3.214844-1.296875-4.945312-1.296875h-50.855469c-.011719 0-.023437 0-.035156 0-.007813 0-.015625 0-.023438 0-.015625 0-.03125.00390625-.046875.00390625-44.375.05468755-80.464844 36.20703175-80.464844 80.63671875v35.996094h-10.695312c-16.992188 0-30.8125 13.828125-30.8125 30.824219v151.214843c0 16.996094 13.820312 30.820313 30.8125 30.820313h10.699219v124.78125h-7.324219c-15.910156 0-28.851562 12.945312-28.851562 28.863281 0 15.910156 12.941406 28.859375 28.851562 28.859375h366.683594c15.910156 0 28.851562-12.945312 28.851562-28.859375 0-15.371094-12.074218-27.972656-27.230468-28.816406v-124.828125h10.699218c16.988282 0 30.808594-13.824219 30.808594-30.820313v-151.214843c0-16.996094-13.820312-30.824219-30.8125-30.824219zm-382.375 192.71875c-5.785156 0-10.671875-4.890625-10.671875-10.679688v-151.214843c0-5.890626 4.785156-10.683594 10.671875-10.683594h10.699219v172.578125zm378.765625 173.785156c0 4.804687-3.902344 8.714844-8.707031 8.714844h-366.6875c-4.800782 0-8.707032-3.910157-8.707032-8.714844 0-4.808594 3.90625-8.71875 8.707032-8.71875h137.132812c5.5625 0 10.070313-4.511719 10.070313-10.074219s-4.507813-10.070312-10.070313-10.070312h-109.667968v-373.636719c0-29.945313 21.847656-54.863281 50.421874-59.652344l.109376 19.417969c.023437 4.066406 2.492187 7.722656 6.257812 9.265625l4.375 1.785156-9.179688 18.21875c-2.503906 4.964844-.503906 11.019531 4.460938 13.523438 1.457031.734375 3 1.078125 4.523438 1.078125 3.683593 0 7.230468-2.027344 9-5.539063l9.898437-19.640625 6.039063 2.46875c1.246093.507813 2.53125.75 3.796874.75 3.972657 0 7.738282-2.367187 9.328126-6.273437 2.101562-5.148438-.371094-11.027344-5.523438-13.128907l-22.875-9.339843-.074219-13.429688h38.082031l19.019532 10.710938c3.839844 2.164062 8.644531 1.574219 11.851562-1.453125l9.8125-9.257813h110.949219c33.316406 0 60.425781 27.136719 60.425781 60.496094v373.636719h-118.609375c-5.558593 0-10.070312 4.507812-10.070312 10.070312s4.511719 10.074219 10.070312 10.074219h137.132813c4.804687 0 8.707031 3.910156 8.707031 8.71875zm14.28125-184.464844c0 5.789063-4.886719 10.679688-10.671875 10.679688h-10.695312v-172.578125h10.695312c5.882812 0 10.671875 4.792968 10.671875 10.683594zm0 0"/><path d="m217.527344 454.277344h-.199219c-5.5625 0-10.070313 4.507812-10.070313 10.070312s4.507813 10.070313 10.070313 10.070313h.199219c5.5625 0 10.074218-4.507813 10.074218-10.070313s-4.511718-10.070312-10.074218-10.070312zm0 0"/></svg>