<svg height="512" viewBox="0 0 64 64" width="512" xmlns="http://www.w3.org/2000/svg"><path d="m61 7h-3v-2a1 1 0 0 0 -1-1h-9.586l-1.707-1.707a1 1 0 0 0 -.707-.293h-42a1 1 0 0 0 -1 1v54a5.006 5.006 0 0 0 5 5h50a5.006 5.006 0 0 0 5-5v-49a1 1 0 0 0 -1-1zm-15-1.586 8.586 8.586h-8.586zm10 54.586h-49a3 3 0 0 1 -3-3v-53h40v11a1 1 0 0 0 1 1h11zm0-47.414-6.586-6.586h6.586zm4 44.414a3 3 0 0 1 -2 2.816v-50.816h2z"/><path d="m8 8h.307l3 8h3.693v-10h-2v8h-.307l-3-8h-3.693v10h2z"/><path d="m25 16h2a1 1 0 0 0 .929-.629l1.071-2.679 1.071 2.679a1 1 0 0 0 .929.629h2a1 1 0 0 0 1-1v-9h-2v8h-.323l-1.748-4.371a1 1 0 0 0 -1.858 0l-1.748 4.371h-.323v-8h-2v9a1 1 0 0 0 1 1z"/><path d="m22 14h-3v-2h3v-2h-3v-2h3v-2h-5v10h5z"/><path d="m42 15v-4a1 1 0 0 0 -1-1h-3v-2h4v-2h-5a1 1 0 0 0 -1 1v4a1 1 0 0 0 1 1h3v2h-4v2h5a1 1 0 0 0 1-1z"/><path d="m6 18h48v2h-48z"/><path d="m20 38a14.015 14.015 0 0 1 14-14v-2a15.915 15.915 0 0 0 -10.547 4h-8.595a4 4 0 1 0 0 2h6.672a15.9 15.9 0 0 0 -3.479 9h-3.193a4 4 0 1 0 0 2h3.193a15.9 15.9 0 0 0 2.731 8h-5.924a4 4 0 1 0 0 2h7.553a15.943 15.943 0 0 0 11.589 5v-2a14.015 14.015 0 0 1 -14-14zm-9-9a2 2 0 1 1 2-2 2 2 0 0 1 -2 2zm0 11a2 2 0 1 1 2-2 2 2 0 0 1 -2 2zm0 10a2 2 0 1 1 2-2 2 2 0 0 1 -2 2z"/><path d="m34 30a8 8 0 1 0 8 8 8.009 8.009 0 0 0 -8-8zm0 14a6 6 0 1 1 6-6 6.006 6.006 0 0 1 -6 6z"/><path d="m44.391 43.977a12.035 12.035 0 1 0 -4.414 4.414l9.316 9.316a1 1 0 0 0 1.414 0l3-3a1 1 0 0 0 0-1.414zm-10.391 4.023a10 10 0 1 1 10-10 10.011 10.011 0 0 1 -10 10zm16 7.586-8.349-8.349a12.25 12.25 0 0 0 1.586-1.586l8.349 8.349z"/><path d="m38 22h16v2h-16z"/><path d="m43 26h11v2h-11z"/><path d="m50 30h4v2h-4z"/><path d="m46 30h2v2h-2z"/><path d="m37 52h2v2h-2z"/><path d="m41 55h2v2h-2z"/><path d="m8 56h17v2h-17z"/><path d="m15 52h8v2h-8z"/></svg>