<svg height="512" viewBox="0 0 64 64" width="512" xmlns="http://www.w3.org/2000/svg"><path d="m59 2h-54a3 3 0 0 0 -3 3v40a3 3 0 0 0 3 3h18.382l-3 6h-6.382a1 1 0 0 0 -1 1v6a1 1 0 0 0 1 1h36a1 1 0 0 0 1-1v-6a1 1 0 0 0 -1-1h-6.382l-3-6h18.382a3 3 0 0 0 3-3v-40a3 3 0 0 0 -3-3zm-10 54v4h-34v-4zm-7.618-2h-18.764l3-6h12.764zm18.618-9a1 1 0 0 1 -1 1h-54a1 1 0 0 1 -1-1v-5h56zm0-7h-56v-30h56zm0-32h-56v-1a1 1 0 0 1 1-1h54a1 1 0 0 1 1 1z"/><path d="m14 19h.307l3 8h3.693v-10h-2v8h-.307l-3-8h-3.693v10h2z"/><path d="m33 27h2a1 1 0 0 0 .929-.628l1.071-2.68 1.071 2.68a1 1 0 0 0 .929.628h2a1 1 0 0 0 1-1v-9h-2v8h-.323l-1.748-4.372a1 1 0 0 0 -1.858 0l-1.748 4.372h-.323v-8h-2v9a1 1 0 0 0 1 1z"/><path d="m30 25h-5v-2h5v-2h-5v-2h5v-2h-7v10h7z"/><path d="m51 26v-4a1 1 0 0 0 -1-1h-4v-2h5v-2h-6a1 1 0 0 0 -1 1v4a1 1 0 0 0 1 1h4v2h-5v2h6a1 1 0 0 0 1-1z"/><path d="m35 43a3 3 0 1 0 -3 3 3 3 0 0 0 3-3zm-3 1a1 1 0 1 1 1-1 1 1 0 0 1 -1 1z"/><path d="m56 42h2v2h-2z"/><path d="m52 42h2v2h-2z"/><path d="m8 12h3v-2h-5v5h2z"/><path d="m56 15h2v-5h-5v2h3z"/><path d="m58 31h-2v3h-3v2h5z"/><path d="m11 34h-3v-3h-2v5h5z"/></svg>