<svg height="512" viewBox="0 0 64 64" width="512" xmlns="http://www.w3.org/2000/svg"><path d="m6 6h2v2h-2z"/><path d="m10 6h2v2h-2z"/><path d="m14 6h2v2h-2z"/><path d="m61 2h-58a1 1 0 0 0 -1 1v58a1 1 0 0 0 1 1h58a1 1 0 0 0 1-1v-58a1 1 0 0 0 -1-1zm-55 58h-2v-48h2zm-2-50v-6h14v6zm52 50h-48v-48h48zm4 0h-2v-48h2zm0-50h-40v-6h40z"/><path d="m54 27h-22v14h22zm-2 12h-18v-10h18z"/><path d="m32 43h22v2h-22z"/><path d="m32 47h22v2h-22z"/><path d="m32 51h22v2h-22z"/><path d="m10 58h20v-18h-20zm2-16h16v14h-16z"/><path d="m10 27h6v2h-6z"/><path d="m18 27h2v2h-2z"/><path d="m22 27h8v2h-8z"/><path d="m10 31h20v2h-20z"/><path d="m10 35h20v2h-20z"/><path d="m32 55h22v2h-22z"/><path d="m19 22h-.307l-3-8h-3.693v10h2v-8h.307l3 8h3.693v-10h-2z"/><path d="m33 24h2a1 1 0 0 0 .929-.628l1.071-2.68 1.071 2.68a1 1 0 0 0 .929.628h2a1 1 0 0 0 1-1v-9h-2v8h-.323l-1.748-4.372a1 1 0 0 0 -1.858 0l-1.748 4.372h-.323v-8h-2v9a1 1 0 0 0 1 1z"/><path d="m30 22h-5v-2h5v-2h-5v-2h5v-2h-7v10h7z"/><path d="m51 23v-4a1 1 0 0 0 -1-1h-4v-2h5v-2h-6a1 1 0 0 0 -1 1v4a1 1 0 0 0 1 1h4v2h-5v2h6a1 1 0 0 0 1-1z"/></svg>