<svg id="Layer_5" enable-background="new 0 0 64 64" height="512" viewBox="0 0 64 64" width="512" xmlns="http://www.w3.org/2000/svg"><path d="m34 39h4v4h-4z"/><path d="m48 19.33v13.34c1.875-1.69 3-4.106 3-6.67s-1.125-4.98-3-6.67z"/><path d="m33 26c0 2.565 1.125 4.98 3 6.67v-13.34c-1.875 1.69-3 4.105-3 6.67z"/><path d="m38 21.54c1.063-.954 2.462-1.54 4-1.54s2.937.586 4 1.54v-7.54h4.435c-2.612-1.309-5.473-2-8.435-2s-5.824.691-8.435 2h4.435z"/><path d="m46 30.46c-1.063.954-2.462 1.54-4 1.54s-2.937-.586-4-1.54v6.54h8z"/><path d="m46 39h4v4h-4z"/><path d="m52 39h4v4h-4z"/><path d="m58 41.186c1.939-3.036 3-6.562 3-10.186 0-4.787-1.801-9.352-5-12.838v18.838h2z"/><path d="m48 16.819c3.089 2.024 5 5.477 5 9.181s-1.911 7.157-5 9.181v1.819h6v-21h-6z"/><path d="m40 39h4v4h-4z"/><path d="m36 35.181c-3.089-2.024-5-5.477-5-9.181s1.911-7.157 5-9.181v-.819h-6v21h6z"/><circle cx="42" cy="26" r="4"/><path d="m28 39h4v4h-4z"/><path d="m17 55h4v6h-4z"/><path d="m34 51h-2c-1.654 0-3 1.346-3 3v7h8v-7c0-1.654-1.346-3-3-3z"/><path d="m56 45h-28c-2.757 0-5 2.243-5 5v11h4v-7c0-2.757 2.243-5 5-5h2c2.757 0 5 2.243 5 5v7h6v-7c0-2.757 2.243-5 5-5h2c2.757 0 5 2.243 5 5v7h4v-11c0-2.757-2.243-5-5-5z"/><path d="m52 51h-2c-1.654 0-3 1.346-3 3v7h8v-7c0-1.654-1.346-3-3-3z"/><path d="m3 52v9h2v-8h8v8h2v-8h6v-2h-17c-.552 0-1 .449-1 1z"/><path d="m26 41.186v-4.186h2v-18.838c-3.199 3.486-5 8.051-5 12.838 0 3.624 1.061 7.15 3 10.186z"/><path d="m7 55h4v6h-4z"/><path d="m2.632 8.996c.213.12.535.302.578.332.049.146.023.634.008.926-.045.876-.102 1.966.73 2.514.927.609 1.865-.091 2.487-.556.161-.12.413-.307.564-.388.151.081.403.269.564.389.449.334 1.063.793 1.719.793.253 0 .511-.068.769-.238.831-.548.775-1.638.729-2.513-.015-.292-.04-.78-.027-.863.079-.093.401-.275.614-.395.69-.389 1.633-.921 1.633-1.997s-.943-1.608-1.632-1.996c-.213-.12-.535-.302-.578-.332-.049-.146-.023-.634-.008-.926.045-.876.102-1.966-.73-2.514-.925-.607-1.865.092-2.488.557-.161.12-.413.307-.564.388-.151-.081-.403-.269-.564-.389-.623-.464-1.562-1.164-2.488-.555-.831.548-.775 1.638-.729 2.513.015.292.04.78.027.863-.079.093-.401.275-.614.395-.689.388-1.632.92-1.632 1.996s.943 1.608 1.632 1.996z"/><path d="m21.368 16.004c-.213-.12-.535-.302-.578-.332-.049-.146-.023-.634-.008-.926.045-.876.102-1.966-.73-2.514-.926-.608-1.864.091-2.487.556-.161.12-.413.307-.564.388-.151-.081-.403-.269-.564-.389-.623-.464-1.562-1.165-2.487-.555-.831.548-.775 1.638-.729 2.513.015.292.04.78.027.863-.079.093-.401.275-.614.395-.691.389-1.634.921-1.634 1.997s.943 1.608 1.632 1.996c.213.12.535.302.578.332.049.146.023.634.008.926-.045.876-.102 1.966.73 2.514.926.609 1.864-.091 2.487-.556.161-.12.413-.307.564-.388.151.081.403.269.564.389.449.334 1.063.793 1.719.793.253 0 .511-.068.769-.238.831-.548.775-1.638.729-2.513-.015-.292-.04-.78-.027-.863.079-.093.401-.275.614-.395.69-.389 1.633-.921 1.633-1.997s-.943-1.608-1.632-1.996z"/><path d="m3.218 31.253c-.045.876-.102 1.966.73 2.514.927.608 1.865-.091 2.487-.556.161-.12.413-.307.564-.388.151.081.403.269.564.389.449.334 1.063.793 1.719.793.253 0 .511-.068.769-.238.831-.548.775-1.638.729-2.513-.015-.292-.04-.78-.027-.863.079-.093.401-.275.614-.395.69-.388 1.633-.92 1.633-1.996s-.943-1.608-1.632-1.996c-.213-.12-.535-.302-.578-.332-.049-.146-.023-.634-.008-.926.045-.876.102-1.966-.73-2.514-.925-.608-1.864.091-2.487.556-.162.121-.414.308-.565.389-.151-.081-.403-.269-.564-.389-.622-.464-1.562-1.164-2.487-.555-.831.548-.775 1.638-.729 2.513.015.292.04.78.027.863-.079.093-.401.275-.614.395-.69.388-1.633.92-1.633 1.996s.943 1.608 1.632 1.996c.213.12.535.302.578.332.049.146.023.634.008.925z"/></svg>