<svg height="512pt" viewBox="0 -76 512 512" width="512pt" xmlns="http://www.w3.org/2000/svg"><path d="m256 305.675781c-43.804688 0-85.035156-4.09375-121.085938-11.304687 25.699219 39.3125 70.328126 66.351562 121.085938 66.351562s95.386719-27.039062 121.085938-66.351562c-36.050782 7.210937-77.28125 11.304687-121.085938 11.304687zm0 0" fill="#ff8709"/><path d="m181.324219 301.550781c-16.207031-1.835937-31.742188-4.246093-46.410157-7.179687 25.699219 39.3125 70.328126 66.355468 121.085938 66.355468 6.949219 0 13.777344-.527343 20.464844-1.5-39.054688-5.671874-72.992188-27.121093-95.140625-57.675781zm0 0" fill="#f70"/><path d="m364.222656 125.5625c4.398438 5.171875 8.433594 10.664062 12.066406 16.429688 47.546876 12.328124 80.242188 31.675781 80.242188 53.429687 0 37.242187-89.78125 67.4375-200.53125 67.4375-110.753906 0-200.53125-30.195313-200.53125-67.4375 0-21.753906 32.695312-41.097656 80.242188-53.429687 3.632812-5.765626 7.667968-11.257813 12.066406-16.429688-86.179688 15.320312-147.777344 48.042969-147.777344 85.9375 0 52.582031 114.613281 95.207031 256 95.207031s256-42.625 256-95.207031c0-37.894531-61.597656-70.617188-147.777344-85.9375zm0 0" fill="#ffea7e"/><path d="m32.710938 211.5c0-31.796875 43.375-59.949219 108.246093-77.238281 2.164063-2.988281 4.433594-5.894531 6.820313-8.699219-86.179688 15.320312-147.777344 48.042969-147.777344 85.9375 0 52.582031 114.613281 95.207031 256 95.207031 5.496094 0 10.945312-.070312 16.355469-.199219-133.761719-3.136718-239.644531-44.46875-239.644531-95.007812zm0 0" fill="#ffd500"/><path d="m418.140625 144.5c-5.785156-1.679688-10.796875-5.285156-14.332031-10.164062l-.054688-.078126c-12.441406-3.3125-25.664062-6.234374-39.53125-8.699218 4.398438 5.175781 8.433594 10.667968 12.066406 16.429687 47.546876 12.332031 80.246094 31.675781 80.246094 53.433594 0 35.390625-81.078125 64.414063-184.179687 67.210937 5.394531.148438 10.847656.226563 16.355469.226563 110.75 0 200.53125-30.195313 200.53125-67.4375 0-20.332031-28.554688-38.558594-71.101563-50.921875zm0 0" fill="#ffd500"/><path d="m432.300781 32.089844c0 17.71875-14.367187 32.085937-32.089843 32.085937-17.722657 0-32.089844-14.367187-32.089844-32.085937 0-17.722656 14.367187-32.089844 32.089844-32.089844 17.722656 0 32.089843 14.367188 32.089843 32.089844zm0 0" fill="#6c7fd9"/><path d="m398.773438 32.089844c0-12.171875 6.777343-22.761719 16.761718-28.199219-4.554687-2.480469-9.773437-3.890625-15.324218-3.890625-17.722657 0-32.089844 14.367188-32.089844 32.089844 0 17.71875 14.367187 32.085937 32.089844 32.085937 5.550781 0 10.769531-1.410156 15.324218-3.890625-9.984375-5.4375-16.761718-16.027344-16.761718-28.195312zm0 0" fill="#4f66d1"/><path d="m368.027344 127.6875c-.582032-.710938-1.152344-1.429688-1.746094-2.125-59.492188-69.957031-168.902344-67.40625-224.960938 5.464844.867188-1.125 1.75-2.238282 2.652344-3.339844 67.621094 15.34375 156.460938 15.339844 224.054688 0zm0 0" fill="#ffba7e"/><path d="m276.6875 76.160156c-49.492188-7.042968-101.921875 11.394532-135.367188 54.867188.871094-1.125 1.753907-2.238282 2.652344-3.339844 11.773438 2.671875 24.203125 4.867188 37.039063 6.609375 22.183593-30.84375 56.34375-52.488281 95.675781-58.136719zm0 0" fill="#ffaa5c"/><path d="m395.378906 180.9375c.371094 1.390625.71875 2.789062 1.046875 4.191406-3.644531-15.496094-9.808593-30.03125-18.070312-43.136718-.003907 0-.003907-.003907-.003907-.003907-4.242187-6.726562-9.386718-13.242187-10.324218-14.300781-67.621094 15.347656-156.464844 15.339844-224.054688 0-3.871094 4.734375-7.488281 9.804688-10.324218 14.304688h-.003907c-7.515625 11.917968-13.292969 25.019531-17.023437 38.949218 77.757812 25.285156 201.023437 25.277344 278.757812-.003906zm0 0" fill="#ffaa5c"/><path d="m181.011719 134.296875c-12.839844-1.742187-25.265625-3.9375-37.039063-6.609375-3.867187 4.734375-7.488281 9.804688-10.324218 14.300781 0 .003907-.003907.003907-.003907.003907-7.515625 11.917968-13.292969 25.019531-17.023437 38.949218 12.324218 4.003906 25.792968 7.375 40.039062 10.113282 3.9375-20.875 12.402344-40.152344 24.351563-56.757813zm0 0" fill="#ff9838"/><path d="m395.378906 180.9375c-77.757812 25.289062-201.023437 25.28125-278.757812 0 0 1.0625-8.851563 27.316406-2.574219 62.113281 78.671875 29.011719 205.136719 29.269531 283.90625 0 3.710937-20.582031 2.835937-41.886719-2.574219-62.113281zm0 0" fill="#ff9838"/><path d="m154.171875 217.707031c0-9.109375.859375-18.015625 2.488281-26.652343-14.246094-2.738282-27.714844-6.109376-40.039062-10.113282 0 1.058594-8.851563 27.3125-2.574219 62.113282 13.777344 5.078124 29.023437 9.273437 45.21875 12.585937-3.316406-12.082031-5.09375-24.796875-5.09375-37.933594zm0 0" fill="#ff8709"/></svg>