<svg height="512pt" viewBox="0 -16 512 512" width="512pt" xmlns="http://www.w3.org/2000/svg"><path d="m359.199219 163.726562-94.40625 136.523438 42.871093 63.152344c25.019532-6.058594 50.335938-9.121094 75.738282-9.121094 4.15625 0 8.308594.105469 12.457031.269531zm0 0" fill="#ffc000"/><path d="m508.425781 379.515625-149.226562-215.789063 36.660156 190.824219c36.097656 1.421875 71.90625 9.003907 106.621094 22.628907zm0 0" fill="#ff9d22"/><path d="m13.632812 385.296875v.429687l6.542969 2.402344c35.898438 13.1875 72.691407 19.871094 109.359375 19.871094 36.070313 0 71.703125-6.503906 106.132813-19.328125l-49.546875-257.734375zm0 0" fill="#ff9d22"/><path d="m186.121094 130.9375 49.546875 257.734375c4.410156-1.640625 8.804687-3.375 13.175781-5.226563l2.324219-1.023437c28.257812-12.265625 57.128906-20.527344 86.28125-24.773437v-3.796876zm0 0" fill="#ff7037"/><path d="m96.664062 0c-28.378906 0-51.46875 23.089844-51.46875 51.472656 0 28.382813 23.089844 51.472656 51.46875 51.472656 28.382813 0 51.472657-23.089843 51.472657-51.472656 0-28.382812-23.089844-51.472656-51.472657-51.472656zm0 0" fill="#ffdc00"/><path d="m502.480469 360.175781c-38.703125-15.191406-78.769531-22.898437-119.082031-22.898437-44.722657 0-89.183594 9.457031-132.230469 28.140625l-2.324219 1.023437c-38.476562 16.292969-78.617188 24.554688-119.308594 24.554688-36.667968 0-73.460937-6.683594-109.359375-19.871094l-20.175781-7.410156v115.886718h512v-115.6875zm0 0" fill="#fec478"/><path d="m512 363.914062-9.519531-3.738281c-38.703125-15.191406-78.769531-22.898437-119.082031-22.898437-43.050782 0-85.859376 8.789062-127.398438 26.113281v116.210937h256zm0 0" fill="#feb756"/><path d="m96.664062 0v102.945312c28.382813 0 51.472657-23.089843 51.472657-51.472656 0-28.382812-23.089844-51.472656-51.472657-51.472656zm0 0" fill="#ffc000"/></svg>