<svg height="512pt" viewBox="0 -16 512 512" width="512pt" xmlns="http://www.w3.org/2000/svg"><path d="m96.664062 102.945312c28.382813 0 51.472657-23.089843 51.472657-51.472656 0-28.382812-23.089844-51.472656-51.472657-51.472656-28.378906 0-51.46875 23.089844-51.46875 51.472656 0 28.382813 23.089844 51.472656 51.46875 51.472656zm0-72.941406c11.835938 0 21.46875 9.632813 21.46875 21.46875 0 11.835938-9.632812 21.464844-21.46875 21.464844-11.835937 0-21.464843-9.628906-21.464843-21.464844 0-11.835937 9.628906-21.46875 21.464843-21.46875zm0 0"/><path d="m502.480469 360.175781c-3.324219-1.304687-6.664063-2.53125-10.007813-3.726562l-133.273437-192.722657-76.105469 110.058594-96.972656-142.847656-163.472656 241.066406c-.824219-.292968-1.648438-.574218-2.472657-.878906l-20.175781-7.410156v115.886718h512v-115.6875zm-99.429688-22.265625-15.566406-80.527344 59.75 86.402344c-14.632813-2.992187-29.378906-4.953125-44.183594-5.875zm-51.808593-109.921875 21.167968 109.503907c-14.402344.5-28.765625 1.984374-43.054687 4.4375l-28.191407-41.523438zm-108.933594 141.128907-27.589844-142.625 83.132812 122.453124c-15.707031 4.308594-31.285156 9.789063-46.683593 16.472657l-2.324219 1.023437c-2.171875.921875-4.351562 1.808594-6.535156 2.675782zm-64.050782-173.125 35.390626 182.96875c-27.515626 7.988281-55.675782 12.035156-84.113282 12.035156-25.679687 0-51.421875-3.289063-76.875-9.785156zm303.738282 253.601562h-451.992188v-43.546875c32.796875 9.933594 66.1875 14.957031 99.53125 14.957031 44.773438 0 88.890625-9.078125 131.121094-26.980468l2.539062-1.117188c39.175782-17 79.617188-25.621094 120.207032-25.621094 33.257812 0 66.375 5.800782 98.59375 17.261719zm0 0"/></svg>