<svg height="512pt" viewBox="0 0 512 512" width="512pt" xmlns="http://www.w3.org/2000/svg"><path d="m391.128906 164-4.757812-12.851562c-22.410156-60.5-80.832032-101.148438-145.371094-101.148438-85.46875 0-155 69.53125-155 155v175.96875l40-26.527344v-149.441406c0-63.410156 51.589844-115 115-115 46.960938 0 89.558594 29.011719 106.871094 72.46875v.011719zm0 0" fill="#ffda2d"/><path d="m435.429688 190.039062c-7.660157-100.558593-91.941407-180.039062-194.429688-180.039062-107.519531 0-195 87.480469-195 195v207.898438l23-4.898438 17-27.03125v-175.96875c0-85.46875 69.53125-155 155-155 64.539062 0 122.960938 40.648438 145.371094 101.148438l4.757812 12.851562 44.351563 26.429688v-.007813zm0 0" fill="#ff637b"/><path d="m241 90c-63.410156 0-115 51.589844-115 115v149.441406l40 .570313v-150.011719c0-41.421875 33.578125-75 75-75 33.890625 0 62.53125 22.480469 71.820312 53.339844l.007813.011718 35.042969-20.871093v-.011719c-17.3125-43.457031-59.910156-72.46875-106.871094-72.46875zm0 0" fill="#76e2f8"/><path d="m442 190c33.140625 0 60 26.859375 60 60s-26.859375 60-60 60h-165c-24.851562 0-45-20.148438-45-45s20.148438-45 45-45c5.730469 0 11.160156 1.171875 16.199219 3.128906 5.722656-35.6875 36.390625-63.128906 73.800781-63.128906 24.902344 0 47.308594 12.273438 61.121094 31.769531 4.539062-1.074219 9.191406-1.769531 13.878906-1.769531zm0 0" fill="#fff5f5"/><path d="m220 382c33.140625 0 60 26.859375 60 60s-26.859375 60-60 60h-165c-24.851562 0-45-20.148438-45-45 0-24.773438 20.074219-45 45-45 5.730469 0 11.160156 1.171875 16.199219 3.128906 5.730469-35.75 36.421875-63.128906 73.800781-63.128906 25.015625 0 47.390625 12.382812 61.121094 31.769531 4.480468-1.058593 9.078125-1.769531 13.878906-1.769531zm0 0" fill="#fff5f5"/><path d="m55 512h165c38.597656 0 70-31.402344 70-70s-31.402344-70-70-70c-3.140625 0-6.359375.253906-9.726562.769531-9.183594-11.050781-21.035157-19.632812-34.273438-24.871093v-142.898438c0-35.839844 29.160156-65 65-65 26.648438 0 50.785156 16.667969 60.472656 41.136719-7.171875 8.761719-12.488281 18.789062-15.691406 29.605469-2.921875-.492188-5.851562-.742188-8.78125-.742188-30.328125 0-55 24.675781-55 55 0 30.328125 24.671875 55 55 55h165c38.597656 0 70-31.402344 70-70 0-37.765625-30.066406-68.621094-67.515625-69.9375-12.390625-101.777344-99.28125-180.0625-203.484375-180.0625-113.035156 0-205 91.960938-205 205v200.386719c-21.273438 7.847656-36 28.378906-36 51.613281 0 30.328125 24.671875 55 55 55zm186-392c-46.867188 0-85 38.132812-85 85v137.726562c-3.636719-.476562-7.308594-.726562-11-.726562-3.011719 0-6.015625.167969-9 .484375v-137.484375c0-57.898438 47.101562-105 105-105 39.070312 0 75.273438 22.375 93.171875 56.609375-6.171875 2.601563-12.011719 5.933594-17.398437 9.925781-14.300782-28.023437-42.964844-46.535156-75.773438-46.535156zm251 130c0 27.570312-22.429688 50-50 50h-165c-19.300781 0-35-15.699219-35-35s15.699219-35 35-35c4.164062 0 8.394531.824219 12.574219 2.449219 5.941406 2.3125 12.492187-1.457031 13.5-7.734375 5.078125-31.675782 32.328125-54.714844 63.925781-54.714844 21.546875 0 40.980469 10.640625 52.960938 27.550781 2.355468 3.328125 6.496093 4.890625 10.460937 3.953125 3.996094-.949218 7.886719-1.503906 11.578125-1.503906 27.570312 0 50 22.429688 50 50zm-251-230c89.425781 0 165.765625 64.917969 181.859375 151.066406-7.078125-6.230468-15.132813-11.226562-23.933594-14.808594l-3.179687-8.582031c-17.585938-47.476562-56.011719-83.410156-102.277344-99.039062-5.234375-1.769531-10.90625 1.039062-12.675781 6.273437-1.765625 5.230469 1.042969 10.90625 6.273437 12.675782 40.464844 13.667968 72.417969 43.722656 88.292969 82.839843-2.769531-.273437-5.554687-.425781-8.359375-.425781-4.453125 0-8.882812.351562-13.242188 1.039062-20.488281-42.777343-64.316406-71.039062-112.757812-71.039062-68.925781 0-125 56.074219-125 125v142.125c-7.101562 2.601562-13.835938 6.160156-20 10.550781v-152.675781c0-65.695312 44.351562-123.339844 107.855469-140.179688 5.339843-1.417968 8.519531-6.890624 7.105469-12.230468-1.417969-5.339844-6.898438-8.515625-12.230469-7.101563-72.261719 19.160157-122.730469 84.753907-122.730469 159.511719v172.6875c-5.410156 7.621094-9.542969 16.109375-12.210938 25.054688-2.585937-.4375-5.1875-.671876-7.789062-.722657v-197.019531c0-102.007812 82.988281-185 185-185zm-193.015625 402.703125c.011719-.003906.027344-.007813.039063-.007813 6.328124-1.277343 13.015624-.789062 19.554687 1.753907 5.925781 2.308593 12.488281-1.445313 13.496094-7.734375 4.089843-25.53125 22.914062-46.160156 47.464843-52.601563 25.765626-6.761719 53.449219 2.882813 69.421876 25.4375 2.355468 3.328125 6.496093 4.890625 10.464843 3.953125 4.324219-1.027344 8.003907-1.503906 11.574219-1.503906 27.570312 0 50 22.429688 50 50s-22.429688 50-50 50h-165c-19.300781 0-35-15.699219-35-35 0-16.578125 11.769531-31.003906 27.984375-34.296875zm0 0"/><path d="m256 50c0 5.523438-4.476562 10-10 10s-10-4.476562-10-10 4.476562-10 10-10 10 4.476562 10 10zm0 0"/></svg>