<?xml version="1.0" encoding="iso-8859-1"?>
<!-- Generator: Adobe Illustrator 19.0.0, SVG Export Plug-In . SVG Version: 6.00 Build 0)  -->
<svg version="1.1" id="Capa_1" xmlns="http://www.w3.org/2000/svg" xmlns:xlink="http://www.w3.org/1999/xlink" x="0px" y="0px"
	 viewBox="0 0 512 512" style="enable-background:new 0 0 512 512;" xml:space="preserve">
<rect x="46" y="135" style="fill:#4A8DC6;" width="150" height="75"/>
<g>
	<rect x="316" y="135" style="fill:#1D71B8;" width="150" height="75"/>
	<polygon style="fill:#1D71B8;" points="316,345 271,375 271,482 361,502 361,375 	"/>
</g>
<rect x="271" y="281.01" style="fill:#134A79;" width="90" height="93.99"/>
<polygon style="fill:#4A8DC6;" points="151,502 241,482 241,375 196,345 151,375 "/>
<rect x="151" y="281.01" style="fill:#185E98;" width="90" height="93.99"/>
<polygon style="fill:#77AAD4;" points="226,60 226,150 391,135 316,90 "/>
<polygon style="fill:#A5C6E3;" points="256,60 196,90 121,135 256,150 "/>
<polygon style="fill:#4A8DC6;" points="256,330 391,330 391,135 256,135 211,226 "/>
<rect x="121" y="135" style="fill:#77AAD4;" width="135" height="195"/>
<g>
	<rect x="271" y="482" style="fill:#185E98;" width="120" height="30"/>
	<path style="fill:#185E98;" d="M91,332H61v-40c0-8.271-6.729-15-15-15s-15,6.729-15,15v40H1v-40c0-24.813,20.187-45,45-45
		s45,20.187,45,45V332z"/>
	<rect x="31" y="90" style="fill:#185E98;" width="30" height="172"/>
</g>
<g>
	<rect x="451" y="90" style="fill:#134A79;" width="30" height="172"/>
	<path style="fill:#134A79;" d="M511,332h-30v-40c0-8.271-6.729-15-15-15s-15,6.729-15,15v40h-30v-40c0-24.813,20.187-45,45-45
		s45,20.187,45,45V332z"/>
</g>
<rect x="181" y="181" style="fill:#185E98;" width="30" height="30"/>
<rect x="301" y="181" style="fill:#134A79;" width="30" height="30"/>
<rect x="181" y="241" style="fill:#185E98;" width="30" height="30"/>
<rect x="121" y="482" style="fill:#1D71B8;" width="120" height="30"/>
<rect x="301" y="241" style="fill:#134A79;" width="30" height="30"/>
<path style="fill:#4A8DC6;" d="M316,0h-60l-30,45l30,45h60c24.813,0,45-20.187,45-45S340.813,0,316,0z"/>
<path style="fill:#77AAD4;" d="M196,0c-24.813,0-45,20.187-45,45s20.187,45,45,45h60V0H196z"/>
<g>
</g>
<g>
</g>
<g>
</g>
<g>
</g>
<g>
</g>
<g>
</g>
<g>
</g>
<g>
</g>
<g>
</g>
<g>
</g>
<g>
</g>
<g>
</g>
<g>
</g>
<g>
</g>
<g>
</g>
</svg>
