<?xml version="1.0" encoding="iso-8859-1"?>
<!-- Generator: Adobe Illustrator 19.0.0, SVG Export Plug-In . SVG Version: 6.00 Build 0)  -->
<svg version="1.1" id="Capa_1" xmlns="http://www.w3.org/2000/svg" xmlns:xlink="http://www.w3.org/1999/xlink" x="0px" y="0px"
	 viewBox="0 0 496.063 496.063" style="enable-background:new 0 0 496.063 496.063;" xml:space="preserve">
<g>
	<g>
		<g>
			<path d="M192.032,328.063c-13.232,0-24,10.768-24,24s10.768,24,24,24s24-10.768,24-24S205.264,328.063,192.032,328.063z
				 M192.032,360.063c-4.416,0-8-3.584-8-8c0-4.416,3.584-8,8-8s8,3.584,8,8C200.032,356.479,196.448,360.063,192.032,360.063z"/>
			<path d="M384.032,328.063c-13.232,0-24,10.768-24,24s10.768,24,24,24s24-10.768,24-24S397.264,328.063,384.032,328.063z
				 M384.032,360.063c-4.416,0-8-3.584-8-8c0-4.416,3.584-8,8-8c4.416,0,8,3.584,8,8
				C392.032,356.479,388.448,360.063,384.032,360.063z"/>
			<path d="M112.032,232.063v16c0,13.232,10.768,24,24,24h80c13.232,0,24-10.768,24-24v-16c0-13.232-10.768-24-24-24h-80
				C122.8,208.063,112.032,218.831,112.032,232.063z M224.032,232.063v16c0,4.416-3.584,8-8,8h-80c-4.416,0-8-3.584-8-8v-16
				c0-4.416,3.584-8,8-8h80C220.448,224.063,224.032,227.647,224.032,232.063z"/>
			<path d="M408.032,16.063c39.704,0,72,32.296,72,72h16c0-48.52-39.48-88-88-88c-48.52,0-88,39.48-88,88h16
				C336.032,48.359,368.328,16.063,408.032,16.063z"/>
			<path d="M408.032,32.063c-30.872,0-56,25.128-56,56h16c0-22.056,17.944-40,40-40c22.056,0,40,17.944,40,40h16
				C464.032,57.191,438.904,32.063,408.032,32.063z"/>
			<path d="M431.744,85.207c-1.432-11.872-11.456-21.144-23.712-21.144c-13.232,0-24,10.768-24,24
				c0,11.176,7.712,20.512,18.072,23.168l14.184,39.72c13.04,36.504,20.672,74.4,22.952,112.944
				c-17.592-19.488-42.952-31.832-71.208-31.832h-112v16h112c44.112,0,80,35.888,80,80c0,17.52-5.72,34.216-16,47.92v-23.92
				c0-26.472-21.528-48-48-48s-48,21.528-48,48v56h-96v-56c0-26.472-21.528-48-48-48s-48,21.528-48,48v23.92
				c-10.28-13.696-16-30.4-16-47.92c0-12.808,2.928-25.04,8.72-36.36l-14.248-7.28c-5.096,9.976-8.312,20.552-9.688,31.544
				l-56.784,56.784l-3.72-3.72c-5.784-5.784-13.472-8.968-21.656-8.968c-16.88,0-30.624,13.744-30.624,30.624
				c0,8.176,3.184,15.872,8.968,21.656l32.888,32.888c6.888,6.888,16.408,10.832,26.144,10.832s19.256-3.944,26.144-10.832
				l39.512-39.512l-11.312-11.312l-39.512,39.512c-7.816,7.8-21.84,7.8-29.656,0L20.32,401.031
				c-2.728-2.72-4.288-6.488-4.288-10.344c0-8.064,6.56-14.624,14.624-14.624c3.848,0,7.624,1.56,10.344,4.28l15.032,15.032
				l56.6-56.6c2.6,23.36,13.76,44.824,31.4,60.656v32.632c-17.648,0-32,14.352-32,32s14.352,32,32,32h72c13.232,0,24-10.768,24-24
				v-48h96v8c-17.648,0-32,14.352-32,32s14.352,32,32,32h72c13.232,0,24-10.768,24-24v-72.632
				c18.512-16.608,29.752-39.456,31.6-64.144c18.424-3.56,32.4-19.768,32.4-39.224c0-74.848-21.944-147.336-63.472-209.624
				L431.744,85.207z M408.032,96.063c-4.416,0-8-3.584-8-8s3.584-8,8-8c4.416,0,8,3.584,8,8S412.448,96.063,408.032,96.063z
				 M224.032,472.063c0,4.416-3.584,8-8,8h-72c-8.824,0-16-7.176-16-16c0-8.824,7.176-16,16-16h16v-96c0-17.648,14.352-32,32-32
				s32,14.352,32,32V472.063z M416.032,472.063c0,4.416-3.584,8-8,8h-72c-8.824,0-16-7.176-16-16c0-8.824,7.176-16,16-16h16v-96
				c0-17.648,14.352-32,32-32s32,14.352,32,32V472.063z M463.56,318.735c-1.056-10.864-3.992-21.168-8.368-30.672h0.84
				c0-48.712-8.304-96.656-24.688-142.496l-12.856-36.008c2.536-1.24,4.84-2.856,6.776-4.864
				c35.848,57.496,54.768,123.408,54.768,191.368C480.032,306.655,473.096,315.559,463.56,318.735z"/>
			<path d="M59.568,199.039c8.632,12.64,19.84,23.64,32.768,31.816l8.544-13.528c-7.672-4.84-14.568-10.904-20.608-17.712
				c35.832-3.656,63.76-30.744,63.76-63.552c0-32.824-27.952-59.92-63.8-63.552c18.088-20.48,43.944-32.448,71.8-32.448
				c5.384,0,10.728,0.608,16.016,1.496c-0.168,21.408,11.544,47.224,33.408,69.088c13.992,14,30.272,24.32,46.4,29.568
				c-0.912,20.904-8.568,41.08-21.968,57.2l12.296,10.232c15.048-18.104,23.92-40.584,25.52-64c2.24,0.24,4.464,0.44,6.6,0.44
				c12.232,0,22.672-3.904,30.264-11.504c21.632-21.632,11.992-65.168-21.952-99.104c-33.944-33.936-77.48-43.576-99.112-21.944
				c-4.048,4.048-7,8.872-8.904,14.248c-1.84-0.304-3.664-0.752-5.52-0.968c-1.928-5.088-4.776-9.536-8.512-13.288
				C134.944-10.105,91.4-0.457,57.456,33.479C41.272,49.663,30.08,68.767,25.88,86.999C10.096,98.751,0.032,116.375,0.032,136.063
				C0.032,167.567,25.792,193.767,59.568,199.039z M190.816,22.847c4.64-4.632,11.272-6.832,19.016-6.832
				c16.928,0,39.168,10.48,57.472,28.784c26.68,26.68,36.728,61.696,21.952,76.48c-14.784,14.768-49.8,4.728-76.488-21.944
				C186.096,72.647,176.04,37.623,190.816,22.847z M68.768,44.799c26.68-26.68,61.72-36.728,76.48-21.96
				c0.456,0.464,0.752,1.08,1.168,1.584c-35.064,1.744-66.952,19.536-86.808,48.672c-4.544,0.704-8.92,1.792-13.128,3.224
				C51.464,65.415,59.128,54.439,68.768,44.799z M64.032,104.063c0,4.416-3.584,8-8,8s-8-3.584-8-8s3.584-8,8-8
				S64.032,99.647,64.032,104.063z M32.2,102.375c-0.04,0.568-0.168,1.112-0.168,1.688c0,10.416,6.712,19.216,16,22.528v14.16
				l-13.656,13.656l11.312,11.312l10.344-10.344l10.344,10.344l11.312-11.312l-13.656-13.656v-14.16
				c9.288-3.312,16-12.112,16-22.528c0-6.128-2.376-11.672-6.176-15.92c30.024,0.832,54.176,21.976,54.176,47.92
				c0,26.472-25.128,48-56,48s-56-21.528-56-48C16.032,122.943,22.216,111.047,32.2,102.375z"/>
			<path d="M144.032,56.063c-11.032,0-20,8.968-20,20s8.968,20,20,20s20-8.968,20-20S155.064,56.063,144.032,56.063z
				 M144.032,80.063c-2.2,0-4-1.8-4-4s1.8-4,4-4s4,1.8,4,4S146.232,80.063,144.032,80.063z"/>
		</g>
	</g>
</g>
<g>
</g>
<g>
</g>
<g>
</g>
<g>
</g>
<g>
</g>
<g>
</g>
<g>
</g>
<g>
</g>
<g>
</g>
<g>
</g>
<g>
</g>
<g>
</g>
<g>
</g>
<g>
</g>
<g>
</g>
</svg>
