<svg enable-background="new 0 0 140 140" height="512" viewBox="0 0 140 140" width="512" xmlns="http://www.w3.org/2000/svg"><path d="m134 70c0 8.2000122-1.539978 16.039978-4.3599854 23.25-8.6400146 22.1699829-29.2799682 38.3300171-53.9500122 40.4899902-1.8699951.1799927-3.7699585.2600098-5.6900024.2600098-35.3399658 0-64-28.6500244-64-64 0-35.3400269 28.6600342-64 64-64 35.3500366 0 64 28.6599731 64 64z" fill="#ea8953"/><path d="m42.4500122 96.4199829-.0100098.0100098c-.25-.0800171-.5199585-.0999756-.7799683-.0499878-.0900269.0100098-.1799927.039978-.2700195.0800171-.1799927.0700073-.3499756.1799927-.5.3299561-.5899658.5900269-.5899658 1.5599976 0 2.1600342l34.7953491 34.7902832c.0015259-.0001221.0031128-.0001831.0046387-.0003052 24.670044-2.1599732 45.3099976-18.3200074 53.9500122-40.4899903l-40.0200195-40.0200195-3.0099487-3.0100098c-.2200318-.2199707-.5400391-.3199463-.8500366-.2799683l-2.6400146.3800049c-.3299561.0499878-.6199952.2700196-.7599488.5800171l-2.1000366 4.6199951c-.1699829.3800049-.0899658.8200073.210022 1.1099854l.289978.2999878-1.3099976 1.5100098-1.8300171-1.8200073-1.8099976-1.8099976c-.789978-.7999878-2.0799561-.7999878-2.8699951 0l-2.8499756 2.8499756-3.1500244-3.1399536-18.8399658-18.8500367c-.3699951-.3599854-.9700317-.3599854-1.3400269 0l-11.080017 11.0900269c-.3699951.3699951-.3699951.9699707 0 1.3399658l21.9800415 21.9800415-4.5400391 4.539978c-.789978.7999878-.789978 2.0900269 0 2.8800049l3.75 3.75-2.3299561 2.3400269c-.1900024-.1700439-.3900146-.3300171-.5900269-.4700317-.1400146-.1099854-.2799683-.210022-.4299927-.3099976-.1699828-.1199952-.3400267-.2399903-.5200194-.3499756-.0100098-.0200195-.0199585-.0200195-.0299683-.0200195-.1699829-.1099854-.3400269-.210022-.5200195-.3099976-.789978-.4700317-1.6199951-.8400269-2.4699707-1.1199951-.1799927-.0700073-.3600464-.1300049-.5500488-.1799927-.3599854-.1100464-.7199707-.2000122-1.0799561-.2700195-.1400146-.0399781-.2800293-.0599976-.4100342-.0900269-.3999634-.0699463-.789978-.1299438-1.2000122-.1599731-.4499512-.0499878-.9099731-.0700073-1.3599854-.0700073-3.3099976 0-6.6199951 1.1500244-9.289978 3.4500122l9.3699951 9.3699951v.0100098z" opacity=".1"/><path d="m54.94342 79.828171h2.419139v7.715091h-2.419139z" fill="#3a556a" transform="matrix(.707 .707 -.707 .707 75.622 -15.195)"/><path d="m79.888825 54.882771h2.419139v7.715091h-2.419139z" fill="#3a556a" transform="matrix(.707 .707 -.707 .707 65.289 -40.141)"/><path d="m42.5975647 98.1211929-.8800468-.880043 7.2156181-8.0461655 1.7105903 1.7105942z" fill="#3a556a"/><path d="m72.045296 76.363243h11.765946v3.128066h-11.765946z" fill="#474c5b" transform="matrix(.707 .707 -.707 .707 77.928 -32.279)"/><path d="m104.3302002 91.9078903-18.8451843-18.845192c-.3677139-.3677139-.9639435-.3677521-1.3316574-.0000458l-11.0897141 11.0897141c-.3677063.3677139-.3676682.9639435.0000458 1.3316574l18.8451843 18.8451843c.3677139.3677139.9637756.3675842 1.3314819-.0001297l11.0897141-11.0897141c.3677139-.3677062.3678436-.9637679.0001297-1.3314742z" fill="#64798a"/><g fill="#ebf0f3"><path d="m83.085342 75.759087h4.136059v4.136059h-4.136059z" transform="matrix(.707 .707 -.707 .707 79.973 -37.417)"/><path d="m86.688431 79.362175h4.136059v4.136059h-4.136059z" transform="matrix(.707 .707 -.707 .707 83.576 -38.91)"/><path d="m90.291512 82.965256h4.136059v4.136059h-4.136059z" transform="matrix(.707 .707 -.707 .707 87.179 -40.402)"/><path d="m93.8946 86.568344h4.136059v4.136059h-4.136059z" transform="matrix(.707 .707 -.707 .707 90.782 -41.895)"/><path d="m97.497688 90.171433h4.136059v4.136059h-4.136059z" transform="matrix(.707 .707 -.707 .707 94.385 -43.387)"/><path d="m79.422699 79.42173h4.136059v4.136059h-4.136059z" transform="matrix(.707 .707 -.707 .707 81.49 -33.755)"/><path d="m83.025787 83.024811h4.136059v4.136059h-4.136059z" transform="matrix(.707 .707 -.707 .707 85.093 -35.247)"/><path d="m86.628876 86.627899h4.136059v4.136059h-4.136059z" transform="matrix(.707 .707 -.707 .707 88.696 -36.74)"/><path d="m90.231957 90.230988h4.136059v4.136059h-4.136059z" transform="matrix(.707 .707 -.707 .707 92.299 -38.232)"/><path d="m93.835045 93.834068h4.136059v4.136059h-4.136059z" transform="matrix(.707 .707 -.707 .707 95.902 -39.725)"/><path d="m75.760063 83.084366h4.136059v4.136059h-4.136059z" transform="matrix(.707 .707 -.707 .707 83.007 -30.092)"/><path d="m79.363144 86.687454h4.136059v4.136059h-4.136059z" transform="matrix(.707 .707 -.707 .707 86.61 -31.585)"/><path d="m82.966232 90.290543h4.136059v4.136059h-4.136059z" transform="matrix(.707 .707 -.707 .707 90.213 -33.077)"/><path d="m86.569321 93.893623h4.136059v4.136059h-4.136059z" transform="matrix(.707 .707 -.707 .707 93.816 -34.57)"/><path d="m90.172401 97.496712h4.136059v4.136059h-4.136059z" transform="matrix(.707 .707 -.707 .707 97.42 -36.062)"/></g><path d="m56.194107 60.512054h11.765946v3.128066h-11.765946z" fill="#474c5b" transform="matrix(-.707 -.707 .707 -.707 62.078 149.866)"/><path d="m35.6751442 48.0954742 18.8451881 18.845192c.3677101.3677063.9639435.3677521 1.3316536.0000458l11.0897179-11.0897179c.3677063-.3677101.3676605-.9639435-.0000458-1.3316536l-18.845192-18.8451881c-.3677063-.3677101-.963768-.3675804-1.3314781.0001297l-11.089714 11.089714c-.3677101.3677101-.3678398.9637718-.0001297 1.3314781z" fill="#64798a"/><g fill="#ebf0f3"><path d="m52.783943 60.108219h4.136059v4.136059h-4.136059z" transform="matrix(-.707 -.707 .707 -.707 49.673 144.928)"/><path d="m49.180859 56.505131h4.136059v4.136059h-4.136059z" transform="matrix(-.707 -.707 .707 -.707 46.07 136.229)"/><path d="m45.577774 52.902046h4.136059v4.136059h-4.136059z" transform="matrix(-.707 -.707 .707 -.707 42.467 127.53)"/><path d="m41.974686 49.298962h4.136059v4.136059h-4.136059z" transform="matrix(-.707 -.707 .707 -.707 38.864 118.832)"/><path d="m38.371601 45.695873h4.136059v4.136059h-4.136059z" transform="matrix(-.707 -.707 .707 -.707 35.261 110.133)"/><path d="m56.446587 56.445576h4.136059v4.136059h-4.136059z" transform="matrix(-.707 -.707 .707 -.707 58.515 141.265)"/><path d="m52.843498 52.842491h4.136059v4.136059h-4.136059z" transform="matrix(-.707 -.707 .707 -.707 54.912 132.566)"/><path d="m49.240414 49.239407h4.136059v4.136059h-4.136059z" transform="matrix(-.707 -.707 .707 -.707 51.309 123.868)"/><path d="m45.637329 45.636318h4.136059v4.136059h-4.136059z" transform="matrix(-.707 -.707 .707 -.707 47.706 115.169)"/><path d="m42.034241 42.033234h4.136059v4.136059h-4.136059z" transform="matrix(-.707 -.707 .707 -.707 44.103 106.471)"/><path d="m60.109226 52.782936h4.136059v4.136059h-4.136059z" transform="matrix(-.707 -.707 .707 -.707 67.358 137.602)"/><path d="m56.506142 49.179852h4.136059v4.136059h-4.136059z" transform="matrix(-.707 -.707 .707 -.707 63.755 128.904)"/><path d="m52.903053 45.576763h4.136059v4.136059h-4.136059z" transform="matrix(-.707 -.707 .707 -.707 60.152 120.205)"/><path d="m49.299969 41.973679h4.136059v4.136059h-4.136059z" transform="matrix(-.707 -.707 .707 -.707 56.548 111.507)"/><path d="m45.696884 38.370594h4.136059v4.136059h-4.136059z" transform="matrix(-.707 -.707 .707 -.707 52.945 102.808)"/></g><path d="m85.0304718 64.0242996-9.2160416-9.2160416c-.794548-.7945442-2.082695-.7945862-2.8771973-.0000839l-19.815258 19.8152619c-.7945023.7945023-.7944603 2.0826492.0000839 2.8771896l9.2160416 9.2160416c.7945442.794548 2.0826073.7945023 2.8771095 0l19.8152618-19.8152618c.7945024-.7945023.7945405-2.0825654.0000001-2.8771058z" fill="#3a556a"/><path d="m65.115181 54.716515h7.922132v32.091896h-7.922132z" fill="#64798a" transform="matrix(.707 .707 -.707 .707 70.269 -28.118)"/><path d="m55.4345703 84.4042282c-5.3070984-5.3070984-13.754528-5.5351944-19.3475075-.7100906l20.0575066 20.0575104c4.8251076-5.5929795 4.5970993-14.0403214-.7099991-19.3474198z" fill="#d5d6db"/><path d="m55.4345589 84.404213c-3.6035576-3.6035538-10.658596-2.4392548-16.128334 2.5090942l13.6191826 13.6191788c4.9483451-5.4697419 6.1127051-12.5247193 2.5091514-16.128273z" fill="#ebf0f3"/><path d="m85.7619324 49.9403305-2.6405563.3841248c-.3357391.0488396-.6235199.2652512-.7636185.5742493l-2.0943909 4.6193848c-.1712646.3777466-.0904694.8220901.2028122 1.1153717l2.73909 2.73909c.2932816.2932816.7376251.374073 1.1153717.2028084l4.6193848-2.0943909c.3089981-.1400986.5254059-.4278717.5742493-.7636147l.3841248-2.6405602c.0452499-.3110657-.0590286-.6252403-.2813034-.8475151l-3.0076447-3.0076447c-.2222749-.2222748-.5364534-.3265533-.847519-.2813034z" fill="#ebf0f3"/><path d="m43.0529861 96.7858124c-.5967064-.5967102-1.5641441-.5967102-2.1608543 0-.5967064.5967026-.5967064 1.5641403 0 2.1608505.5966225.5966187 1.5640602.5966187 2.1607704-.0000839.5967064-.5967102.5967064-1.564148.0000839-2.1607666z" fill="#3a556a"/></svg>