<svg height="448pt" viewBox="0 0 448 448" width="448pt" xmlns="http://www.w3.org/2000/svg"><path d="m0 32h160v-8c0-13.253906-10.746094-24-24-24h-112c-13.253906 0-24 10.746094-24 24zm72-24h16c4.417969 0 8 3.582031 8 8s-3.582031 8-8 8h-16c-4.417969 0-8-3.582031-8-8s3.582031-8 8-8zm0 0"/><path d="m200 280v104h48v-104zm40 64h-16v-16h16zm0 0"/><path d="m344 296h32v32h-32zm0 0"/><path d="m72 296h32v32h-32zm0 0"/><path d="m349.304688 232c-2.875 5.289062-7.957032 9.019531-13.859376 10.183594-5.90625 1.160156-12.023437-.371094-16.683593-4.175782l-6.761719-5.398437v151.390625h96v-152zm42.695312 104c0 4.417969-3.582031 8-8 8h-48c-4.417969 0-8-3.582031-8-8v-48c0-4.417969 3.582031-8 8-8h48c4.417969 0 8 3.582031 8 8zm0 0"/><path d="m176 180.152344 43-34.398438c2.921875-2.34375 7.078125-2.34375 10 0l99.753906 79.75c.769532.664063 1.75 1.039063 2.765625 1.054688 2.492188-.035156 4.488281-2.066406 4.480469-4.558594-.027344-1.386719-.671875-2.6875-1.761719-3.550781l-110.238281-88.203125-48 38.402344zm0 0"/><path d="m176 148.152344 15.191406-12.152344h-15.191406zm0 0"/><path d="m376 152h35.054688l-8-16h-146.253907l20 16h67.199219c4.417969 0 8 3.582031 8 8s-3.582031 8-8 8h-47.199219l20 16h59.199219c4.417969 0 8 3.582031 8 8s-3.582031 8-8 8h-39.199219l7.488281 5.992188c3.175782 2.59375 5.503907 6.082031 6.6875 10.007812h92.078126l-8-16h-27.054688c-4.417969 0-8-3.582031-8-8s3.582031-8 8-8h19.054688l-8-16h-43.054688c-4.417969 0-8-3.582031-8-8s3.582031-8 8-8zm0 0"/><path d="m24 400h400v16h-400zm0 0"/><path d="m40 272v112h96v-112zm80 64c0 4.417969-3.582031 8-8 8h-48c-4.417969 0-8-3.582031-8-8v-48c0-4.417969 3.582031-8 8-8h48c4.417969 0 8 3.582031 8 8zm0 0"/><path d="m0 432h448v16h-448zm0 0"/><path d="m0 232c0 13.253906 10.746094 24 24 24h112c13.253906 0 24-10.746094 24-24v-8h-160zm64 0h32c4.417969 0 8 3.582031 8 8s-3.582031 8-8 8h-32c-4.417969 0-8-3.582031-8-8s3.582031-8 8-8zm0 0"/><path d="m0 208h160v-160h-160zm80-24c-8.835938 0-16-7.164062-16-16s7.164062-16 16-16 16 7.164062 16 16-7.164062 16-16 16zm28.335938-33.023438c-3.101563 3.144532-8.164063 3.179688-11.3125.078126-9.527344-9.09375-24.519532-9.09375-34.046876 0-3.1875 2.804687-8.011718 2.632812-10.988281-.394532-2.980469-3.03125-3.070312-7.855468-.210937-10.996094 15.625-15.550781 40.882812-15.550781 56.511718 0 3.136719 3.109376 3.15625 8.175782.046876 11.3125zm16.921874-16.921874c-3.125 3.125-8.191406 3.125-11.3125 0-18.746093-18.746094-49.144531-18.746094-67.890624 0-3.136719 3.03125-8.128907 2.988281-11.214844-.097657-3.085938-3.085937-3.128906-8.074219-.097656-11.214843 24.996093-24.992188 65.519531-24.992188 90.515624 0 3.121094 3.125 3.121094 8.191406 0 11.3125zm-107.472656-28.269532c34.351563-34.382812 90.078125-34.382812 124.429688 0 2.082031 2.007813 2.914062 4.980469 2.183594 7.777344-.734376 2.796875-2.917969 4.984375-5.714844 5.714844-2.796875.730468-5.769532-.101563-7.78125-2.179688-28.113282-28.109375-73.691406-28.109375-101.804688 0-3.140625 3.03125-8.128906 2.988282-11.214844-.097656-3.085937-3.085938-3.128906-8.078125-.097656-11.214844zm0 0"/><path d="m176 232c-.019531 15.886719-9.441406 30.253906-24 36.609375v115.390625h32v-112c0-4.417969 3.582031-8 8-8h64c4.417969 0 8 3.582031 8 8v112h32v-164.207031l-72-57.546875-48 38.402344zm0 0"/></svg>