<svg height="512" viewBox="0 0 64 64" width="512" xmlns="http://www.w3.org/2000/svg"><path d="m44 15a1.843 1.843 0 0 0 -.052-.316l-4-12a1 1 0 0 0 -.948-.684h-14a1 1 0 0 0 -.948.684l-4 12a1.843 1.843 0 0 0 -.052.316v34a1.843 1.843 0 0 0 .052.316l4 12a1 1 0 0 0 .948.684h14a1 1 0 0 0 .948-.684l4-12a1.843 1.843 0 0 0 .052-.316zm-2 3h-20v-2h20zm0 26h-20v-24h20zm-20 2h20v2h-20zm3.721-42h12.558l2 6h-4.279v2h4.946l.666 2h-19.224l.666-2h8.946v-2h-8.279zm12.558 56h-12.558l-2-6h6.279v-2h-6.946l-.666-2h19.224z"/><path d="m34 23h-10v10h10zm-2 8h-6v-6h6z"/><path d="m24 35h12v2h-12z"/><path d="m24 39h15v2h-15z"/><path d="m38 23h2v2h-2z"/><path d="m36 27h2v2h-2z"/><path d="m50 13.382-1.447.723.894 1.79 2.553-1.277v-4.798l3-.6v3.162l-1.447.723.894 1.79 2.553-1.277v-6.838l-7 1.4z"/><path d="m53 2a9 9 0 1 0 9 9 9.01 9.01 0 0 0 -9-9zm0 16a7 7 0 1 1 7-7 7.008 7.008 0 0 1 -7 7z"/><path d="m11 23a9 9 0 1 0 9 9 9.01 9.01 0 0 0 -9-9zm0 16a7 7 0 1 1 7-7 7.008 7.008 0 0 1 -7 7z"/><path d="m53 35a9 9 0 1 0 9 9 9.01 9.01 0 0 0 -9-9zm0 16a7 7 0 1 1 7-7 7.008 7.008 0 0 1 -7 7z"/><path d="m15 28h-8a1 1 0 0 0 -1 1v6a1 1 0 0 0 1 1h8a1 1 0 0 0 1-1v-6a1 1 0 0 0 -1-1zm-2.414 2-1.586 1.586-1.586-1.586zm-1.586 4h-3v-2.586l2.293 2.293a1 1 0 0 0 1.414 0l2.293-2.293v2.586z"/><path d="m56.293 39.293-1.274 1.274a3.878 3.878 0 0 0 -4.038 0l-1.274-1.274-1.414 1.414 1.274 1.274a3.878 3.878 0 0 0 0 4.038l-1.274 1.274 1.414 1.414 1.274-1.274a3.878 3.878 0 0 0 4.038 0l1.274 1.274 1.414-1.414-1.274-1.274a3.878 3.878 0 0 0 0-4.038l1.274-1.274zm-5.293 4.707a2 2 0 1 1 2 2 2 2 0 0 1 -2-2z"/><path d="m16 19h2v2h-2z"/><path d="m46 32h2v2h-2z"/><path d="m15 43h2v2h-2z"/><path d="m32 52h2v2h-2z"/></svg>