<svg height="512pt" viewBox="0 0 512.00008 512" width="512pt" xmlns="http://www.w3.org/2000/svg"><path d="m130.195312 128.625.382813-7.820312h-109.113281l-5.125 60.78125h97.519531c2.015625-18.976563 7.703125-36.875 16.335937-52.960938zm0 0"/><path d="m124.144531 252.621094c-5.359375-12.851563-8.925781-26.632813-10.371093-41.03125h-99.960938l-5.074219 60.191406h114.472657zm0 0"/><path d="m241.003906 340.992188c-32.035156-3.761719-60.914062-18.003907-83.09375-39.210938h-6.136718l-4.359376 89.285156h93.59375v-50.074218zm0 0"/><path d="m241.003906 0h-74.503906l-4.308594 88.269531c21.558594-19.03125 48.796875-31.761719 78.8125-35.285156zm0 0"/><path d="m345.5 0h-74.503906v52.570312c29.671875 2.652344 56.800781 14.277344 78.640625 32.148438zm0 0"/><path d="m381.433594 121.046875c11.089844 17.96875 18.371094 38.523437 20.703125 60.539063h93.523437l-5.121094-60.78125h-109.113281zm0 0"/><path d="m388.246094 260.589844.546875 11.191406h114.46875l-5.070313-60.191406h-95.964844c-1.75 17.421875-6.601562 33.9375-13.980468 49zm0 0"/><path d="m511.945312 374.804688-6.152343-73.023438h-115.535157l4.355469 89.285156h102.390625c8.773438 0 15.679688-7.511718 14.941406-16.261718zm0 0"/><path d="m270.996094 391.066406h93.589844l-4.355469-89.285156h-2.140625c-23.097656 22.085938-53.460938 36.617188-87.09375 39.621094zm0 0"/><path d="m6.210938 301.78125-6.1562505 73.023438c-.7382815 8.746093 6.1640625 16.261718 14.9414065 16.261718h102.390625l4.355469-89.285156zm0 0"/><path d="m136.472656 0h-91.042968c-7.792969 0-14.289063 5.972656-14.941407 13.738281l-6.496093 77.066407h108.050781zm0 0"/><path d="m488.007812 90.804688-6.492187-77.066407c-.65625-7.765625-7.152344-13.738281-14.945313-13.738281h-91.042968l4.433594 90.804688zm0 0"/><path d="m345.972656 420.996094c-1.230468 0-174.65625 0-179.945312 0-24.804688 0-44.988282 20.1875-44.988282 45v31.003906c0 8.285156 6.714844 15 14.996094 15h239.929688c8.28125 0 14.992187-6.714844 14.992187-15v-31c.003907-24.816406-20.179687-45.003906-44.984375-45.003906zm0 0"/><path d="m258 82c-63.410156 0-115 51.589844-115 115s51.589844 115 115 115 115-51.589844 115-115-51.589844-115-115-115zm55.605469 124.605469-67.25 67.25c-5.851563 5.855469-15.351563 5.863281-21.210938 0-5.847656-5.84375-5.875-15.339844.007813-21.222657l41.621094-41.632812h-54.773438c-8.746094 0-15.53125-7.417969-14.960938-15.984375.421876-7.425781 5.035157-10.300781 14.46875-19.738281l57.882813-57.898438c6.710937-6.71875 17.894531-5.578125 23.128906 2.355469 3.855469 5.824219 3.214844 13.742187-1.914062 18.871094l-42.378907 42.382812h54.757813c13.324219 0 20.058594 16.183594 10.621094 25.617188zm0 0"/></svg>