<svg height="469pt" viewBox="0 -3 469.86823 469" width="469pt" xmlns="http://www.w3.org/2000/svg"><path d="m181.101562 289.214844 17.394532 17.433594 17.503906 17.496093 5.917969 5.933594c5.757812 5.753906 14.914062 6.269531 21.28125 1.199219l6.640625-5.277344 75.039062-59.28125 47.757813-37.757812c26.632812-21.046876 48.777343-47.214844 65.121093-76.960938l-59.734374-59.703125zm0 0" fill="#006df0"/><path d="m166.300781 274.445312 14.800781 14.769532 196.90625-196.902344-46.867187-46.824219-12.917969-12.914062c-29.707031 16.371093-55.847656 38.511719-76.878906 65.121093l-37.761719 47.757813-59.28125 75.042969-5.277343 6.640625c-5.070313 6.363281-4.554688 15.523437 1.199218 21.277343l5.917969 5.921876zm0 0" fill="#005ece"/><path d="m146.140625 126.253906c-25.449219.023438-49.851563 10.152344-67.839844 28.160156l65.976563 66.058594 59.296875-75.019531c-16.550781-12.46875-36.710938-19.207031-57.433594-19.199219zm0 0" fill="#bddbff"/><path d="m315.902344 392.015625c33.816406-33.675781 37.640625-87.125 8.960937-125.273437l-75.015625 59.296874zm0 0" fill="#bddbff"/><path d="m146.175781 254.320312 34.910157 34.910157zm0 0" fill="#ffcd00"/><path d="m344.167969 126.152344c-12.5-12.5-32.761719-12.5-45.257813 0-12.496094 12.496094-12.496094 32.757812 0 45.253906zm0 0" fill="#ebbf00"/><path d="m298.910156 171.40625c12.496094 12.496094 32.757813 12.496094 45.257813 0 12.496093-12.496094 12.496093-32.757812 0-45.253906zm0 0" fill="#ffcd00"/><path d="m468.621094 1.695312-6.933594-.527343c-49.863281-3.785157-99.742188 7.136719-143.464844 31.40625l12.917969 12.914062 46.867187 46.824219zm0 0" fill="#cd2a00"/><g fill="#ed1c24"><path d="m468.621094 1.695312-90.613282 90.617188 59.734376 59.703125c24.246093-43.699219 35.164062-93.542969 31.398437-143.375zm0 0"/><path d="m378.007812 92.3125-46.867187-46.824219zm0 0"/><path d="m378.007812 92.3125 59.734376 59.703125zm0 0"/></g><path d="m181.085938 289.230469-45.261719 45.265625 12.285156 12.285156c12.496094 12.492188 32.753906 12.492188 45.25 0l22.613281-22.613281-17.488281-17.511719zm0 0" fill="#00479b"/><path d="m181.085938 289.230469-14.785157-14.785157-20.152343-20.101562-22.605469 22.605469c-12.492188 12.496093-12.492188 32.753906 0 45.25l12.28125 12.296875 45.253906-45.257813zm0 0" fill="#003f8a"/><path d="m146.175781 254.320312-.027343.023438 20.152343 20.101562zm0 0" fill="#00479b"/><path d="m198.496094 306.648438 17.484375 17.511718.019531-.015625zm0 0" fill="#00479b"/><path d="m44.277344 358.152344c-18.742188 18.742187-36.277344 104.167968-36.277344 104.167968l104.167969-104.167968c-18.746094-18.75-49.144531-18.75-67.890625 0zm0 0" fill="#ff9811"/><path d="m112.167969 426.039062c18.746093-18.746093 18.746093-49.140624 0-67.886718l-104.167969 104.167968s85.421875-17.539062 104.167969-36.28125zm0 0" fill="#ffa733"/><path d="m180.285156 434.039062c-3.234375 0-6.148437-1.949218-7.386718-4.9375-1.238282-2.992187-.554688-6.429687 1.730468-8.71875l33.9375-33.945312c3.140625-3.03125 8.128906-2.988281 11.214844.097656 3.085938 3.085938 3.128906 8.078125.097656 11.214844l-33.9375 33.945312c-1.5 1.5-3.535156 2.34375-5.65625 2.34375zm0 0" fill="#ff5023"/><path d="m244.285156 442.039062c-3.234375 0-6.148437-1.949218-7.386718-4.9375-1.238282-2.992187-.554688-6.429687 1.730468-8.71875l33.9375-33.945312c3.140625-3.03125 8.128906-2.988281 11.214844.097656 3.085938 3.085938 3.128906 8.078125.097656 11.214844l-33.9375 33.945312c-1.5 1.5-3.535156 2.34375-5.65625 2.34375zm0 0" fill="#ff7956"/><path d="m152 462.320312c-3.238281-.003906-6.152344-1.949218-7.390625-4.941406-1.238281-2.988281-.554687-6.429687 1.734375-8.714844l5.65625-5.65625c2.007812-2.082031 4.980469-2.914062 7.777344-2.183593 2.796875.734375 4.980468 2.917969 5.714844 5.714843.730468 2.796876-.101563 5.769532-2.183594 7.78125l-5.65625 5.65625c-1.496094 1.5-3.53125 2.34375-5.652344 2.34375zm0 0" fill="#ff5023"/><path d="m36.285156 298.039062c-3.234375 0-6.148437-1.949218-7.386718-4.9375-1.238282-2.992187-.554688-6.429687 1.730468-8.71875l33.9375-33.945312c3.140625-3.03125 8.128906-2.988281 11.214844.097656 3.085938 3.085938 3.128906 8.078125.097656 11.214844l-33.9375 33.945312c-1.5 1.5-3.535156 2.34375-5.65625 2.34375zm0 0" fill="#ff5023"/><path d="m36.285156 234.039062c-3.234375 0-6.148437-1.949218-7.386718-4.9375-1.238282-2.992187-.554688-6.429687 1.730468-8.71875l33.9375-33.945312c3.140625-3.03125 8.128906-2.988281 11.214844.097656 3.085938 3.085938 3.128906 8.078125.097656 11.214844l-33.9375 33.945312c-1.5 1.5-3.535156 2.34375-5.65625 2.34375zm0 0" fill="#ff7956"/><path d="m8 326.320312c-3.238281-.003906-6.152344-1.949218-7.390625-4.941406-1.238281-2.988281-.5546875-6.429687 1.734375-8.714844l5.65625-5.65625c2.007812-2.082031 4.980469-2.914062 7.777344-2.183593 2.796875.734375 4.980468 2.917969 5.714844 5.714843.730468 2.796876-.101563 5.769532-2.183594 7.78125l-5.65625 5.65625c-1.496094 1.5-3.53125 2.34375-5.652344 2.34375zm0 0" fill="#ff5023"/></svg>