<svg id="Layer_5" enable-background="new 0 0 64 64" height="512" viewBox="0 0 64 64" width="512" xmlns="http://www.w3.org/2000/svg"><path d="m34 51.414 6.414-6.414-4.414-4.414-1 1-3.086-3.086 1.448-1.448-11.539-13.461 1.591-1.591-4.414-4.414-12.414 12.414 4.414 4.414 1.591-1.591 4.936 4.231c-.326.579-.527 1.236-.527 1.946 0 1.519.861 2.827 2.111 3.504l-4.831 14.496h-2.28c-2.757 0-5 2.243-5 5v1h28v-1c0-2.757-2.243-5-5-5h-2.28l-4.832-14.496c.2-.108.388-.23.566-.369l2.597 2.227 1.448-1.448 3.087 3.086-1 1zm3.586-6.414-3.586 3.586-1.586-1.586 3.586-3.586zm-28.172-15 9.586-9.586 1.586 1.586-9.586 9.586zm11.586 7c1.103 0 2 .897 2 2s-.897 2-2 2-2-.897-2-2 .897-2 2-2zm-1 9.161v10.839h-3.613zm12.829 14.839h-23.658c.413-1.164 1.525-2 2.829-2h18c1.304 0 2.416.836 2.829 2zm-10.829-4v-10.839l3.613 10.839zm3.947-15.362-1.262-1.082c.203-.479.315-1.004.315-1.556 0-2.206-1.794-4-4-4-.769 0-1.48.228-2.091.606l-4.901-4.2 6.397-6.397 10.232 11.939zm2.967-.138 1.586-1.586 3.086 3.086-1.586 1.586z"/><path d="m59.084 18.328-4.914-1.092c2.322-1.182 3.83-3.586 3.83-6.236v-2.749c0-3.884-3.044-7.136-6.785-7.248-1.931-.071-3.72.643-5.09 1.973s-2.125 3.114-2.125 5.024v3c0 2.65 1.508 5.054 3.83 6.235l-4.914 1.092c-2.306.513-3.916 2.52-3.916 4.881v15.792c0 1.654 1.346 3 3 3h1v21h16v-21h1c1.654 0 3-1.346 3-3v-15.792c0-2.361-1.61-4.368-3.916-4.88zm1.916 4.88v9.792h-2v-8h-2v10h-5.764l2.844-1.422-1.046-8.37.576-1 1.994 1.496 1.445-5.78 1.601.356c1.384.307 2.35 1.512 2.35 2.928zm-10-.958.999.749-.577 1.001h-.844l-.577-1.001zm-.117 3.75h.234l.803 6.422-.92.46-.92-.46zm4.214-6.51-.701 2.806-2.039-1.529 1.095-1.643zm-9.097-8.49v-3c0-1.364.539-2.639 1.519-3.588.979-.95 2.276-1.451 3.636-1.409 2.671.08 4.845 2.435 4.845 5.248v2.749c0 2.11-1.34 4.002-3.334 4.708l-.666.237v1.753l-1 1.5-1-1.5v-1.753l-.666-.236c-1.994-.707-3.334-2.599-3.334-4.709zm2.548 8.125 1.095 1.643-2.039 1.529-.701-2.806zm-5.198 1.155 1.601-.356 1.445 5.78 1.994-1.496.576 1-1.046 8.37 2.844 1.422h-5.764v-10h-2v8h-2v-9.792c0-1.416.966-2.621 2.35-2.928zm-1.35 19.72c-.552 0-1-.449-1-1v-4h2v5zm15 21h-5v-20h-2v20h-5v-19-5h12v5zm3-21h-1v-5h2v4c0 .551-.448 1-1 1z"/><path d="m3.184 17.941c.237.083.604.213.803.314-.007.214-.071.582-.113.819-.161.922-.382 2.185.644 2.75.958.526 1.907-.213 2.668-.806.237-.185.616-.48.815-.573.199.092.578.389.815.573.578.451 1.264.986 1.98.986.227 0 .457-.054.688-.181 1.024-.564.804-1.828.644-2.75-.042-.238-.106-.604-.113-.819.198-.101.565-.23.803-.314.971-.342 2.182-.769 2.182-1.94s-1.211-1.598-2.184-1.941c-.237-.083-.604-.213-.803-.314.007-.214.071-.582.113-.819.161-.922.382-2.185-.644-2.75-.961-.528-1.907.212-2.668.806-.236.185-.615.48-.814.573-.199-.092-.578-.389-.815-.573-.761-.593-1.709-1.334-2.668-.805-1.024.564-.804 1.828-.644 2.75.042.238.106.604.113.819-.198.101-.565.23-.803.314-.972.342-2.183.769-2.183 1.94s1.211 1.598 2.184 1.941zm.664-1.996c.783-.276 1.521-.536 1.888-1.139.386-.635.245-1.443.108-2.224-.007-.04-.015-.083-.022-.127.048.037.093.072.133.104.64.498 1.3 1.014 2.046 1.014s1.406-.515 2.045-1.014c.041-.031.086-.066.134-.104-.008.045-.016.087-.022.126-.137.782-.277 1.59.108 2.224.366.604 1.104.864 1.888 1.14.047.017.099.035.153.055-.055.02-.106.038-.153.055-.783.276-1.521.536-1.888 1.139-.386.635-.245 1.443-.108 2.224.007.04.015.083.022.127-.048-.037-.093-.072-.133-.104-.64-.498-1.3-1.014-2.046-1.014s-1.406.515-2.045 1.014c-.041.031-.086.066-.134.104.008-.045.016-.087.022-.126.137-.782.277-1.59-.108-2.224-.366-.604-1.104-.864-1.888-1.14-.047-.017-.099-.035-.154-.055.055-.02.107-.038.154-.055z"/><path d="m17.082 8.942c.241.084.613.214.815.315-.009.214-.073.578-.114.813-.163.924-.387 2.19.647 2.755.957.524 1.91-.213 2.676-.804.243-.188.634-.489.834-.578.2.089.591.391.834.578.582.45 1.271.982 1.99.982.227 0 .456-.053.687-.178 1.033-.564.81-1.83.647-2.754-.042-.236-.106-.601-.114-.814.201-.102.573-.231.814-.315.981-.342 2.202-.769 2.202-1.942s-1.221-1.6-2.201-1.942c-.241-.084-.613-.214-.814-.315.008-.214.072-.578.114-.814.162-.924.386-2.189-.648-2.754-.956-.522-1.91.213-2.676.804-.243.188-.634.489-.834.578-.2-.089-.591-.391-.833-.578-.766-.591-1.715-1.325-2.678-.805-1.033.564-.81 1.83-.646 2.754.042.236.106.6.114.814-.202.102-.574.231-.815.316-.981.342-2.202.769-2.202 1.942s1.221 1.6 2.201 1.942zm.659-1.996c.788-.275 1.532-.535 1.902-1.136.391-.637.248-1.447.109-2.23-.008-.042-.016-.089-.024-.139.056.042.109.083.156.12.644.497 1.309 1.011 2.056 1.011s1.413-.514 2.057-1.011c.047-.037.1-.077.156-.12-.009.049-.018.097-.024.139-.139.783-.281 1.593.109 2.229.369.602 1.113.862 1.901 1.137.048.017.099.035.154.054-.055.019-.106.037-.153.054-.788.275-1.532.535-1.901 1.136-.391.637-.248 1.446-.109 2.229.007.043.016.09.024.14-.057-.043-.109-.084-.156-.121-.644-.497-1.31-1.011-2.057-1.011s-1.413.514-2.057 1.011c-.047.037-.1.077-.155.12.008-.05.017-.097.024-.14.138-.782.28-1.591-.11-2.229-.369-.602-1.113-.861-1.901-1.136-.048-.016-.099-.034-.154-.053.055-.019.106-.037.153-.054z"/><path d="m5 1h2v2h-2z"/><path d="m5 5h2v2h-2z"/><path d="m7 3h2v2h-2z"/><path d="m3 3h2v2h-2z"/><path d="m34 7h2v2h-2z"/><path d="m34 11h2v2h-2z"/><path d="m36 9h2v2h-2z"/><path d="m32 9h2v2h-2z"/><path d="m3 33h2v2h-2z"/><path d="m3 37h2v2h-2z"/><path d="m5 35h2v2h-2z"/><path d="m1 35h2v2h-2z"/></svg>