<svg height="512pt" viewBox="-100 0 512 512.00025" width="512pt" xmlns="http://www.w3.org/2000/svg"><path d="m155.800781 193.082031c.0625 0 .125.003907.1875.003907s.125-.003907.1875-.003907c26.035157-.324219 48.738281-14.214843 64.832031-34.015625-8.972656-2.667968-19.710937-8.265625-28.945312-19.855468-6.066406-7.613282-8.914062-9.792969-10.070312-10.414063-1.621094-.871094-6.082032-1.4375-10.234376-1.878906-7.363281-.78125-16.53125-1.753907-26.972656-4.308594-31.324218-7.65625-61.578125-35.449219-76.792968-51.300781-1.4375 6.390625-2.191407 13.023437-2.179688 19.820312 0 47.59375 38.480469 101.308594 89.988281 101.953125zm0 0"/><path d="m151.929688 93.375c8.480468 2.074219 16.199218 2.890625 23.003906 3.617188 17.777344 1.886718 25.484375 4.417968 40.664062 23.464843 9.683594 12.152344 22.070313 10.796875 22.070313 10.796875s3.664062-9.292968 5.175781-15.082031c2.203125-8.425781 3.320312-16.851563 3.320312-25.011719.101563-49.414062-40.234374-90.304687-89.917968-91.15624975-.171875-.00390625-.34375-.00390625-.515625 0-24.746094.42187475-47.84375 10.71484375-65.039063 28.98046875l-9.640625 11.9375c11.375 13.746094 43.539063 45.769531 70.878907 52.453125zm0 0"/><path d="m17.011719 284.160156c11 7.660156 20.617187 16.847656 28.648437 27.164063l3.484375-1.558594c11.929688-5.328125 16.09375-6.8125 17.703125-7.335937 44.992188-15.605469 76.050782-44.625 94.195313-66.242188 4.191406-4.996094 7.910156-9.84375 11.164062-14.378906-5.148437.839844-10.371093 1.300781-15.652343 1.367187l-.566407.003907-.566406-.003907c-26.601563-.335937-51.890625-10.65625-72.878906-29.433593-4.058594 2.097656-8.042969 4.351562-11.929688 6.804687-25.023437 15.789063-45.238281 38.105469-58.457031 64.535156-3.34375 6.683594-1.277344 14.808594 4.855469 19.078125zm0 0"/><path d="m229.839844 193.375c-3.707032 3.347656-7.546875 6.429688-11.511719 9.238281-.367187.9375-.707031 1.765625-.988281 2.402344-.101563.230469-10.503906 23.425781-33.242188 50.519531-20.648437 24.601563-56.089844 57.632813-107.75 75.453125-3.074218.960938-14.929687 6.257813-14.929687 6.257813s3.617187 8.308594 5.164062 12.902344c4.507813 13.394531 6.804688 27.390624 6.839844 41.601562h163.191406c0-.390625-.003906-.71875-.003906-1.046875 0-43.824219 21.742187-84.613281 58.15625-109.121094 6.375-4.289062 8.492187-12.695312 4.914063-19.492187-13.976563-26.539063-35.039063-48.65625-60.910157-63.957032-1.789062-1.054687-5.53125-3.011718-8.929687-4.757812zm0 0"/><path d="m296.929688 421.847656h-281.882813c-8.308594 0-15.046875 6.738282-15.046875 15.046875v60.058594c0 8.308594 6.738281 15.046875 15.046875 15.046875h281.882813c8.308593 0 15.046874-6.738281 15.046874-15.046875v-60.058594c0-8.308593-6.738281-15.046875-15.046874-15.046875zm0 0"/></svg>