<svg height="512pt" viewBox="0 -55 512 512" width="512pt" xmlns="http://www.w3.org/2000/svg"><path d="m443.734375 68.457031c0 28.273438-22.925781 51.199219-51.199219 51.199219-28.277344 0-51.203125-22.925781-51.203125-51.199219 0-28.277343 22.925781-51.203125 51.203125-51.203125 28.273438 0 51.199219 22.925782 51.199219 51.203125zm0 0"/><path d="m503.464844 315.921875c-38.164063 0-57.046875-15.628906-77.039063-32.171875-21.441406-17.75-43.609375-36.09375-87.925781-36.09375s-66.492188 18.34375-87.933594 36.09375c-19.992187 16.542969-38.875 32.171875-77.050781 32.171875-38.171875 0-57.058594-15.628906-77.050781-32.171875-21.441406-17.75-43.613282-36.09375-87.929688-36.09375-4.714844 0-8.535156 3.820312-8.535156 8.53125 0 4.714844 3.820312 8.535156 8.535156 8.535156 38.171875 0 57.054688 15.628906 77.046875 32.167969 21.441407 17.75 43.617188 36.097656 87.933594 36.097656s66.492187-18.347656 87.933594-36.097656c19.992187-16.539063 38.875-32.167969 77.050781-32.167969s57.050781 15.628906 77.042969 32.167969c21.441406 17.75 43.605469 36.097656 87.921875 36.097656 4.714844 0 8.535156-3.820312 8.535156-8.53125 0-4.714843-3.820312-8.535156-8.535156-8.535156zm0 0"/><path d="m503.464844 384.1875c-38.164063 0-57.046875-15.628906-77.039063-32.167969-21.441406-17.75-43.609375-36.097656-87.925781-36.097656s-66.492188 18.347656-87.933594 36.097656c-19.992187 16.539063-38.875 32.167969-77.050781 32.167969-38.171875 0-57.058594-15.628906-77.050781-32.167969-21.441406-17.75-43.613282-36.097656-87.929688-36.097656-4.714844 0-8.535156 3.820313-8.535156 8.535156 0 4.710938 3.820312 8.53125 8.535156 8.53125 38.171875 0 57.054688 15.628907 77.046875 32.171875 21.441407 17.75 43.617188 36.09375 87.933594 36.09375s66.492187-18.34375 87.933594-36.09375c19.992187-16.542968 38.875-32.171875 77.050781-32.171875s57.050781 15.628907 77.042969 32.171875c21.441406 17.75 43.605469 36.09375 87.921875 36.09375 4.714844 0 8.535156-3.820312 8.535156-8.53125 0-4.714844-3.820312-8.535156-8.535156-8.535156zm0 0"/><path d="m503.464844 247.65625c-38.164063 0-57.046875-15.628906-77.039063-32.171875-6.699219-5.542969-13.464843-11.140625-20.957031-16.226563 6.15625-4.195312 10.449219-10.613281 11.980469-17.90625 1.898437-8.816406-.292969-18.015624-5.960938-25.027343-5.667969-7.007813-14.207031-11.078125-23.222656-11.070313h-19.285156c-3.945313.019532-7.511719-2.335937-9.042969-5.972656-7.453125-17.007812-17.757812-32.621094-30.464844-46.164062l-52.140625-55.382813-22.953125-24.320313c-12.308594-13.136718-31.570312-17.070312-48.042968-9.8125l-31.402344 13.652344-62.207032 27.136719c-10.929687 4.753906-17.980468 15.558594-17.921874 27.476563-.011719 4.085937.832031 8.125 2.476562 11.863281 6.613281 15.109375 24.207031 22.015625 39.335938 15.445312l76.289062-33.367187c3.308594-1.417969 7.152344-.636719 9.644531 1.964844l48.042969 51.027343-190.933594 83.375c-20.429687-15.460937-45.515625-23.5-71.125-22.789062-4.714844 0-8.535156 3.824219-8.535156 8.535156s3.820312 8.535156 8.535156 8.535156c38.171875 0 57.054688 15.628907 77.046875 32.167969 21.441407 17.75 43.617188 36.097656 87.933594 36.097656s66.492187-18.347656 87.933594-36.097656c19.992187-16.539062 38.875-32.167969 77.050781-32.167969s57.050781 15.628907 77.042969 32.167969c21.441406 17.75 43.605469 36.097656 87.921875 36.097656 4.714844 0 8.535156-3.820312 8.535156-8.535156 0-4.710938-3.820312-8.53125-8.535156-8.53125zm0 0"/></svg>