<svg height="512pt" viewBox="0 0 512 511" width="512pt" xmlns="http://www.w3.org/2000/svg"><path d="m341.988281 251.601562 9.648438 11.859376 160.363281-89.308594-2.9375-14.34375c-6-29.304688-21.847656-60.945313-44.621094-89.085938-22.875-28.269531-51.269531-51.136718-79.945312-64.386718l-12.628906-5.835938-129.378907 128.8125 8.953125 11.003906-233.085937 210.953125 15.542969 20.644531-33.898438 25.59375 24.089844 31.902344 33.855468-25.5625 12.828126 17.035156 149.265624-93.164062-91.425781 183.683594h44.652344l62.648437-125.859375v125.859375h39.976563v-125.859375l62.644531 125.859375h44.652344l-108.425781-217.839844zm37.859375-202.636718c38.285156 22.355468 73.007813 64.632812 86.316406 104.957031l-104.683593 58.296875-65.164063-80.089844zm-63.289062 171.382812-99.210938 61.925782-26.796875-32.933594 86.15625-77.972656zm-244.296875 136.054688 88.609375-80.199219 22.296875 27.40625-102.492188 63.96875zm0 0"/></svg>