<svg height="511pt" viewBox="0 0 511 511.99983" width="511pt" xmlns="http://www.w3.org/2000/svg"><path d="m15.5 482c-8.285156 0-15 6.714844-15 15s6.714844 15 15 15h481.992188c8.285156 0 15-6.714844 15-15s-6.714844-15-15-15h-15v-60h15c8.285156 0 15-6.714844 15-15 0-8.28125-6.714844-15-15-15h-75.996094v-91.996094h45.996094c5.683593 0 10.878906-3.210937 13.417968-8.292968l30-60c2.324219-4.648438 2.074219-10.171876-.65625-14.59375-2.734375-4.421876-7.5625-7.113282-12.761718-7.113282h-75.996094v-30h14.996094c8.285156 0 15-6.714844 15-15v-54.945312c36.011718-16.792969 61-53.082032 61-95.050782 0-4.621093-2.128907-8.980468-5.769532-11.824218-3.640625-2.84375-8.386718-3.847656-12.867187-2.730469-155.28125 38.820313-319.433594 38.820313-474.71875 0-9.472657-2.367187-18.636719 4.8125-18.636719 14.554687 0 41.964844 24.988281 78.253907 61 95.050782v54.945312c0 8.285156 6.714844 15 15 15h15v30h-76c-5.199219 0-10.027344 2.691406-12.761719 7.113282-2.7304685 4.421874-2.980469 9.945312-.65625 14.59375l30 60c2.542969 5.082031 7.734375 8.292968 13.417969 8.292968h46v91.996094h-76c-8.285156 0-15 6.71875-15 15 0 8.285156 6.714844 15 15 15h15v60zm315.996094-181.996094v181.996094h-150v-181.996094zm-120-120v30h-30v-30zm30 0h30v90h-30zm90 0v30h-30v-30zm120.996094 241.996094v60h-30.996094v-60zm-60.996094 60h-30v-181.996094h30zm66.726562-211.996094h-156.726562v-30h171.726562zm-66.726562-60h-30v-30h30zm-358.359375-175.375c146.605469 33.253906 300.117187 33.253906 446.71875 0-8.761719 31.867188-38.332031 55.375-73.359375 55.375h-299.996094c-35.027344 0-64.597656-23.507812-73.363281-55.375zm73.363281 85.375h299.996094c5.089844 0 10.097656-.363281 15-1.054687v31.054687h-329.996094v-31.054687c4.902344.691406 9.90625 1.054687 15 1.054687zm15 60h29.996094v30h-29.996094zm-81.730469 60h171.726563v30h-156.726563zm111.726563 60v181.996094h-29.996094v-181.996094zm-90.996094 121.996094h31v60h-31zm0 0"/></svg>