<svg height="512pt" viewBox="-6 0 511 512" width="512pt" xmlns="http://www.w3.org/2000/svg"><path d="m499.679688 198.128906c-19.234376-70.328125-39.238282-116.976562-39.4375-117.4375-.382813-.882812-.925782-1.683594-1.605469-2.363281-39.75-39.75-100.308594-61.589844-102.867188-62.5-.027343-.007813-.054687-.015625-.082031-.023437-.019531-.007813-.039062-.019532-.058594-.023438-1.929687-.644531-47.945312-15.78125-105.40625-15.78125-57.457031 0-103.472656 15.136719-105.402344 15.777344-.019531.007812-.039062.019531-.058593.027344-.03125.007812-.058594.011718-.085938.023437-.652343.234375-16.277343 5.828125-36.929687 16.453125-3.738282 1.921875-5.207032 6.503906-3.285156 10.238281 1.347656 2.621094 4.007812 4.128907 6.769531 4.128907 1.167969 0 2.359375-.273438 3.472656-.84375 10.753906-5.53125 20.171875-9.667969 26.535156-12.296876 8.972657 30.871094 54.375 69.714844 108.984375 69.714844 54.605469 0 100.003906-38.835937 108.984375-69.707031 17.632813 7.304687 58.847657 26.277344 87.632813 54.53125 2.261718 5.414063 11.089844 27.035156 21.882812 59.894531-7.90625 23.734375-21.648437 42.3125-40.910156 55.214844-8.328125 5.582031-16.011719 8.890625-21.214844 10.730469l-9.617187-34.757813c-1.015625-3.667968-4.582031-6.023437-8.351563-5.507812-3.769531.511718-6.582031 3.730468-6.582031 7.535156v250.140625c-3.832031 3.101563-13.074219 9.617187-29.519531 15.878906-3.925782 1.492188-5.894532 5.886719-4.402344 9.8125 1.15625 3.03125 4.042969 4.898438 7.109375 4.898438.898437 0 1.8125-.160157 2.703125-.5 10.367188-3.945313 18.289062-8.058594 24.109375-11.613281v15.515624c-8.550781 7.007813-44.703125 31.503907-131.820313 31.503907-28.941406 0-70.671874-2.910157-105.128906-16.769531-14.699218-5.914063-23.105468-11.867188-26.695312-14.769532v-15.460937c18.53125 11.308593 58.53125 28.261719 131.824218 28.261719 28.589844 0 54.675782-2.597657 77.53125-7.726563 4.097657-.917969 6.675782-4.984375 5.753907-9.082031-.917969-4.097656-4.984375-6.675782-9.082031-5.753906-21.765626 4.882812-46.730469 7.355468-74.203126 7.355468-86.3125 0-123.101562-24.570312-131.824218-31.566406v-250.125c0-3.804688-2.808594-7.023438-6.578125-7.535156-3.773438-.511719-7.335938 1.839844-8.351563 5.507812l-9.621094 34.757813c-5.199218-1.84375-12.882812-5.152344-21.214843-10.730469-19.257813-12.902344-33-31.480469-40.90625-55.210938 10.785156-32.839843 19.617187-54.484374 21.878906-59.898437 9.671875-9.492187 21.5625-18.75 35.367187-27.53125 3.542969-2.253906 4.589844-6.957031 2.335938-10.5s-6.953125-4.589844-10.5-2.332031c-15.242188 9.695312-28.363281 20.007812-39 30.644531-.679688.679687-1.226562 1.480469-1.605469 2.363281-.199219.460938-20.207031 47.109375-39.4375 117.4375-.179687.652344-.269531 1.339844-.269531 2.015625 0 1.042969.214844 2.074219.628906 3.027344 14.789063 34.089844 55.898438 63.988281 87.972656 63.988281 3.417969 0 6.417969-2.28125 7.328126-5.574218l6.765624-24.445313v231.527344c0 1.945312.746094 3.816406 2.082032 5.226562 1.476562 1.558594 37.332031 38.105469 144.949218 38.105469 107.617188 0 143.472657-36.546875 144.945313-38.105469 1.339844-1.410156 2.085937-3.28125 2.085937-5.226562v-231.523438l6.761719 24.441407c.914063 3.296874 3.910157 5.578124 7.332031 5.578124 32.070313 0 73.179688-29.902343 87.972657-63.992187.414062-.953125.628906-1.996094.628906-3.035156-.003906-.679688-.09375-1.355469-.273437-2.007813zm-249.457032-110.113281c-49.929687 0-88.886718-36.84375-94.652344-59.589844 14.035157-3.972656 51.351563-13.21875 94.652344-13.21875 43.304688 0 80.621094 9.246094 94.65625 13.21875-5.769531 22.746094-44.722656 59.589844-94.65625 59.589844zm-166.800781 163.558594c-24.707031-3.21875-54.90625-26.339844-67.257813-52.078125 2.820313-10.214844 5.648438-19.890625 8.421876-28.980469 19.1875 38.523437 50.570312 53.160156 65.191406 58.09375zm333.605469 0-6.355469-22.964844c14.621094-4.933594 46.003906-19.570313 65.191406-58.09375 2.769531 9.089844 5.597657 18.761719 8.417969 28.980469-12.347656 25.734375-42.546875 48.859375-67.253906 52.078125zm0 0"/><path d="m230.777344 35.898438c0 4.199218 3.40625 7.601562 7.605468 7.601562h23.671876c4.199218 0 7.601562-3.402344 7.601562-7.601562 0-4.199219-3.402344-7.605469-7.601562-7.605469h-23.671876c-4.199218 0-7.605468 3.40625-7.605468 7.605469zm0 0"/><path d="m315.460938 301.828125c17.425781-17.425781 27.023437-40.59375 27.023437-65.238281 0-24.644532-9.597656-47.8125-27.023437-65.238282-17.425782-17.425781-40.59375-27.019531-65.238282-27.019531-24.640625 0-47.8125 9.59375-65.238281 27.019531-17.425781 17.425782-27.019531 40.59375-27.019531 65.238282 0 24.644531 9.59375 47.8125 27.019531 65.238281s40.597656 27.023437 65.238281 27.023437c24.644532 0 47.8125-9.597656 65.238282-27.023437zm-142.289063-65.238281c0-20.582032 8.015625-39.929688 22.570313-54.484375 14.550781-14.550781 33.898437-22.566407 54.480468-22.566407 20.582032 0 39.933594 8.015626 54.484375 22.566407 14.550781 14.554687 22.566407 33.902343 22.566407 54.484375 0 20.582031-8.011719 39.929687-22.566407 54.484375-14.554687 14.554687-33.902343 22.566406-54.484375 22.566406-20.582031 0-39.929687-8.011719-54.480468-22.566406-14.554688-14.554688-22.570313-33.902344-22.570313-54.484375zm0 0"/><path d="m214.550781 217.214844c5.515625 0 10.699219 2.148437 14.597657 6.050781 1.488281 1.484375 3.433593 2.226563 5.378906 2.226563 1.945312 0 3.890625-.742188 5.375-2.226563 2.972656-2.972656 2.972656-7.785156.003906-10.753906-6.773438-6.773438-15.777344-10.503907-25.355469-10.503907s-18.582031 3.730469-25.355469 10.503907c-2.96875 2.96875-2.96875 7.785156 0 10.753906s7.785157 2.96875 10.753907 0c3.902343-3.902344 9.085937-6.050781 14.601562-6.050781zm0 0"/><path d="m271.296875 223.265625c3.898437-3.902344 9.085937-6.050781 14.597656-6.050781 5.515625 0 10.703125 2.148437 14.601563 6.050781 1.484375 1.484375 3.429687 2.226563 5.378906 2.226563 1.945312 0 3.890625-.742188 5.375-2.226563 2.972656-2.972656 2.972656-7.785156 0-10.753906-6.769531-6.773438-15.777344-10.503907-25.355469-10.503907-9.574219 0-18.578125 3.730469-25.351562 10.503907-2.972657 2.96875-2.972657 7.78125 0 10.753906 2.96875 2.96875 7.785156 2.96875 10.753906 0zm0 0"/><path d="m301.523438 260.148438c2.96875-2.972657 2.96875-7.785157 0-10.753907-2.972657-2.96875-7.785157-2.972656-10.753907 0-10.832031 10.828125-25.230469 16.792969-40.542969 16.792969-15.316406 0-29.71875-5.964844-40.546874-16.792969-2.96875-2.96875-7.78125-2.972656-10.753907 0-2.96875 2.96875-2.96875 7.785157 0 10.753907 13.703125 13.699218 31.921875 21.246093 51.300781 21.246093 19.375 0 37.59375-7.546875 51.296876-21.246093zm0 0"/></svg>