<svg height="512pt" viewBox="0 0 512 512" width="512pt" xmlns="http://www.w3.org/2000/svg"><path d="m394.085938 117.917969c-36.878907-36.890625-85.917969-57.207031-138.085938-57.207031s-101.207031 20.316406-138.082031 57.203124c-36.890625 36.878907-57.207031 85.917969-57.207031 138.085938 0 107.683594 87.605468 195.289062 195.289062 195.289062s195.289062-87.605468 195.289062-195.289062c0-52.167969-20.316406-101.207031-57.203124-138.082031zm0 0" fill="#9ffeff"/><path d="m451.289062 256c0-52.167969-20.316406-101.207031-57.203124-138.082031-36.878907-36.890625-85.917969-57.207031-138.085938-57.207031v390.578124c107.683594 0 195.289062-87.605468 195.289062-195.289062zm0 0" fill="#78e3f6"/><path d="m326.132812 183.675781c0-32.464843.441407-64.964843 0-97.429687-.007812-.605469 0-1.210938 0-1.816406 0-6.964844-5.371093-13.667969-12.222656-14.964844-37.875-11.667969-79.085937-11.5625-116.898437.328125-6.398438 2.011719-11.140625 7.792969-11.140625 14.636719v84.117187c0 29.640625-.296875 59.296875 0 88.9375.363281 36.859375 28.542968 66.90625 65.128906 70.132813 33.351562 2.941406 65.703125-20.90625 73.183594-53.453126 2.664062-11.589843 1.949218-23.707031 1.949218-35.511718 0-18.328125 0-36.648438 0-54.976563zm0 0" fill="#fff"/><path d="m326.132812 86.246094c-.007812-.605469 0-1.210938 0-1.816406 0-6.964844-5.371093-13.667969-12.222656-14.964844-18.757812-5.777344-38.332031-8.664063-57.910156-8.667969v267.046875c31.527344.285156 61.074219-22.761719 68.183594-53.679688 2.664062-11.589843 1.949218-23.707031 1.949218-35.511718 0-18.324219 0-36.648438 0-54.972656 0-32.46875.441407-64.96875 0-97.433594zm0 0" fill="#9ffeff"/><path d="m256 271.179688c7.9375 0 15.546875-6.984376 15.179688-15.179688-.371094-8.222656-6.671876-15.179688-15.179688-15.179688-7.9375 0-15.546875 6.984376-15.179688 15.179688.371094 8.222656 6.671876 15.179688 15.179688 15.179688zm0 0" fill="#fff04a"/><path d="m271.179688 256c-.371094-8.222656-6.671876-15.179688-15.179688-15.179688v30.359376c7.9375 0 15.546875-6.984376 15.179688-15.179688zm0 0" fill="#ff961f"/><path d="m256 512c-68.382812 0-132.671875-26.628906-181.019531-74.980469-48.351563-48.347656-74.980469-112.636719-74.980469-181.019531 0-68.378906 26.628906-132.664062 74.984375-181.015625l10.730469-10.734375 64.398437 64.398438-10.734375 10.734374c-31.15625 31.140626-48.3125 72.558594-48.3125 116.617188 0 90.945312 73.988282 164.933594 164.933594 164.933594s164.933594-73.988282 164.933594-164.933594c0-44.058594-17.15625-85.476562-48.3125-116.617188l-10.734375-10.734374 64.398437-64.398438 10.730469 10.734375c48.355469 48.351563 74.984375 112.636719 74.984375 181.015625 0 68.382812-26.628906 132.671875-74.980469 181.019531-48.347656 48.351563-112.636719 74.980469-181.019531 74.980469zm0 0" fill="#cde2ff"/><path d="m512 256c0-68.378906-26.628906-132.664062-74.984375-181.015625l-10.730469-10.734375-64.398437 64.398438 10.734375 10.734374c31.15625 31.140626 48.3125 72.558594 48.3125 116.617188 0 90.945312-73.988282 164.933594-164.933594 164.933594v91.066406c68.382812 0 132.671875-26.628906 181.019531-74.980469 48.351563-48.347656 74.980469-112.636719 74.980469-181.019531zm0 0" fill="#9bc5ff"/><path d="m383.351562 150.113281-10.734374-10.734375c-31.140626-31.15625-72.558594-48.3125-116.617188-48.3125s-85.476562 17.15625-116.617188 48.3125l-10.730468 10.734375-64.402344-64.398437 10.734375-10.730469c48.351563-48.355469 112.636719-74.984375 181.015625-74.984375s132.664062 26.628906 181.015625 74.984375l10.734375 10.730469zm0 0" fill="#145180"/><path d="m372.617188 139.378906 10.730468 10.734375 64.402344-64.398437-10.734375-10.730469c-48.351563-48.355469-112.636719-74.984375-181.015625-74.984375v91.066406c44.058594 0 85.476562 17.15625 116.617188 48.3125zm0 0" fill="#082130"/></svg>