<svg height="512" viewBox="0 0 64 64" width="512" xmlns="http://www.w3.org/2000/svg"><path d="m32 2a30 30 0 1 0 30 30 30.034 30.034 0 0 0 -30-30zm0 58a28 28 0 1 1 28-28 28.032 28.032 0 0 1 -28 28z"/><path d="m32 6a26 26 0 1 0 26 26 26.03 26.03 0 0 0 -26-26zm21.614 36.425a24.066 24.066 0 0 1 -3.961 5.814l-1.946-1.946-1.414 1.414 1.946 1.946a24.066 24.066 0 0 1 -5.814 3.961l-1.525-3.061-1.79.894 1.48 2.959a23.916 23.916 0 0 1 -17.17 0l1.48-2.959-1.79-.894-1.53 3.061a24.066 24.066 0 0 1 -5.814-3.961l1.946-1.946-1.414-1.414-1.946 1.946a24.066 24.066 0 0 1 -3.961-5.814l3.061-1.53-.894-1.79-2.959 1.48a23.916 23.916 0 0 1 0-17.17l2.959 1.48.894-1.79-3.061-1.53a24.066 24.066 0 0 1 3.961-5.814l1.946 1.946 1.414-1.414-1.946-1.946a24.066 24.066 0 0 1 5.814-3.961l1.53 3.061 1.79-.894-1.48-2.959a23.916 23.916 0 0 1 17.17 0l-1.49 2.959 1.79.894 1.53-3.061a24.066 24.066 0 0 1 5.814 3.961l-1.946 1.946 1.414 1.414 1.946-1.946a24.066 24.066 0 0 1 3.961 5.814l-3.061 1.53.894 1.79 2.959-1.48a23.916 23.916 0 0 1 0 17.17l-2.954-1.485-.894 1.79z"/><path d="m31 12.118v4.882h-2v2h6v-2h-2v-6a1 1 0 0 0 -1-1h-1a1 1 0 0 0 -.447.105l-2 1 .894 1.79z"/><path d="m54 36v-8a1 1 0 0 0 -1-1h-4v2h3v2h-3v2h3v2h-3v2h4a1 1 0 0 0 1-1z"/><path d="m29 45v8a1 1 0 0 0 1 1h5a1 1 0 0 0 1-1v-4a1 1 0 0 0 -1-1h-4v-2h5v-2h-6a1 1 0 0 0 -1 1zm2 5h3v2h-3z"/><path d="m16 27h-5a1 1 0 0 0 -1 1v4a1 1 0 0 0 1 1h4v2h-5v2h6a1 1 0 0 0 1-1v-8a1 1 0 0 0 -1-1zm-1 4h-3v-2h3z"/><path d="m44 38h2v2h-2z"/><path d="m40 42h2v2h-2z"/><path d="m45.684 17.051-6 2a1 1 0 0 0 -.684.949v3.586l-3.529 3.529a5.96 5.96 0 0 0 -6.942 0l-1.529-1.529v-3.586a1 1 0 0 0 -.684-.949l-6-2a1 1 0 0 0 -1.265 1.265l2 6a1 1 0 0 0 .949.684h3.586l1.529 1.529a5.96 5.96 0 0 0 0 6.942l-8.822 8.822a1 1 0 1 0 1.414 1.414l8.822-8.822a5.99 5.99 0 0 0 8.356-8.356l3.529-3.529h3.586a1 1 0 0 0 .949-.684l2-6a1 1 0 0 0 -1.265-1.265zm-20.684 7.949h-2.279l-1.14-3.419 3.419 1.14zm7 11a4 4 0 1 1 4-4 4 4 0 0 1 -4 4zm11.279-13h-2.279v-2.279l3.419-1.14z"/></svg>