<svg height="512" viewBox="0 0 64 64" width="512" xmlns="http://www.w3.org/2000/svg"><path d="m25 62h14a1 1 0 0 0 1-1v-8.512a21.991 21.991 0 0 0 0-40.976v-8.512a1 1 0 0 0 -1-1h-14a1 1 0 0 0 -1 1v8.512a21.991 21.991 0 0 0 0 40.976v8.512a1 1 0 0 0 1 1zm5-2v-2h4v2zm8 0h-2v-3a1 1 0 0 0 -1-1h-6a1 1 0 0 0 -1 1v3h-2v-6.839a21.874 21.874 0 0 0 12 0zm-4-56v2h-4v-2zm-8 0h2v3a1 1 0 0 0 1 1h6a1 1 0 0 0 1-1v-3h2v6.839a21.874 21.874 0 0 0 -12 0zm-14 28a20 20 0 1 1 20 20 20.023 20.023 0 0 1 -20-20z"/><path d="m50 32a18 18 0 1 0 -18 18 18.021 18.021 0 0 0 18-18zm-34 0a15.916 15.916 0 0 1 4.018-10.568l1.275 1.275 1.414-1.414-1.275-1.275a15.907 15.907 0 0 1 21.136 0l-1.275 1.275 1.414 1.414 1.275-1.275a15.907 15.907 0 0 1 0 21.136l-1.275-1.275-1.414 1.414 1.275 1.275a15.907 15.907 0 0 1 -21.136 0l1.275-1.275-1.414-1.414-1.275 1.275a15.916 15.916 0 0 1 -4.018-10.568z"/><path d="m32 24a3 3 0 1 0 -3-3 3 3 0 0 0 3 3zm0-4a1 1 0 1 1 -1 1 1 1 0 0 1 1-1z"/><path d="m32 40a3 3 0 1 0 3 3 3 3 0 0 0 -3-3zm0 4a1 1 0 1 1 1-1 1 1 0 0 1 -1 1z"/><path d="m19 35a3 3 0 1 0 -3-3 3 3 0 0 0 3 3zm0-4a1 1 0 1 1 -1 1 1 1 0 0 1 1-1z"/><path d="m45 29a3 3 0 1 0 3 3 3 3 0 0 0 -3-3zm0 4a1 1 0 1 1 1-1 1 1 0 0 1 -1 1z"/><path d="m29 32a3 3 0 0 0 6 0 2.951 2.951 0 0 0 -.3-1.285l7.008-7.008-1.414-1.414-7.009 7.007a2.893 2.893 0 0 0 -2.57 0l-6.008-6.008-1.414 1.414 6.007 6.009a2.951 2.951 0 0 0 -.3 1.285zm4 0a1 1 0 1 1 -1-1 1 1 0 0 1 1 1z"/><path d="m23 35h2v2h-2z"/><path d="m27 37h2v2h-2z"/><path d="m8 54a3 3 0 0 1 3 3 1 1 0 0 0 2 0 3 3 0 0 1 3-3 1 1 0 0 0 0-2 3 3 0 0 1 -3-3 1 1 0 0 0 -2 0 3 3 0 0 1 -3 3 1 1 0 0 0 0 2zm4-2.031a4.988 4.988 0 0 0 1.031 1.031 4.988 4.988 0 0 0 -1.031 1.031 4.988 4.988 0 0 0 -1.031-1.031 4.988 4.988 0 0 0 1.031-1.031z"/><path d="m57 12a1 1 0 0 0 -1-1 3 3 0 0 1 -3-3 1 1 0 0 0 -2 0 3 3 0 0 1 -3 3 1 1 0 0 0 0 2 3 3 0 0 1 3 3 1 1 0 0 0 2 0 3 3 0 0 1 3-3 1 1 0 0 0 1-1zm-5 1.031a4.988 4.988 0 0 0 -1.031-1.031 4.988 4.988 0 0 0 1.031-1.031 4.988 4.988 0 0 0 1.031 1.031 4.988 4.988 0 0 0 -1.031 1.031z"/></svg>