<svg height="512" viewBox="0 0 64 64" width="512" xmlns="http://www.w3.org/2000/svg"><path d="m40.716 14.064-1.859-12.064h-21.714l-1.859 12.064a21.968 21.968 0 0 0 0 35.872l1.859 12.064h21.714l1.859-12.064a22.015 22.015 0 0 0 9.074-14.936h2.21v2h6v-10h-6v2h-2.21a22.015 22.015 0 0 0 -9.074-14.936zm-5.716-10.064h2.143l1.333 8.658a21.956 21.956 0 0 0 -3.476-1.51zm-7 6a21.983 21.983 0 0 0 -5 .58v-2.58h10v2.58a21.983 21.983 0 0 0 -5-.58zm-5-6h10v2h-10zm-4.143 0h2.143v7.148a21.956 21.956 0 0 0 -3.476 1.51zm2.143 56h-2.143l-1.333-8.658a21.956 21.956 0 0 0 3.476 1.51zm7-6a21.983 21.983 0 0 0 5-.58v2.58h-10v-2.58a21.983 21.983 0 0 0 5 .58zm5 6h-10v-2h10zm4.143 0h-2.143v-7.148a21.956 21.956 0 0 0 3.476-1.51zm18.857-31v6h-2v-6zm-4 2v2h-2.025c.015-.332.025-.665.025-1s-.01-.668-.025-1zm-24 21a20 20 0 1 1 20-20 20.023 20.023 0 0 1 -20 20z"/><path d="m28 14a18 18 0 1 0 18 18 18.021 18.021 0 0 0 -18-18zm0 34a16 16 0 1 1 16-16 16.019 16.019 0 0 1 -16 16z"/><path d="m27 18h2v4h-2z"/><path d="m14 31h4v2h-4z"/><path d="m38 31h4v2h-4z"/><path d="m18 21.586h2v2.828h-2z" transform="matrix(.707 -.707 .707 .707 -10.698 20.172)"/><path d="m35.586 22h2.828v2h-2.828z" transform="matrix(.707 -.707 .707 .707 -5.426 32.899)"/><path d="m17.586 40h2.828v2h-2.828z" transform="matrix(.707 -.707 .707 .707 -23.426 25.444)"/><path d="m36 39.586h2v2.828h-2z" transform="matrix(.707 -.707 .707 .707 -18.154 38.172)"/><path d="m23 41a5 5 0 1 0 5-5 5.006 5.006 0 0 0 -5 5zm4-2.816v2.816h2v-2.816a3 3 0 1 1 -2 0z"/><path d="m28 28a3.947 3.947 0 0 0 -2.019.567l-4.274-4.274-1.414 1.414 4.274 4.274a3.947 3.947 0 0 0 -.567 2.019 4 4 0 1 0 7.928-.715l9.491-4.377-.838-1.816-9.505 4.382a3.976 3.976 0 0 0 -3.076-1.474zm0 6a2 2 0 1 1 2-2 2 2 0 0 1 -2 2z"/><path d="m25 24h6v2h-6z"/></svg>