<svg height="512" viewBox="0 0 64 64" width="512" xmlns="http://www.w3.org/2000/svg"><path d="m19.284 49.936 1.858 12.064h21.716l1.858-12.064a21.968 21.968 0 0 0 0-35.872l-1.858-12.064h-21.716l-1.858 12.064a21.968 21.968 0 0 0 0 35.872zm5.716 10.064h-2.142l-1.334-8.658a21.956 21.956 0 0 0 3.476 1.51zm7-6a21.983 21.983 0 0 0 5-.58v2.58h-10v-2.58a21.983 21.983 0 0 0 5 .58zm5 6h-10v-2h10zm4.142 0h-2.142v-7.148a21.956 21.956 0 0 0 3.476-1.51zm-2.142-56h2.142l1.334 8.658a21.956 21.956 0 0 0 -3.476-1.51zm-7 6a21.983 21.983 0 0 0 -5 .58v-2.58h10v2.58a21.983 21.983 0 0 0 -5-.58zm-5-6h10v2h-10zm-4.142 0h2.142v7.148a21.956 21.956 0 0 0 -3.476 1.51zm9.142 8a20 20 0 1 1 -20 20 20.023 20.023 0 0 1 20-20z"/><path d="m32 50a18 18 0 1 0 -18-18 18.021 18.021 0 0 0 18 18zm0-34a16 16 0 1 1 -16 16 16.019 16.019 0 0 1 16-16z"/><path d="m32 26a5.957 5.957 0 0 1 4.286 1.8l1.429-1.4a8.009 8.009 0 0 0 -8-2.07l.572 1.917a5.948 5.948 0 0 1 1.713-.247z"/><path d="m38 32a6 6 0 1 1 -11.751-1.714l-1.917-.572a8 8 0 1 0 15.668 2.286z"/><path d="m31 18h2v4h-2z"/><path d="m31 42h2v4h-2z"/><path d="m18 31h4v2h-4z"/><path d="m42 31h4v2h-4z"/><path d="m22 21.586h2v2.828h-2z" transform="matrix(.707 -.707 .707 .707 -9.527 23)"/><path d="m39.586 22h2.828v2h-2.828z" transform="matrix(.707 -.707 .707 .707 -4.255 35.728)"/><path d="m21.586 40h2.828v2h-2.828z" transform="matrix(.707 -.707 .707 .707 -22.255 28.272)"/><path d="m40 39.586h2v2.828h-2z" transform="matrix(.707 -.707 .707 .707 -16.983 41)"/><path d="m31.786 33.2 13.633-6.292-.838-1.816-12.367 5.708-6.507-6.507-1.414 1.414z"/></svg>